DINAH BOLD.ufo
<glyph name="exclam" format="1">
  <advance width="270"/>
  <unicode hex="0021"/>
  <outline>
    <contour>
      <point x="80" y="209" type="line"/>
      <point x="84" y="240"/>
      <point x="89" y="410"/>
      <point x="89" y="460" type="curve" smooth="yes"/>
      <point x="89" y="504"/>
      <point x="81" y="552"/>
      <point x="73" y="567" type="curve"/>
      <point x="127" y="649" type="line"/>
      <point x="131" y="653"/>
      <point x="141" y="656"/>
      <point x="154" y="656" type="curve" smooth="yes"/>
      <point x="185" y="656"/>
      <point x="201" y="553"/>
      <point x="201" y="437" type="curve" smooth="yes"/>
      <point x="201" y="334"/>
      <point x="193" y="212"/>
      <point x="180" y="142" type="curve"/>
    </contour>
    <contour>
      <point x="140" y="116" type="curve" smooth="yes"/>
      <point x="197" y="116"/>
      <point x="211" y="81"/>
      <point x="211" y="57" type="curve" smooth="yes"/>
      <point x="211" y="26"/>
      <point x="180" y="-2"/>
      <point x="136" y="-2" type="curve" smooth="yes"/>
      <point x="91" y="-2"/>
      <point x="61" y="26"/>
      <point x="61" y="57" type="curve" smooth="yes"/>
      <point x="61" y="91"/>
      <point x="99" y="116"/>
    </contour>
  </outline>
</glyph>
<glyph name="quotedbl" format="1">
  <advance width="302"/>
  <unicode hex="0022"/>
  <outline>
    <contour>
      <point x="120" y="654" type="line" name="hr00"/>
      <point x="124" y="585" type="line"/>
      <point x="126" y="553"/>
      <point x="129" y="496"/>
      <point x="129" y="476" type="qcurve"/>
      <point x="129" y="450"/>
      <point x="107" y="422"/>
      <point x="85" y="422" type="qcurve"/>
      <point x="31" y="465" type="line"/>
      <point x="28" y="468"/>
      <point x="28" y="479" type="qcurve"/>
      <point x="28" y="487"/>
      <point x="30" y="503"/>
      <point x="30" y="508" type="qcurve"/>
      <point x="30" y="581" type="line"/>
      <point x="28" y="604"/>
      <point x="26" y="648"/>
      <point x="24" y="654" type="qcurve"/>
    </contour>
    <contour>
      <point x="261" y="654" type="line"/>
      <point x="265" y="597"/>
      <point x="270" y="507"/>
      <point x="270" y="476" type="qcurve"/>
      <point x="270" y="450"/>
      <point x="250" y="422"/>
      <point x="227" y="422" type="qcurve"/>
      <point x="172" y="465" type="line"/>
      <point x="172" y="508" type="line"/>
      <point x="172" y="525"/>
      <point x="171" y="573"/>
      <point x="170" y="618"/>
      <point x="167" y="651"/>
      <point x="166" y="654" type="qcurve"/>
    </contour>
  </outline>
</glyph>
<glyph name="numbersign" format="1">
  <advance width="756"/>
  <unicode hex="0023"/>
  <outline>
    <contour>
      <point x="78" y="212" type="line"/>
      <point x="99" y="212"/>
      <point x="146" y="213"/>
      <point x="156" y="213" type="qcurve"/>
      <point x="191" y="213" type="line"/>
      <point x="228" y="361" type="line"/>
      <point x="167" y="359"/>
      <point x="116" y="358"/>
      <point x="113" y="358" type="qcurve"/>
      <point x="131" y="429" type="line"/>
      <point x="244" y="429" type="line"/>
      <point x="247" y="441"/>
      <point x="256" y="480"/>
      <point x="263" y="519"/>
      <point x="269" y="552"/>
      <point x="269" y="560" type="qcurve"/>
      <point x="269" y="564"/>
      <point x="268" y="565" type="qcurve"/>
      <point x="269" y="565"/>
      <point x="273" y="570"/>
      <point x="287" y="587"/>
      <point x="313" y="621"/>
      <point x="336" y="650" type="qcurve"/>
      <point x="362" y="647"/>
      <point x="385" y="629"/>
      <point x="385" y="613" type="qcurve"/>
      <point x="385" y="588"/>
      <point x="366" y="487"/>
      <point x="353" y="430" type="qcurve"/>
      <point x="465" y="430" type="line" name="hr01"/>
      <point x="473" y="462" type="line"/>
      <point x="479" y="487"/>
      <point x="490" y="537"/>
      <point x="490" y="554" type="qcurve" name="hr02"/>
      <point x="490" y="564" type="line"/>
      <point x="557" y="650" type="line"/>
      <point x="583" y="647"/>
      <point x="606" y="629"/>
      <point x="606" y="613" type="qcurve"/>
      <point x="606" y="584"/>
      <point x="589" y="489"/>
      <point x="576" y="430" type="qcurve"/>
      <point x="639" y="428"/>
      <point x="703" y="416"/>
      <point x="703" y="402" type="qcurve"/>
      <point x="591" y="359" type="line"/>
      <point x="563" y="370" type="line"/>
      <point x="530" y="233" type="line"/>
      <point x="530" y="231"/>
      <point x="529" y="224"/>
      <point x="525" y="214" type="qcurve"/>
      <point x="588" y="212"/>
      <point x="654" y="201"/>
      <point x="654" y="186" type="qcurve"/>
      <point x="533" y="139" type="line"/>
      <point x="524" y="146"/>
      <point x="517" y="154"/>
      <point x="515" y="154" type="qcurve"/>
      <point x="509" y="148"/>
      <point x="507" y="141" type="qcurve"/>
      <point x="489" y="64" type="line"/>
      <point x="486" y="47"/>
      <point x="479" y="14"/>
      <point x="475" y="0" type="qcurve"/>
      <point x="355" y="0" type="line"/>
      <point x="359" y="11"/>
      <point x="382" y="96"/>
      <point x="396" y="153" type="qcurve"/>
      <point x="287" y="153" type="line"/>
      <point x="287" y="145" type="line"/>
      <point x="287" y="144"/>
      <point x="286" y="140"/>
      <point x="281" y="120"/>
      <point x="272" y="77"/>
      <point x="263" y="38" type="qcurve"/>
      <point x="261" y="29"/>
      <point x="257" y="9"/>
      <point x="255" y="0" type="qcurve"/>
      <point x="134" y="0" type="line"/>
      <point x="148" y="52"/>
      <point x="163" y="110"/>
      <point x="171" y="138"/>
      <point x="172" y="144"/>
      <point x="172" y="145" type="qcurve"/>
      <point x="133" y="143" type="line"/>
      <point x="115" y="142"/>
      <point x="79" y="140"/>
      <point x="59" y="137" type="qcurve"/>
    </contour>
    <contour>
      <point x="413" y="215" type="line"/>
      <point x="421" y="250"/>
      <point x="443" y="334"/>
      <point x="451" y="369" type="qcurve"/>
      <point x="419" y="368"/>
      <point x="359" y="365"/>
      <point x="339" y="365" type="qcurve"/>
      <point x="311" y="248" type="line"/>
      <point x="309" y="232"/>
      <point x="303" y="215" type="qcurve"/>
    </contour>
  </outline>
</glyph>
<glyph name="dollar" format="1">
  <advance width="657"/>
  <unicode hex="0024"/>
  <outline>
    <contour>
      <point x="431" y="477" type="line"/>
      <point x="428" y="539"/>
      <point x="387" y="571"/>
      <point x="343" y="583" type="curve"/>
      <point x="345" y="528"/>
      <point x="346" y="457"/>
      <point x="348" y="395" type="curve"/>
      <point x="437" y="361"/>
      <point x="541" y="331"/>
      <point x="542" y="220" type="curve" smooth="yes"/>
      <point x="542" y="207"/>
      <point x="539" y="187"/>
      <point x="534" y="164" type="curve" smooth="yes"/>
      <point x="522" y="116"/>
      <point x="424" y="43"/>
      <point x="350" y="11" type="curve"/>
      <point x="350" y="-90" type="line"/>
      <point x="266" y="-83" type="line"/>
      <point x="268" y="-5" type="line"/>
      <point x="268" y="-4" type="line"/>
      <point x="211" y="-2"/>
      <point x="179" y="9"/>
      <point x="110" y="68" type="curve"/>
      <point x="89" y="149"/>
      <point x="109" y="169"/>
      <point x="100" y="192" type="curve"/>
      <point x="184" y="228" type="line"/>
      <point x="184" y="207" type="line" smooth="yes"/>
      <point x="183" y="140"/>
      <point x="220" y="95"/>
      <point x="268" y="75" type="curve"/>
      <point x="269" y="253" type="line"/>
      <point x="269" y="312" type="line"/>
      <point x="190" y="342"/>
      <point x="109" y="375"/>
      <point x="106" y="472" type="curve"/>
      <point x="107" y="476"/>
      <point x="107" y="482"/>
      <point x="107" y="489" type="curve" smooth="yes"/>
      <point x="107" y="493"/>
      <point x="108" y="494"/>
      <point x="108" y="498" type="curve"/>
      <point x="122" y="548"/>
      <point x="201" y="612"/>
      <point x="264" y="642" type="curve"/>
      <point x="264" y="647" type="line"/>
      <point x="261" y="682" type="line" smooth="yes"/>
      <point x="260" y="702"/>
      <point x="259" y="718"/>
      <point x="260" y="717" type="curve"/>
      <point x="300" y="743" type="line"/>
      <point x="332" y="743"/>
      <point x="335" y="714"/>
      <point x="338" y="687" type="curve" smooth="yes"/>
      <point x="341" y="664" type="line"/>
      <point x="341" y="657" type="line"/>
      <point x="425" y="653"/>
      <point x="491" y="623"/>
      <point x="491" y="617" type="curve"/>
      <point x="490" y="617" type="line"/>
      <point x="502" y="578"/>
      <point x="523" y="509"/>
      <point x="527" y="480" type="curve"/>
    </contour>
    <contour>
      <point x="393" y="89" type="curve"/>
      <point x="401" y="104"/>
      <point x="403" y="117"/>
      <point x="406" y="139" type="curve"/>
      <point x="411" y="208"/>
      <point x="386" y="247"/>
      <point x="350" y="273" type="curve"/>
      <point x="350" y="65" type="line"/>
      <point x="363" y="70"/>
      <point x="380" y="79"/>
    </contour>
    <contour>
      <point x="269" y="538" type="line" smooth="yes"/>
      <point x="269" y="542"/>
      <point x="268" y="561"/>
      <point x="267" y="581" type="curve"/>
      <point x="256" y="576"/>
      <point x="245" y="568"/>
      <point x="241" y="563" type="curve"/>
      <point x="239" y="558"/>
      <point x="234" y="551"/>
      <point x="232" y="546" type="curve" smooth="yes"/>
      <point x="226" y="534"/>
      <point x="223" y="530"/>
      <point x="222" y="510" type="curve"/>
      <point x="224" y="475"/>
      <point x="242" y="452"/>
      <point x="269" y="433" type="curve"/>
    </contour>
  </outline>
</glyph>
<glyph name="percent" format="1">
  <advance width="715"/>
  <unicode hex="0025"/>
  <outline>
    <contour>
      <point x="162" y="353" type="qcurve" name="hr03"/>
      <point x="110" y="353"/>
      <point x="51" y="381"/>
      <point x="21" y="427"/>
      <point x="14" y="486"/>
      <point x="14" y="516" type="qcurve"/>
      <point x="14" y="530"/>
      <point x="54" y="578"/>
      <point x="110" y="624"/>
      <point x="170" y="657"/>
      <point x="190" y="657" type="qcurve"/>
      <point x="233" y="657"/>
      <point x="291" y="637"/>
      <point x="325" y="602"/>
      <point x="340" y="557"/>
      <point x="340" y="532" type="qcurve"/>
      <point x="340" y="529"/>
      <point x="340" y="522"/>
      <point x="339" y="517" type="qcurve"/>
      <point x="336" y="494" type="line"/>
      <point x="334" y="479"/>
      <point x="294" y="431"/>
      <point x="239" y="386"/>
      <point x="181" y="353"/>
    </contour>
    <contour>
      <point x="487" y="-5" type="qcurve"/>
      <point x="435" y="-5"/>
      <point x="376" y="23"/>
      <point x="346" y="70"/>
      <point x="339" y="128"/>
      <point x="339" y="158" type="qcurve"/>
      <point x="339" y="173"/>
      <point x="379" y="220"/>
      <point x="435" y="266"/>
      <point x="495" y="299"/>
      <point x="515" y="299" type="qcurve"/>
      <point x="558" y="299"/>
      <point x="616" y="279"/>
      <point x="650" y="245"/>
      <point x="664" y="200"/>
      <point x="664" y="175" type="qcurve" name="hr01"/>
      <point x="664" y="168"/>
      <point x="661" y="152"/>
      <point x="661" y="136" type="qcurve"/>
      <point x="661" y="122"/>
      <point x="621" y="74"/>
      <point x="565" y="28"/>
      <point x="506" y="-5"/>
    </contour>
    <contour>
      <point x="63" y="-7" type="line"/>
      <point x="68" y="-1"/>
      <point x="114" y="72"/>
      <point x="178" y="177"/>
      <point x="253" y="297"/>
      <point x="319" y="405"/>
      <point x="367" y="485"/>
      <point x="374" y="496" type="qcurve"/>
      <point x="380" y="505"/>
      <point x="395" y="529"/>
      <point x="408" y="553"/>
      <point x="418" y="576"/>
      <point x="418" y="585" type="qcurve"/>
      <point x="523" y="655" type="line"/>
      <point x="551" y="638"/>
      <point x="551" y="634" type="qcurve"/>
      <point x="550" y="617"/>
      <point x="484" y="489"/>
      <point x="427" y="394" type="qcurve"/>
      <point x="361" y="285" type="line"/>
      <point x="353" y="272"/>
      <point x="338" y="248"/>
      <point x="330" y="236" type="qcurve"/>
      <point x="186" y="-1" type="line"/>
    </contour>
    <contour>
      <point x="559" y="69" type="qcurve"/>
      <point x="561" y="82"/>
      <point x="565" y="116"/>
      <point x="565" y="135" type="qcurve"/>
      <point x="565" y="156"/>
      <point x="556" y="197"/>
      <point x="538" y="228"/>
      <point x="513" y="247"/>
      <point x="497" y="247" type="qcurve"/>
      <point x="481" y="247"/>
      <point x="454" y="233" type="qcurve" name="hr02"/>
      <point x="449" y="219"/>
      <point x="441" y="186"/>
      <point x="441" y="166" type="qcurve"/>
      <point x="441" y="145"/>
      <point x="454" y="106"/>
      <point x="476" y="76"/>
      <point x="506" y="58"/>
      <point x="523" y="58" type="qcurve"/>
      <point x="538" y="58"/>
    </contour>
    <contour>
      <point x="235" y="426" type="qcurve"/>
      <point x="237" y="438"/>
      <point x="241" y="473"/>
      <point x="241" y="493" type="qcurve"/>
      <point x="241" y="514"/>
      <point x="232" y="554"/>
      <point x="214" y="585"/>
      <point x="188" y="604"/>
      <point x="172" y="604" type="qcurve"/>
      <point x="156" y="604"/>
      <point x="129" y="590" type="qcurve"/>
      <point x="124" y="577"/>
      <point x="117" y="543"/>
      <point x="117" y="524" type="qcurve"/>
      <point x="117" y="503"/>
      <point x="130" y="464"/>
      <point x="152" y="434"/>
      <point x="181" y="416"/>
      <point x="198" y="416" type="qcurve"/>
      <point x="214" y="416"/>
    </contour>
  </outline>
</glyph>
<glyph name="ampersand" format="1">
  <advance width="642"/>
  <unicode hex="0026"/>
  <outline>
    <contour>
      <point x="524" y="155" type="line"/>
      <point x="522" y="155" type="line"/>
      <point x="547" y="122"/>
      <point x="610" y="42"/>
      <point x="610" y="11" type="curve" smooth="yes"/>
      <point x="610" y="7"/>
      <point x="604" y="1"/>
      <point x="592" y="-7" type="curve"/>
      <point x="482" y="-8" type="line"/>
      <point x="481" y="10"/>
      <point x="447" y="72"/>
      <point x="447" y="72" type="curve"/>
      <point x="381" y="17"/>
      <point x="313" y="-11"/>
      <point x="249" y="-14" type="curve"/>
      <point x="124" y="-17"/>
      <point x="59" y="55"/>
      <point x="48" y="160" type="curve"/>
      <point x="48" y="258"/>
      <point x="112" y="328"/>
      <point x="240" y="372" type="curve"/>
      <point x="230" y="372" type="line"/>
      <point x="212" y="403"/>
      <point x="181" y="485"/>
      <point x="181" y="545" type="curve" smooth="yes"/>
      <point x="181" y="598"/>
      <point x="215" y="646"/>
      <point x="326" y="657" type="curve" smooth="yes"/>
      <point x="330" y="657"/>
      <point x="334" y="658"/>
      <point x="337" y="658" type="curve" smooth="yes"/>
      <point x="344" y="658" type="line" smooth="yes"/>
      <point x="424" y="658"/>
      <point x="471" y="605"/>
      <point x="471" y="542" type="curve" smooth="yes"/>
      <point x="471" y="486"/>
      <point x="437" y="414"/>
      <point x="355" y="369" type="curve"/>
      <point x="361" y="369" type="line"/>
      <point x="468" y="229" type="line"/>
      <point x="476" y="258"/>
      <point x="487" y="305"/>
      <point x="487" y="352" type="curve" smooth="yes"/>
      <point x="487" y="374" type="line"/>
      <point x="487" y="373"/>
      <point x="590" y="393"/>
      <point x="590" y="393" type="curve"/>
      <point x="597" y="382"/>
      <point x="597" y="382"/>
      <point x="597" y="381" type="curve" smooth="yes"/>
      <point x="597" y="339"/>
      <point x="520" y="162"/>
      <point x="520" y="162" type="curve"/>
      <point x="519" y="162" type="line"/>
    </contour>
    <contour>
      <point x="414" y="124" type="line"/>
      <point x="281" y="290"/>
      <point x="262" y="317"/>
      <point x="252" y="330" type="curve"/>
      <point x="194" y="310"/>
      <point x="175" y="282"/>
      <point x="175" y="233" type="curve" smooth="yes"/>
      <point x="175" y="200"/>
      <point x="188" y="166"/>
      <point x="209" y="131" type="curve"/>
      <point x="249" y="71"/>
      <point x="277" y="44"/>
      <point x="300" y="44" type="curve" smooth="yes"/>
      <point x="312" y="44"/>
      <point x="331" y="53"/>
      <point x="352" y="68" type="curve"/>
      <point x="395" y="105" type="line"/>
      <point x="417" y="124" type="line"/>
    </contour>
    <contour>
      <point x="301" y="611" type="line"/>
      <point x="295" y="599"/>
      <point x="292" y="578"/>
      <point x="292" y="554" type="curve" smooth="yes"/>
      <point x="292" y="495"/>
      <point x="308" y="423"/>
      <point x="321" y="408" type="curve"/>
      <point x="346" y="423"/>
      <point x="359" y="466"/>
      <point x="359" y="512" type="curve" smooth="yes"/>
      <point x="359" y="566"/>
      <point x="344" y="620"/>
      <point x="315" y="620" type="curve" smooth="yes"/>
      <point x="311" y="620"/>
      <point x="305" y="618"/>
      <point x="294" y="611" type="curve"/>
    </contour>
  </outline>
</glyph>
<glyph name="quotesingle" format="1">
  <advance width="152"/>
  <unicode hex="0027"/>
  <outline>
    <contour>
      <point x="118" y="654" type="line" name="hr00"/>
      <point x="122" y="585" type="line"/>
      <point x="124" y="553"/>
      <point x="127" y="496"/>
      <point x="127" y="476" type="qcurve"/>
      <point x="127" y="450"/>
      <point x="105" y="422"/>
      <point x="83" y="422" type="qcurve"/>
      <point x="29" y="465" type="line"/>
      <point x="26" y="468"/>
      <point x="26" y="479" type="qcurve"/>
      <point x="26" y="487"/>
      <point x="28" y="503"/>
      <point x="28" y="508" type="qcurve"/>
      <point x="28" y="581" type="line"/>
      <point x="26" y="604"/>
      <point x="24" y="648"/>
      <point x="22" y="654" type="qcurve"/>
    </contour>
  </outline>
</glyph>
<glyph name="parenleft" format="1">
  <advance width="301"/>
  <unicode hex="0028"/>
  <outline>
    <contour>
      <point x="279" y="642" type="line" name="hr00"/>
      <point x="242" y="589"/>
      <point x="194" y="489"/>
      <point x="167" y="383"/>
      <point x="156" y="265"/>
      <point x="156" y="194" type="qcurve"/>
      <point x="156" y="178" type="line"/>
      <point x="156" y="98"/>
      <point x="178" y="-21"/>
      <point x="214" y="-112"/>
      <point x="258" y="-184"/>
      <point x="279" y="-215" type="qcurve"/>
      <point x="285" y="-225"/>
      <point x="299" y="-244"/>
      <point x="305" y="-254" type="qcurve"/>
      <point x="246" y="-254" type="line"/>
      <point x="187" y="-205"/>
      <point x="139" y="-137" type="qcurve"/>
      <point x="119" y="-108"/>
      <point x="80" y="-37"/>
      <point x="49" y="47"/>
      <point x="30" y="143"/>
      <point x="29" y="197" type="qcurve"/>
      <point x="29" y="201" type="line"/>
      <point x="29" y="255"/>
      <point x="47" y="353"/>
      <point x="77" y="440"/>
      <point x="115" y="516"/>
      <point x="135" y="548" type="qcurve"/>
      <point x="182" y="622"/>
      <point x="241" y="680" type="qcurve"/>
    </contour>
  </outline>
</glyph>
<glyph name="parenright" format="1">
  <advance width="281"/>
  <unicode hex="0029"/>
  <outline>
    <contour>
      <point x="44" y="680" type="line" name="hr00"/>
      <point x="103" y="622"/>
      <point x="150" y="548" type="qcurve"/>
      <point x="170" y="516"/>
      <point x="208" y="440"/>
      <point x="238" y="353"/>
      <point x="256" y="255"/>
      <point x="256" y="201" type="qcurve"/>
      <point x="256" y="197" type="line"/>
      <point x="255" y="143"/>
      <point x="236" y="47"/>
      <point x="205" y="-37"/>
      <point x="166" y="-108"/>
      <point x="146" y="-137" type="qcurve"/>
      <point x="98" y="-205"/>
      <point x="39" y="-254" type="qcurve"/>
      <point x="-20" y="-254" type="line"/>
      <point x="-14" y="-244"/>
      <point x="0" y="-225"/>
      <point x="7" y="-215" type="qcurve"/>
      <point x="28" y="-184"/>
      <point x="71" y="-112"/>
      <point x="107" y="-21"/>
      <point x="129" y="98"/>
      <point x="129" y="178" type="qcurve"/>
      <point x="129" y="182"/>
      <point x="128" y="190"/>
      <point x="128" y="194" type="qcurve"/>
      <point x="128" y="210" type="line"/>
      <point x="126" y="278"/>
      <point x="115" y="390"/>
      <point x="89" y="491"/>
      <point x="43" y="588"/>
      <point x="6" y="642" type="qcurve"/>
    </contour>
  </outline>
</glyph>
<glyph name="asterisk" format="1">
  <advance width="364"/>
  <unicode hex="002A"/>
  <outline>
    <contour>
      <point x="240" y="670" type="line" name="hr00"/>
      <point x="236" y="663"/>
      <point x="223" y="635"/>
      <point x="209" y="600"/>
      <point x="198" y="563"/>
      <point x="197" y="548" type="qcurve"/>
      <point x="213" y="578"/>
      <point x="253" y="614"/>
      <point x="292" y="632"/>
      <point x="325" y="637"/>
      <point x="333" y="638" type="qcurve"/>
      <point x="333" y="561" type="line"/>
      <point x="319" y="558"/>
      <point x="287" y="558"/>
      <point x="255" y="554"/>
      <point x="223" y="543"/>
      <point x="208" y="530" type="qcurve"/>
      <point x="244" y="526"/>
      <point x="298" y="504"/>
      <point x="335" y="479"/>
      <point x="355" y="455"/>
      <point x="357" y="449" type="qcurve"/>
      <point x="274" y="426" type="line"/>
      <point x="272" y="437"/>
      <point x="253" y="461"/>
      <point x="230" y="483"/>
      <point x="206" y="501"/>
      <point x="199" y="506" type="qcurve"/>
      <point x="213" y="472"/>
      <point x="223" y="427"/>
      <point x="223" y="411" type="qcurve"/>
      <point x="223" y="399"/>
      <point x="220" y="382"/>
      <point x="220" y="374" type="qcurve"/>
      <point x="126" y="391" type="line"/>
      <point x="132" y="407"/>
      <point x="148" y="449"/>
      <point x="162" y="486"/>
      <point x="172" y="510"/>
      <point x="172" y="510" type="qcurve"/>
      <point x="159" y="484"/>
      <point x="129" y="456"/>
      <point x="99" y="443"/>
      <point x="73" y="440"/>
      <point x="64" y="440" type="qcurve"/>
      <point x="29" y="440" type="line"/>
      <point x="34" y="502" type="line"/>
      <point x="60" y="504"/>
      <point x="126" y="513"/>
      <point x="156" y="530" type="qcurve"/>
      <point x="120" y="537"/>
      <point x="69" y="557"/>
      <point x="36" y="578"/>
      <point x="19" y="596"/>
      <point x="18" y="602" type="qcurve"/>
      <point x="105" y="629" type="line"/>
      <point x="111" y="618"/>
      <point x="129" y="593"/>
      <point x="147" y="571"/>
      <point x="164" y="554"/>
      <point x="170" y="553" type="qcurve"/>
      <point x="164" y="569"/>
      <point x="155" y="591"/>
      <point x="148" y="610"/>
      <point x="145" y="629"/>
      <point x="145" y="641" type="qcurve"/>
      <point x="145" y="656"/>
      <point x="148" y="683" type="qcurve"/>
    </contour>
  </outline>
</glyph>
<glyph name="plus" format="1">
  <advance width="578"/>
  <unicode hex="002B"/>
  <outline>
    <contour>
      <point x="80" y="260" type="line"/>
      <point x="225" y="260" type="line"/>
      <point x="225" y="270"/>
      <point x="226" y="298"/>
      <point x="226" y="305" type="qcurve" name="hr01"/>
      <point x="226" y="324" type="line"/>
      <point x="226" y="348"/>
      <point x="223" y="370"/>
      <point x="221" y="382" type="qcurve"/>
      <point x="219" y="393" type="line" name="hr02"/>
      <point x="262" y="462" type="line"/>
      <point x="265" y="471"/>
      <point x="288" y="471" type="qcurve"/>
      <point x="316" y="471"/>
      <point x="329" y="383"/>
      <point x="329" y="294" type="qcurve"/>
      <point x="329" y="262" type="line"/>
      <point x="505" y="262" type="line"/>
      <point x="471" y="199" type="line"/>
      <point x="446" y="199"/>
      <point x="408" y="199"/>
      <point x="375" y="200"/>
      <point x="344" y="200"/>
      <point x="327" y="200" type="qcurve"/>
      <point x="325" y="149"/>
      <point x="317" y="55"/>
      <point x="311" y="25" type="qcurve"/>
      <point x="212" y="25" type="line"/>
      <point x="213" y="33"/>
      <point x="215" y="69"/>
      <point x="218" y="117"/>
      <point x="221" y="172"/>
      <point x="222" y="199" type="qcurve"/>
      <point x="171" y="198"/>
      <point x="83" y="194"/>
      <point x="61" y="192" type="qcurve"/>
    </contour>
  </outline>
</glyph>
<glyph name="comma" format="1">
  <advance width="239"/>
  <unicode hex="002C"/>
  <outline>
    <contour>
      <point x="93" y="-122" type="qcurve" name="hr00"/>
      <point x="82" y="-117"/>
      <point x="55" y="-104"/>
      <point x="47" y="-98" type="qcurve"/>
      <point x="57" y="-91"/>
      <point x="84" y="-36"/>
      <point x="95" y="-2" type="qcurve"/>
      <point x="64" y="0"/>
      <point x="29" y="35"/>
      <point x="29" y="57" type="qcurve"/>
      <point x="29" y="72"/>
      <point x="42" y="93"/>
      <point x="62" y="107"/>
      <point x="87" y="114"/>
      <point x="98" y="116" type="qcurve"/>
      <point x="107" y="116" type="line"/>
      <point x="140" y="116"/>
      <point x="189" y="75"/>
      <point x="189" y="43" type="qcurve"/>
      <point x="189" y="21"/>
      <point x="168" y="-27"/>
      <point x="138" y="-71"/>
      <point x="107" y="-107"/>
      <point x="98" y="-117" type="qcurve"/>
      <point x="96" y="-119"/>
      <point x="94" y="-120"/>
    </contour>
  </outline>
</glyph>
<glyph name="hyphen" format="1">
  <advance width="388"/>
  <unicode hex="002D"/>
  <outline>
    <contour>
      <point x="77" y="235" type="line"/>
      <point x="174" y="235" type="line"/>
      <point x="210" y="235"/>
      <point x="246" y="237"/>
      <point x="282" y="237" type="curve" smooth="yes"/>
      <point x="327" y="237" type="line"/>
      <point x="292" y="175" type="line"/>
      <point x="241" y="175" type="line"/>
      <point x="180" y="175"/>
      <point x="125" y="174"/>
      <point x="68" y="169" type="curve" smooth="yes"/>
      <point x="64" y="169"/>
      <point x="61" y="168"/>
      <point x="58" y="168" type="curve"/>
    </contour>
  </outline>
</glyph>
<glyph name="period" format="1">
  <advance width="209"/>
  <unicode hex="002E"/>
  <outline>
    <contour>
      <point x="116" y="116" type="qcurve" name="hr00"/>
      <point x="137" y="116"/>
      <point x="165" y="104"/>
      <point x="182" y="87"/>
      <point x="188" y="66"/>
      <point x="188" y="57" type="qcurve"/>
      <point x="188" y="34"/>
      <point x="145" y="-2"/>
      <point x="113" y="-2" type="qcurve"/>
      <point x="78" y="-2"/>
      <point x="38" y="34"/>
      <point x="38" y="57" type="qcurve"/>
      <point x="38" y="60"/>
      <point x="39" y="67"/>
      <point x="41" y="73" type="qcurve"/>
      <point x="45" y="93"/>
      <point x="90" y="116"/>
    </contour>
  </outline>
</glyph>
<glyph name="slash" format="1">
  <advance width="477"/>
  <unicode hex="002F"/>
  <outline>
    <contour>
      <point x="66" y="-1" type="line"/>
      <point x="75" y="4"/>
      <point x="204" y="252"/>
      <point x="279" y="401" type="curve" smooth="yes"/>
      <point x="337" y="516" type="line" smooth="yes"/>
      <point x="351" y="542"/>
      <point x="368" y="579"/>
      <point x="368" y="596" type="curve"/>
      <point x="463" y="666" type="line"/>
      <point x="488" y="658"/>
      <point x="497" y="651"/>
      <point x="497" y="645" type="curve" smooth="yes"/>
      <point x="496" y="615"/>
      <point x="452" y="513"/>
      <point x="396" y="404" type="curve" smooth="yes"/>
      <point x="189" y="0" type="line"/>
    </contour>
  </outline>
</glyph>
<glyph name="zero" format="1">
  <advance width="397"/>
  <unicode hex="0030"/>
  <outline>
    <contour>
      <point x="263" y="135" type="curve"/>
      <point x="277" y="178"/>
      <point x="283" y="235"/>
      <point x="283" y="292" type="curve" smooth="yes"/>
      <point x="283" y="427"/>
      <point x="249" y="564"/>
      <point x="192" y="564" type="curve" smooth="yes"/>
      <point x="181" y="564"/>
      <point x="164" y="553"/>
      <point x="145" y="530" type="curve"/>
      <point x="126" y="481"/>
      <point x="108" y="409"/>
      <point x="108" y="354" type="curve" smooth="yes"/>
      <point x="108" y="216"/>
      <point x="157" y="94"/>
      <point x="218" y="94" type="curve" smooth="yes"/>
      <point x="224" y="94"/>
      <point x="249" y="117"/>
    </contour>
    <contour>
      <point x="180" y="0" type="curve" smooth="yes"/>
      <point x="11" y="0"/>
      <point x="0" y="175"/>
      <point x="0" y="346" type="curve" smooth="yes"/>
      <point x="0" y="429"/>
      <point x="151" y="647"/>
      <point x="215" y="647" type="curve" smooth="yes"/>
      <point x="357" y="647"/>
      <point x="396" y="521"/>
      <point x="396" y="380" type="curve" smooth="yes"/>
      <point x="396" y="354"/>
      <point x="396" y="326"/>
      <point x="393" y="300" type="curve"/>
      <point x="389" y="216"/>
      <point x="242" y="0"/>
    </contour>
  </outline>
</glyph>
<glyph name="one" format="1">
  <advance width="481"/>
  <unicode hex="0031"/>
  <outline>
    <contour>
      <point x="212" y="-1" type="line" name="hr00"/>
      <point x="214" y="20"/>
      <point x="217" y="105"/>
      <point x="220" y="202"/>
      <point x="222" y="297"/>
      <point x="222" y="330" type="qcurve"/>
      <point x="222" y="354"/>
      <point x="222" y="406"/>
      <point x="220" y="456"/>
      <point x="216" y="497"/>
      <point x="212" y="510" type="qcurve"/>
      <point x="201" y="505"/>
      <point x="166" y="495"/>
      <point x="153" y="493" type="qcurve"/>
      <point x="148" y="513" type="line"/>
      <point x="160" y="533"/>
      <point x="204" y="578"/>
      <point x="252" y="617"/>
      <point x="296" y="643"/>
      <point x="308" y="643" type="qcurve"/>
      <point x="318" y="627" type="line"/>
      <point x="327" y="607"/>
      <point x="332" y="506"/>
      <point x="332" y="426" type="qcurve"/>
      <point x="332" y="180" type="line"/>
      <point x="332" y="138"/>
      <point x="332" y="52"/>
      <point x="333" y="4" type="qcurve"/>
    </contour>
  </outline>
</glyph>
<glyph name="two" format="1">
  <advance width="481"/>
  <unicode hex="0032"/>
  <outline>
    <contour>
      <point x="219" y="649" type="line"/>
      <point x="235" y="649"/>
      <point x="294" y="615"/>
      <point x="355" y="567"/>
      <point x="404" y="516"/>
      <point x="409" y="499" type="qcurve"/>
      <point x="416" y="472"/>
      <point x="416" y="449" type="qcurve"/>
      <point x="416" y="401"/>
      <point x="376" y="299"/>
      <point x="313" y="198"/>
      <point x="233" y="102"/>
      <point x="194" y="60" type="qcurve"/>
      <point x="450" y="96" type="line"/>
      <point x="413" y="3" type="line"/>
      <point x="406" y="3"/>
      <point x="388" y="3"/>
      <point x="368" y="3"/>
      <point x="351" y="4"/>
      <point x="345" y="4" type="qcurve"/>
      <point x="337" y="4"/>
      <point x="311" y="5"/>
      <point x="303" y="5" type="qcurve"/>
      <point x="291" y="5"/>
      <point x="268" y="5"/>
      <point x="247" y="4"/>
      <point x="228" y="3"/>
      <point x="219" y="3" type="qcurve"/>
      <point x="163" y="3" type="line"/>
      <point x="109" y="3"/>
      <point x="51" y="10"/>
      <point x="51" y="21" type="qcurve"/>
      <point x="114" y="89" type="line"/>
      <point x="114" y="92"/>
      <point x="136" y="121"/>
      <point x="148" y="138" type="qcurve"/>
      <point x="163" y="159"/>
      <point x="201" y="213"/>
      <point x="238" y="276"/>
      <point x="272" y="349"/>
      <point x="284" y="388" type="qcurve"/>
      <point x="289" y="404"/>
      <point x="296" y="439"/>
      <point x="296" y="459" type="qcurve" name="hr01"/>
      <point x="296" y="498"/>
      <point x="279" y="557"/>
      <point x="263" y="561" type="qcurve" name="hr02"/>
      <point x="255" y="563" type="line"/>
      <point x="244" y="561"/>
      <point x="221" y="546"/>
      <point x="202" y="526"/>
      <point x="188" y="505"/>
      <point x="187" y="496" type="qcurve"/>
      <point x="186" y="493"/>
      <point x="186" y="487"/>
      <point x="186" y="486" type="qcurve"/>
      <point x="172" y="492"/>
      <point x="144" y="511"/>
      <point x="119" y="531"/>
      <point x="102" y="548"/>
      <point x="100" y="552" type="qcurve"/>
      <point x="100" y="556"/>
      <point x="124" y="588"/>
      <point x="159" y="622"/>
      <point x="198" y="649"/>
      <point x="213" y="649" type="qcurve"/>
    </contour>
  </outline>
</glyph>
<glyph name="three" format="1">
  <advance width="481"/>
  <unicode hex="0033"/>
  <outline>
    <contour>
      <point x="84" y="549" type="qcurve"/>
      <point x="84" y="552"/>
      <point x="104" y="580"/>
      <point x="136" y="613"/>
      <point x="173" y="643"/>
      <point x="190" y="649" type="qcurve"/>
      <point x="202" y="649" type="line"/>
      <point x="219" y="649"/>
      <point x="274" y="614"/>
      <point x="328" y="566"/>
      <point x="372" y="518"/>
      <point x="378" y="505" type="qcurve"/>
      <point x="393" y="469"/>
      <point x="393" y="433" type="qcurve"/>
      <point x="393" y="399"/>
      <point x="363" y="334"/>
      <point x="331" y="312" type="qcurve"/>
      <point x="382" y="276"/>
      <point x="447" y="203"/>
      <point x="447" y="168" type="qcurve"/>
      <point x="447" y="138"/>
      <point x="410" y="77"/>
      <point x="352" y="28"/>
      <point x="281" y="-3"/>
      <point x="214" y="-3"/>
      <point x="144" y="1"/>
      <point x="85" y="18"/>
      <point x="48" y="55"/>
      <point x="48" y="88" type="qcurve"/>
      <point x="48" y="95"/>
      <point x="50" y="113"/>
      <point x="54" y="125" type="qcurve"/>
      <point x="57" y="125"/>
      <point x="85" y="124"/>
      <point x="121" y="120"/>
      <point x="156" y="114"/>
      <point x="166" y="110" type="qcurve" name="hr01"/>
      <point x="166" y="98"/>
      <point x="169" y="72"/>
      <point x="175" y="52"/>
      <point x="187" y="39"/>
      <point x="196" y="39" type="qcurve"/>
      <point x="228" y="39"/>
      <point x="272" y="79"/>
      <point x="300" y="132"/>
      <point x="313" y="183"/>
      <point x="313" y="194" type="qcurve"/>
      <point x="313" y="241"/>
      <point x="285" y="284"/>
      <point x="264" y="296" type="qcurve"/>
      <point x="244" y="297"/>
      <point x="183" y="308"/>
      <point x="152" y="320" type="qcurve"/>
      <point x="162" y="355" type="line"/>
      <point x="185" y="344"/>
      <point x="208" y="336"/>
      <point x="210" y="336" type="qcurve"/>
      <point x="239" y="336"/>
      <point x="275" y="406"/>
      <point x="275" y="463" type="qcurve"/>
      <point x="275" y="502"/>
      <point x="263" y="532" type="qcurve" name="hr02"/>
      <point x="257" y="549"/>
      <point x="247" y="563"/>
      <point x="243" y="563" type="qcurve"/>
      <point x="223" y="563"/>
      <point x="178" y="517"/>
      <point x="164" y="489" type="qcurve"/>
      <point x="152" y="495"/>
      <point x="124" y="514"/>
      <point x="101" y="533"/>
      <point x="85" y="548"/>
    </contour>
  </outline>
</glyph>
<glyph name="four" format="1">
  <advance width="516"/>
  <unicode hex="0034"/>
  <outline>
    <contour>
      <point x="465" y="259" type="line"/>
      <point x="414" y="259" type="line"/>
      <point x="414" y="245"/>
      <point x="413" y="219"/>
      <point x="413" y="205" type="curve" smooth="yes"/>
      <point x="413" y="152" type="line" smooth="yes"/>
      <point x="413" y="101"/>
      <point x="414" y="41"/>
      <point x="415" y="0" type="curve"/>
      <point x="303" y="0" type="line"/>
      <point x="307" y="25"/>
      <point x="312" y="178"/>
      <point x="314" y="259" type="curve"/>
      <point x="302" y="259" type="line" smooth="yes"/>
      <point x="270" y="258"/>
      <point x="216" y="258"/>
      <point x="188" y="258" type="curve" smooth="yes"/>
      <point x="98" y="258"/>
      <point x="29" y="259"/>
      <point x="29" y="264" type="curve"/>
      <point x="79" y="310" type="line"/>
      <point x="123" y="350"/>
      <point x="210" y="485"/>
      <point x="229" y="539" type="curve"/>
      <point x="262" y="580"/>
      <point x="282" y="602"/>
      <point x="331" y="636" type="curve"/>
      <point x="340" y="643"/>
      <point x="351" y="652"/>
      <point x="362" y="659" type="curve"/>
      <point x="407" y="659"/>
      <point x="414" y="570"/>
      <point x="414" y="411" type="curve" smooth="yes"/>
      <point x="414" y="319" type="line"/>
      <point x="442" y="321"/>
      <point x="470" y="326"/>
      <point x="497" y="337" type="curve"/>
    </contour>
    <contour>
      <point x="315" y="314" type="curve"/>
      <point x="314" y="356"/>
      <point x="315" y="432"/>
      <point x="308" y="516" type="curve"/>
      <point x="284" y="442"/>
      <point x="232" y="377"/>
      <point x="194" y="305" type="curve"/>
      <point x="226" y="306"/>
      <point x="285" y="310"/>
    </contour>
  </outline>
</glyph>
<glyph name="five" format="1">
  <advance width="477"/>
  <unicode hex="0035"/>
  <outline>
    <contour>
      <point x="410" y="562" type="line"/>
      <point x="324" y="562" type="line" smooth="yes"/>
      <point x="300" y="562"/>
      <point x="276" y="561"/>
      <point x="253" y="561" type="curve" smooth="yes"/>
      <point x="192" y="561" type="line" smooth="yes"/>
      <point x="175" y="561"/>
      <point x="163" y="561"/>
      <point x="153" y="562" type="curve"/>
      <point x="154" y="541"/>
      <point x="154" y="525"/>
      <point x="154" y="510" type="curve" smooth="yes"/>
      <point x="154" y="488"/>
      <point x="153" y="471"/>
      <point x="151" y="441" type="curve" smooth="yes"/>
      <point x="151" y="431"/>
      <point x="149" y="415"/>
      <point x="149" y="405" type="curve"/>
      <point x="269" y="401"/>
      <point x="393" y="280"/>
      <point x="393" y="184" type="curve" smooth="yes"/>
      <point x="393" y="95"/>
      <point x="284" y="-3"/>
      <point x="193" y="-3" type="curve" smooth="yes"/>
      <point x="106" y="-3"/>
      <point x="-5" y="0"/>
      <point x="-5" y="97" type="curve" smooth="yes"/>
      <point x="-5" y="107"/>
      <point x="-4" y="118"/>
      <point x="1" y="137" type="curve"/>
      <point x="9" y="137"/>
      <point x="87" y="134"/>
      <point x="113" y="120" type="curve"/>
      <point x="113" y="85"/>
      <point x="119" y="43"/>
      <point x="142" y="43" type="curve" smooth="yes"/>
      <point x="228" y="43"/>
      <point x="260" y="180"/>
      <point x="260" y="212" type="curve" smooth="yes"/>
      <point x="260" y="308"/>
      <point x="174" y="362"/>
      <point x="101" y="362" type="curve"/>
      <point x="97" y="362" type="line"/>
      <point x="45" y="360" type="line"/>
      <point x="45" y="362"/>
      <point x="46" y="365"/>
      <point x="46" y="367" type="curve" smooth="yes"/>
      <point x="55" y="433"/>
      <point x="63" y="496"/>
      <point x="63" y="551" type="curve" smooth="yes"/>
      <point x="63" y="558"/>
      <point x="63" y="566"/>
      <point x="62" y="573" type="curve"/>
      <point x="62" y="574"/>
      <point x="63" y="575"/>
      <point x="63" y="576" type="curve" smooth="yes"/>
      <point x="63" y="578"/>
      <point x="61" y="579"/>
      <point x="58" y="579" type="curve"/>
      <point x="121" y="650" type="line"/>
      <point x="145" y="636"/>
      <point x="178" y="633"/>
      <point x="198" y="633" type="curve" smooth="yes"/>
      <point x="206" y="633" type="line" smooth="yes"/>
      <point x="250" y="633"/>
      <point x="421" y="649"/>
      <point x="444" y="653" type="curve"/>
    </contour>
  </outline>
</glyph>
<glyph name="six" format="1">
  <advance width="481"/>
  <unicode hex="0036"/>
  <outline>
    <contour>
      <point x="258" y="-6" type="qcurve" name="hr00"/>
      <point x="252" y="-7"/>
      <point x="240" y="-7"/>
      <point x="234" y="-7" type="qcurve"/>
      <point x="178" y="-7"/>
      <point x="110" y="27"/>
      <point x="71" y="83"/>
      <point x="54" y="155"/>
      <point x="49" y="192" type="qcurve"/>
      <point x="49" y="193"/>
      <point x="48" y="197"/>
      <point x="48" y="202" type="qcurve"/>
      <point x="48" y="221"/>
      <point x="54" y="300"/>
      <point x="70" y="397"/>
      <point x="97" y="500"/>
      <point x="140" y="588"/>
      <point x="200" y="647"/>
      <point x="241" y="652" type="qcurve"/>
      <point x="261" y="652"/>
      <point x="311" y="639"/>
      <point x="358" y="620"/>
      <point x="395" y="600"/>
      <point x="402" y="593" type="qcurve"/>
      <point x="388" y="561" type="line"/>
      <point x="359" y="578"/>
      <point x="321" y="589"/>
      <point x="307" y="589" type="qcurve"/>
      <point x="299" y="589"/>
      <point x="284" y="589"/>
      <point x="276" y="588" type="qcurve"/>
      <point x="250" y="586"/>
      <point x="212" y="558"/>
      <point x="184" y="501"/>
      <point x="165" y="413"/>
      <point x="158" y="351" type="qcurve"/>
      <point x="173" y="365"/>
      <point x="214" y="387"/>
      <point x="238" y="389" type="qcurve"/>
      <point x="243" y="389"/>
      <point x="254" y="390"/>
      <point x="259" y="390" type="qcurve"/>
      <point x="314" y="390"/>
      <point x="382" y="355"/>
      <point x="423" y="298"/>
      <point x="440" y="226"/>
      <point x="444" y="190" type="qcurve"/>
      <point x="443" y="170"/>
      <point x="402" y="105"/>
      <point x="344" y="43"/>
      <point x="280" y="-4"/>
    </contour>
    <contour>
      <point x="325" y="93" type="qcurve"/>
      <point x="331" y="114"/>
      <point x="331" y="142" type="qcurve"/>
      <point x="331" y="148"/>
      <point x="331" y="161"/>
      <point x="330" y="168" type="qcurve"/>
      <point x="327" y="196"/>
      <point x="312" y="249"/>
      <point x="286" y="291"/>
      <point x="251" y="316"/>
      <point x="229" y="316" type="qcurve"/>
      <point x="224" y="316" type="line"/>
      <point x="213" y="314"/>
      <point x="187" y="304"/>
      <point x="173" y="292" type="qcurve"/>
      <point x="169" y="284"/>
      <point x="164" y="264"/>
      <point x="162" y="243"/>
      <point x="162" y="224"/>
      <point x="162" y="218" type="qcurve"/>
      <point x="162" y="212" type="line"/>
      <point x="165" y="185"/>
      <point x="186" y="135"/>
      <point x="216" y="97"/>
      <point x="255" y="74"/>
      <point x="278" y="74" type="qcurve"/>
      <point x="282" y="74" type="line"/>
      <point x="292" y="75"/>
      <point x="315" y="83"/>
    </contour>
  </outline>
</glyph>
<glyph name="seven" format="1">
  <advance width="415"/>
  <unicode hex="0037"/>
  <outline>
    <contour>
      <point x="79" y="1" type="line"/>
      <point x="91" y="37"/>
      <point x="121" y="112"/>
      <point x="156" y="199" type="curve" smooth="yes"/>
      <point x="203" y="316"/>
      <point x="268" y="480"/>
      <point x="294" y="558" type="curve"/>
      <point x="143" y="558" type="line" smooth="yes"/>
      <point x="116" y="558"/>
      <point x="70" y="557"/>
      <point x="43" y="556" type="curve"/>
      <point x="4" y="652" type="line"/>
      <point x="29" y="647"/>
      <point x="204" y="631"/>
      <point x="249" y="631" type="curve" smooth="yes"/>
      <point x="257" y="631" type="line" smooth="yes"/>
      <point x="279" y="631"/>
      <point x="303" y="631"/>
      <point x="331" y="644" type="curve"/>
      <point x="400" y="570" type="line" smooth="yes"/>
      <point x="399" y="570"/>
      <point x="388" y="568"/>
      <point x="386" y="564" type="curve"/>
      <point x="377" y="518"/>
      <point x="342" y="418"/>
      <point x="301" y="298" type="curve"/>
      <point x="292" y="272" type="line"/>
      <point x="287" y="259"/>
      <point x="283" y="245"/>
      <point x="278" y="231" type="curve" smooth="yes"/>
      <point x="252" y="156"/>
      <point x="224" y="77"/>
      <point x="199" y="1" type="curve"/>
    </contour>
  </outline>
</glyph>
<glyph name="eight" format="1">
  <advance width="481"/>
  <unicode hex="0038"/>
  <outline>
    <contour>
      <point x="222" y="-3" type="qcurve"/>
      <point x="159" y="-3"/>
      <point x="87" y="31"/>
      <point x="51" y="87"/>
      <point x="42" y="158"/>
      <point x="42" y="194" type="qcurve"/>
      <point x="42" y="203"/>
      <point x="60" y="231"/>
      <point x="91" y="264"/>
      <point x="132" y="299"/>
      <point x="156" y="315" type="qcurve"/>
      <point x="116" y="324"/>
      <point x="71" y="359"/>
      <point x="48" y="407"/>
      <point x="42" y="463"/>
      <point x="42" y="492" type="qcurve"/>
      <point x="42" y="503"/>
      <point x="63" y="535"/>
      <point x="98" y="570"/>
      <point x="141" y="604"/>
      <point x="185" y="632"/>
      <point x="225" y="649"/>
      <point x="240" y="649" type="qcurve"/>
      <point x="289" y="649"/>
      <point x="354" y="626"/>
      <point x="392" y="588"/>
      <point x="407" y="537"/>
      <point x="407" y="510" type="qcurve"/>
      <point x="407" y="501"/>
      <point x="406" y="478"/>
      <point x="405" y="469" type="qcurve"/>
      <point x="404" y="461"/>
      <point x="388" y="436"/>
      <point x="361" y="407"/>
      <point x="325" y="376"/>
      <point x="303" y="361" type="qcurve"/>
      <point x="342" y="355"/>
      <point x="394" y="326"/>
      <point x="425" y="286"/>
      <point x="438" y="238"/>
      <point x="438" y="213" type="qcurve"/>
      <point x="438" y="205"/>
      <point x="437" y="184"/>
      <point x="435" y="174" type="qcurve"/>
      <point x="435" y="173"/>
      <point x="434" y="170"/>
      <point x="434" y="169" type="qcurve"/>
      <point x="434" y="157"/>
      <point x="411" y="122"/>
      <point x="374" y="84"/>
      <point x="328" y="46"/>
      <point x="281" y="16"/>
      <point x="238" y="-3"/>
    </contour>
    <contour>
      <point x="305" y="82" type="qcurve"/>
      <point x="314" y="97"/>
      <point x="323" y="138"/>
      <point x="323" y="161" type="qcurve" name="hr01"/>
      <point x="323" y="187"/>
      <point x="311" y="237"/>
      <point x="287" y="276"/>
      <point x="253" y="300"/>
      <point x="232" y="300" type="qcurve"/>
      <point x="222" y="300"/>
      <point x="196" y="291"/>
      <point x="184" y="282" type="qcurve"/>
      <point x="158" y="248"/>
      <point x="158" y="200" type="qcurve"/>
      <point x="158" y="175"/>
      <point x="175" y="127"/>
      <point x="204" y="90"/>
      <point x="243" y="68"/>
      <point x="266" y="68" type="qcurve"/>
      <point x="275" y="68"/>
      <point x="297" y="75"/>
    </contour>
    <contour>
      <point x="284" y="391" type="qcurve"/>
      <point x="293" y="405"/>
      <point x="302" y="444"/>
      <point x="302" y="465" type="qcurve"/>
      <point x="302" y="489"/>
      <point x="291" y="535"/>
      <point x="269" y="570"/>
      <point x="238" y="592"/>
      <point x="219" y="592" type="qcurve"/>
      <point x="211" y="592"/>
      <point x="188" y="585"/>
      <point x="177" y="577" type="qcurve" name="hr02"/>
      <point x="154" y="548"/>
      <point x="154" y="501" type="qcurve"/>
      <point x="154" y="477"/>
      <point x="169" y="434"/>
      <point x="195" y="400"/>
      <point x="230" y="380"/>
      <point x="250" y="380" type="qcurve"/>
      <point x="258" y="380"/>
      <point x="278" y="386"/>
    </contour>
  </outline>
</glyph>
<glyph name="nine" format="1">
  <advance width="488"/>
  <unicode hex="0039"/>
  <outline>
    <contour>
      <point x="234" y="652" type="curve"/>
      <point x="242" y="653"/>
      <point x="250" y="653"/>
      <point x="258" y="653" type="curve" smooth="yes"/>
      <point x="406" y="653"/>
      <point x="430" y="553"/>
      <point x="443" y="454" type="curve"/>
      <point x="443" y="449" type="line" smooth="yes"/>
      <point x="443" y="447"/>
      <point x="444" y="445"/>
      <point x="444" y="444" type="curve" smooth="yes"/>
      <point x="443" y="367"/>
      <point x="414" y="13"/>
      <point x="251" y="-6" type="curve"/>
      <point x="198" y="-6"/>
      <point x="109" y="34"/>
      <point x="90" y="53" type="curve"/>
      <point x="104" y="85" type="line"/>
      <point x="142" y="63"/>
      <point x="166" y="57"/>
      <point x="185" y="57" type="curve" smooth="yes"/>
      <point x="195" y="57"/>
      <point x="205" y="57"/>
      <point x="215" y="58" type="curve" smooth="yes"/>
      <point x="270" y="61"/>
      <point x="297" y="125"/>
      <point x="315" y="280" type="curve"/>
      <point x="298" y="268"/>
      <point x="277" y="258"/>
      <point x="254" y="257" type="curve"/>
      <point x="247" y="257"/>
      <point x="240" y="256"/>
      <point x="233" y="256" type="curve" smooth="yes"/>
      <point x="87" y="256"/>
      <point x="58" y="359"/>
      <point x="48" y="456" type="curve"/>
      <point x="50" y="509"/>
      <point x="174" y="647"/>
    </contour>
    <contour>
      <point x="167" y="553" type="curve"/>
      <point x="163" y="539"/>
      <point x="161" y="523"/>
      <point x="161" y="504" type="curve" smooth="yes"/>
      <point x="161" y="496"/>
      <point x="161" y="487"/>
      <point x="162" y="478" type="curve" smooth="yes"/>
      <point x="169" y="403"/>
      <point x="203" y="330"/>
      <point x="263" y="330" type="curve"/>
      <point x="267" y="330" type="line"/>
      <point x="281" y="332"/>
      <point x="299" y="337"/>
      <point x="319" y="354" type="curve"/>
      <point x="330" y="374"/>
      <point x="330" y="413"/>
      <point x="330" y="428" type="curve" smooth="yes"/>
      <point x="330" y="434" type="line"/>
      <point x="321" y="506"/>
      <point x="274" y="572"/>
      <point x="214" y="572" type="curve"/>
      <point x="209" y="572" type="line"/>
      <point x="196" y="571"/>
      <point x="179" y="565"/>
    </contour>
  </outline>
</glyph>
<glyph name="colon" format="1">
  <advance width="208"/>
  <unicode hex="003A"/>
  <outline>
    <contour>
      <point x="107" y="116" type="qcurve" name="hr00"/>
      <point x="128" y="116"/>
      <point x="156" y="104"/>
      <point x="173" y="87"/>
      <point x="179" y="66"/>
      <point x="179" y="57" type="qcurve"/>
      <point x="179" y="34"/>
      <point x="136" y="-2"/>
      <point x="104" y="-2" type="qcurve"/>
      <point x="69" y="-2"/>
      <point x="29" y="34"/>
      <point x="29" y="57" type="qcurve"/>
      <point x="29" y="60"/>
      <point x="30" y="67"/>
      <point x="32" y="73" type="qcurve"/>
      <point x="36" y="93"/>
      <point x="81" y="116"/>
    </contour>
    <contour>
      <point x="107" y="376" type="qcurve"/>
      <point x="128" y="376"/>
      <point x="156" y="365"/>
      <point x="173" y="347"/>
      <point x="179" y="325"/>
      <point x="179" y="315" type="qcurve"/>
      <point x="179" y="292"/>
      <point x="136" y="256"/>
      <point x="104" y="256" type="qcurve"/>
      <point x="69" y="256"/>
      <point x="29" y="294"/>
      <point x="29" y="316" type="qcurve"/>
      <point x="29" y="340"/>
      <point x="75" y="376"/>
    </contour>
  </outline>
</glyph>
<glyph name="semicolon" format="1">
  <advance width="228"/>
  <unicode hex="003B"/>
  <outline>
    <contour>
      <point x="199" y="45" type="qcurve"/>
      <point x="199" y="24"/>
      <point x="175" y="-29"/>
      <point x="142" y="-77"/>
      <point x="110" y="-115"/>
      <point x="102" y="-122" type="qcurve"/>
      <point x="91" y="-117"/>
      <point x="64" y="-104"/>
      <point x="56" y="-98" type="qcurve"/>
      <point x="66" y="-91"/>
      <point x="93" y="-36"/>
      <point x="104" y="-2" type="qcurve"/>
      <point x="73" y="0"/>
      <point x="38" y="35"/>
      <point x="38" y="57" type="qcurve"/>
      <point x="38" y="60"/>
      <point x="39" y="67"/>
      <point x="41" y="73" type="qcurve"/>
      <point x="44" y="91"/>
      <point x="83" y="113"/>
      <point x="107" y="116" type="qcurve" name="hr01"/>
      <point x="116" y="116" type="line"/>
      <point x="132" y="116"/>
      <point x="162" y="105"/>
      <point x="185" y="86"/>
      <point x="199" y="60"/>
    </contour>
    <contour>
      <point x="116" y="376" type="qcurve"/>
      <point x="137" y="376"/>
      <point x="165" y="365"/>
      <point x="182" y="347"/>
      <point x="188" y="325"/>
      <point x="188" y="315" type="qcurve"/>
      <point x="188" y="292"/>
      <point x="145" y="256"/>
      <point x="113" y="256" type="qcurve"/>
      <point x="78" y="256"/>
      <point x="38" y="294"/>
      <point x="38" y="316" type="qcurve"/>
      <point x="38" y="340"/>
      <point x="84" y="376"/>
    </contour>
  </outline>
</glyph>
<glyph name="less" format="1">
  <advance width="525"/>
  <unicode hex="003C"/>
  <outline>
    <contour>
      <point x="31" y="237" type="line" name="hr00"/>
      <point x="245" y="323" type="line"/>
      <point x="320" y="354"/>
      <point x="415" y="388"/>
      <point x="444" y="388" type="qcurve"/>
      <point x="477" y="388"/>
      <point x="484" y="376" type="qcurve"/>
      <point x="409" y="306" type="line"/>
      <point x="401" y="306"/>
      <point x="379" y="307"/>
      <point x="379" y="309" type="qcurve"/>
      <point x="380" y="309"/>
      <point x="367" y="303"/>
      <point x="362" y="301" type="qcurve"/>
      <point x="122" y="202" type="line"/>
      <point x="155" y="184"/>
      <point x="225" y="150"/>
      <point x="288" y="121"/>
      <point x="339" y="99"/>
      <point x="353" y="93" type="qcurve"/>
      <point x="379" y="82" type="line"/>
      <point x="381" y="82"/>
      <point x="383" y="83" type="qcurve"/>
      <point x="382" y="84"/>
      <point x="398" y="84"/>
      <point x="409" y="84" type="qcurve"/>
      <point x="483" y="13" type="line"/>
      <point x="475" y="2"/>
      <point x="444" y="2" type="qcurve"/>
      <point x="415" y="2"/>
      <point x="320" y="36"/>
      <point x="244" y="67" type="qcurve"/>
      <point x="180" y="93" type="line"/>
      <point x="170" y="97"/>
      <point x="152" y="104"/>
      <point x="131" y="112"/>
      <point x="103" y="124"/>
      <point x="84" y="132" type="qcurve"/>
      <point x="65" y="138"/>
      <point x="44" y="145"/>
      <point x="33" y="149"/>
      <point x="31" y="152"/>
      <point x="31" y="155" type="qcurve"/>
    </contour>
  </outline>
</glyph>
<glyph name="equal" format="1">
  <advance width="547"/>
  <unicode hex="003D"/>
  <outline>
    <contour>
      <point x="45" y="162" type="line"/>
      <point x="143" y="162" type="line"/>
      <point x="170" y="162"/>
      <point x="224" y="162"/>
      <point x="252" y="163" type="qcurve"/>
      <point x="496" y="163" type="line"/>
      <point x="462" y="101" type="line"/>
      <point x="417" y="102"/>
      <point x="331" y="103"/>
      <point x="288" y="103" type="qcurve" name="hr01"/>
      <point x="222" y="103"/>
      <point x="93" y="99"/>
      <point x="28" y="94" type="qcurve"/>
    </contour>
    <contour>
      <point x="71" y="334" type="line"/>
      <point x="222" y="334" type="line" name="hr02"/>
      <point x="236" y="334"/>
      <point x="263" y="335"/>
      <point x="277" y="335" type="qcurve"/>
      <point x="521" y="335" type="line"/>
      <point x="487" y="273" type="line"/>
      <point x="451" y="273"/>
      <point x="396" y="274"/>
      <point x="351" y="275"/>
      <point x="312" y="275"/>
      <point x="294" y="275" type="qcurve" name="hr03"/>
      <point x="232" y="275"/>
      <point x="112" y="271"/>
      <point x="52" y="266" type="qcurve"/>
    </contour>
  </outline>
</glyph>
<glyph name="greater" format="1">
  <advance width="521"/>
  <unicode hex="003E"/>
  <outline>
    <contour>
      <point x="490" y="152" type="line"/>
      <point x="437" y="132" type="line"/>
      <point x="384" y="112"/>
      <point x="367" y="103"/>
      <point x="341" y="93" type="curve" smooth="yes"/>
      <point x="276" y="67" type="line"/>
      <point x="176" y="26"/>
      <point x="116" y="2"/>
      <point x="77" y="2" type="curve" smooth="yes"/>
      <point x="56" y="2"/>
      <point x="41" y="6"/>
      <point x="37" y="13" type="curve"/>
      <point x="113" y="84" type="line"/>
      <point x="126" y="84"/>
      <point x="140" y="84"/>
      <point x="142" y="83" type="curve"/>
      <point x="167" y="93" type="line"/>
      <point x="203" y="107"/>
      <point x="311" y="156"/>
      <point x="396" y="195" type="curve"/>
      <point x="311" y="234"/>
      <point x="202" y="282"/>
      <point x="166" y="298" type="curve" smooth="yes"/>
      <point x="141" y="309" type="line"/>
      <point x="141" y="306"/>
      <point x="123" y="306"/>
      <point x="113" y="306" type="curve"/>
      <point x="37" y="376" type="line"/>
      <point x="41" y="385"/>
      <point x="56" y="388"/>
      <point x="77" y="388" type="curve" smooth="yes"/>
      <point x="116" y="388"/>
      <point x="176" y="364"/>
      <point x="277" y="324" type="curve"/>
      <point x="325" y="305"/>
      <point x="342" y="298"/>
      <point x="437" y="258" type="curve"/>
      <point x="450" y="252"/>
      <point x="463" y="244"/>
      <point x="489" y="244" type="curve"/>
    </contour>
  </outline>
</glyph>
<glyph name="question" format="1">
  <advance width="434"/>
  <unicode hex="003F"/>
  <outline>
    <contour>
      <point x="97" y="184" type="line"/>
      <point x="95" y="196"/>
      <point x="94" y="228"/>
      <point x="91" y="262"/>
      <point x="86" y="298"/>
      <point x="81" y="314" type="qcurve"/>
      <point x="140" y="327" type="line"/>
      <point x="152" y="335"/>
      <point x="173" y="365"/>
      <point x="190" y="402"/>
      <point x="199" y="446"/>
      <point x="199" y="467" type="qcurve"/>
      <point x="199" y="474" type="line"/>
      <point x="199" y="487"/>
      <point x="198" y="535"/>
      <point x="191" y="581"/>
      <point x="178" y="616"/>
      <point x="166" y="616" type="qcurve"/>
      <point x="157" y="616"/>
      <point x="147" y="605"/>
      <point x="142" y="589"/>
      <point x="141" y="570"/>
      <point x="141" y="562" type="qcurve"/>
      <point x="141" y="550" type="line" name="hr01"/>
      <point x="133" y="545"/>
      <point x="97" y="539"/>
      <point x="59" y="536"/>
      <point x="28" y="536"/>
      <point x="27" y="536" type="qcurve"/>
      <point x="23" y="555"/>
      <point x="23" y="572" type="qcurve"/>
      <point x="23" y="604"/>
      <point x="41" y="639"/>
      <point x="73" y="656"/>
      <point x="118" y="659"/>
      <point x="145" y="659" type="qcurve"/>
      <point x="171" y="659"/>
      <point x="236" y="630"/>
      <point x="294" y="583"/>
      <point x="334" y="524"/>
      <point x="334" y="495" type="qcurve"/>
      <point x="334" y="470"/>
      <point x="301" y="411"/>
      <point x="253" y="356"/>
      <point x="198" y="310"/>
      <point x="175" y="297" type="qcurve"/>
      <point x="184" y="272"/>
      <point x="196" y="235"/>
      <point x="204" y="203"/>
      <point x="210" y="172"/>
      <point x="213" y="154" type="qcurve"/>
    </contour>
    <contour>
      <point x="153" y="116" type="qcurve"/>
      <point x="174" y="116"/>
      <point x="202" y="104"/>
      <point x="218" y="87"/>
      <point x="224" y="66"/>
      <point x="224" y="57" type="qcurve"/>
      <point x="224" y="34"/>
      <point x="182" y="-2"/>
      <point x="149" y="-2" type="qcurve"/>
      <point x="115" y="-2"/>
      <point x="74" y="34"/>
      <point x="74" y="57" type="qcurve"/>
      <point x="74" y="83"/>
      <point x="122" y="116"/>
    </contour>
  </outline>
</glyph>
<glyph name="at" format="1">
  <advance width="753"/>
  <unicode hex="0040"/>
  <outline>
    <contour>
      <point x="518" y="-60" type="line" name="hr00"/>
      <point x="516" y="-65"/>
      <point x="504" y="-78"/>
      <point x="490" y="-89"/>
      <point x="477" y="-97"/>
      <point x="473" y="-98" type="qcurve"/>
      <point x="437" y="-107"/>
      <point x="400" y="-107" type="qcurve"/>
      <point x="329" y="-107"/>
      <point x="213" y="-50"/>
      <point x="130" y="41"/>
      <point x="85" y="153"/>
      <point x="85" y="209" type="qcurve"/>
      <point x="85" y="239"/>
      <point x="96" y="297"/>
      <point x="105" y="321" type="qcurve"/>
      <point x="133" y="393"/>
      <point x="229" y="492"/>
      <point x="336" y="552"/>
      <point x="441" y="579"/>
      <point x="478" y="579" type="qcurve"/>
      <point x="548" y="577"/>
      <point x="642" y="527"/>
      <point x="699" y="449"/>
      <point x="724" y="353"/>
      <point x="724" y="307" type="qcurve"/>
      <point x="724" y="277"/>
      <point x="718" y="219"/>
      <point x="709" y="195" type="qcurve"/>
      <point x="697" y="164"/>
      <point x="656" y="107"/>
      <point x="603" y="57"/>
      <point x="540" y="13"/>
      <point x="506" y="-5" type="qcurve"/>
      <point x="444" y="53" type="line"/>
      <point x="427" y="35"/>
      <point x="390" y="9"/>
      <point x="376" y="9" type="qcurve"/>
      <point x="346" y="9"/>
      <point x="302" y="43"/>
      <point x="274" y="94"/>
      <point x="260" y="155"/>
      <point x="260" y="183" type="qcurve"/>
      <point x="260" y="197"/>
      <point x="262" y="224"/>
      <point x="267" y="236" type="qcurve"/>
      <point x="272" y="250"/>
      <point x="307" y="301"/>
      <point x="350" y="350"/>
      <point x="395" y="386"/>
      <point x="410" y="386" type="qcurve"/>
      <point x="422" y="386"/>
      <point x="423" y="385" type="qcurve"/>
      <point x="436" y="380"/>
      <point x="469" y="358"/>
      <point x="500" y="330"/>
      <point x="524" y="301"/>
      <point x="527" y="290" type="qcurve"/>
      <point x="529" y="284"/>
      <point x="530" y="278"/>
      <point x="530" y="274" type="qcurve"/>
      <point x="530" y="265"/>
      <point x="529" y="244"/>
      <point x="528" y="233" type="qcurve"/>
      <point x="527" y="227"/>
      <point x="526" y="216"/>
      <point x="526" y="211" type="qcurve"/>
      <point x="526" y="208"/>
      <point x="525" y="202"/>
      <point x="525" y="200" type="qcurve"/>
      <point x="525" y="190" type="line"/>
      <point x="525" y="158"/>
      <point x="532" y="116"/>
      <point x="544" y="90"/>
      <point x="558" y="78"/>
      <point x="565" y="75" type="qcurve"/>
      <point x="587" y="99"/>
      <point x="617" y="193"/>
      <point x="617" y="274" type="qcurve"/>
      <point x="617" y="278" type="line"/>
      <point x="616" y="344"/>
      <point x="580" y="429"/>
      <point x="524" y="479"/>
      <point x="456" y="499"/>
      <point x="423" y="499" type="qcurve"/>
      <point x="317" y="499"/>
      <point x="205" y="384"/>
      <point x="197" y="279" type="qcurve"/>
      <point x="196" y="272"/>
      <point x="196" y="262"/>
      <point x="196" y="255" type="qcurve"/>
      <point x="196" y="181"/>
      <point x="246" y="61"/>
      <point x="321" y="-25"/>
      <point x="410" y="-71"/>
      <point x="448" y="-71" type="qcurve"/>
      <point x="454" y="-71"/>
      <point x="467" y="-63"/>
      <point x="475" y="-42" type="qcurve"/>
    </contour>
    <contour>
      <point x="421" y="95" type="qcurve"/>
      <point x="430" y="120"/>
      <point x="430" y="163" type="qcurve"/>
      <point x="430" y="187"/>
      <point x="424" y="236"/>
      <point x="412" y="275"/>
      <point x="395" y="300"/>
      <point x="384" y="300" type="qcurve"/>
      <point x="382" y="300"/>
      <point x="372" y="295"/>
      <point x="370" y="290" type="qcurve"/>
      <point x="362" y="276"/>
      <point x="356" y="240"/>
      <point x="356" y="221" type="qcurve"/>
      <point x="356" y="196"/>
      <point x="365" y="148"/>
      <point x="381" y="111"/>
      <point x="403" y="88"/>
      <point x="415" y="88" type="qcurve"/>
      <point x="416" y="88"/>
      <point x="421" y="92"/>
    </contour>
  </outline>
</glyph>
<glyph name="B" format="1">
  <advance width="514"/>
  <unicode hex="0042"/>
  <outline>
    <contour>
      <point x="13" y="650" type="line"/>
      <point x="20" y="650"/>
      <point x="41" y="649"/>
      <point x="63" y="648"/>
      <point x="85" y="648"/>
      <point x="93" y="648" type="qcurve"/>
      <point x="148" y="648"/>
      <point x="258" y="650"/>
      <point x="296" y="650" type="qcurve"/>
      <point x="305" y="650" type="line"/>
      <point x="353" y="646"/>
      <point x="415" y="615"/>
      <point x="453" y="571"/>
      <point x="468" y="519"/>
      <point x="468" y="494" type="qcurve"/>
      <point x="468" y="473"/>
      <point x="460" y="439"/>
      <point x="441" y="407"/>
      <point x="412" y="375"/>
      <point x="391" y="357" type="qcurve"/>
      <point x="384" y="357" type="line"/>
      <point x="417" y="347"/>
      <point x="462" y="315"/>
      <point x="489" y="277"/>
      <point x="501" y="236"/>
      <point x="501" y="216" type="qcurve"/>
      <point x="501" y="176"/>
      <point x="461" y="99"/>
      <point x="395" y="38"/>
      <point x="313" y="1"/>
      <point x="271" y="1" type="qcurve"/>
      <point x="135" y="1" type="line" name="hr01"/>
      <point x="126" y="1"/>
      <point x="102" y="1"/>
      <point x="76" y="0"/>
      <point x="50" y="0"/>
      <point x="41" y="0" type="qcurve"/>
      <point x="42" y="17"/>
      <point x="45" y="93"/>
      <point x="47" y="188"/>
      <point x="49" y="292"/>
      <point x="51" y="383"/>
      <point x="52" y="450"/>
      <point x="52" y="462" type="qcurve"/>
      <point x="52" y="494"/>
      <point x="50" y="553"/>
      <point x="44" y="562" type="qcurve"/>
      <point x="60" y="583" type="line"/>
      <point x="55" y="583"/>
      <point x="44" y="582"/>
      <point x="42" y="582" type="qcurve"/>
    </contour>
    <contour>
      <point x="178" y="57" type="line"/>
      <point x="195" y="53"/>
      <point x="244" y="50"/>
      <point x="264" y="50" type="qcurve" name="hr02"/>
      <point x="323" y="50"/>
      <point x="373" y="109"/>
      <point x="373" y="172" type="qcurve" name="hr03"/>
      <point x="373" y="220"/>
      <point x="352" y="281"/>
      <point x="315" y="315"/>
      <point x="264" y="327"/>
      <point x="233" y="327" type="qcurve"/>
      <point x="216" y="327"/>
      <point x="184" y="324"/>
      <point x="178" y="322" type="qcurve"/>
    </contour>
    <contour>
      <point x="341" y="453" type="qcurve"/>
      <point x="340" y="496"/>
      <point x="323" y="553"/>
      <point x="292" y="585"/>
      <point x="248" y="598"/>
      <point x="220" y="598" type="qcurve"/>
      <point x="205" y="598"/>
      <point x="176" y="594"/>
      <point x="168" y="594" type="qcurve" name="hr04"/>
      <point x="171" y="582"/>
      <point x="175" y="531"/>
      <point x="177" y="471"/>
      <point x="178" y="411"/>
      <point x="178" y="390" type="qcurve"/>
      <point x="178" y="367" type="line"/>
      <point x="236" y="367"/>
      <point x="303" y="369"/>
      <point x="325" y="369" type="qcurve" name="hr05"/>
      <point x="336" y="389"/>
      <point x="341" y="433"/>
    </contour>
  </outline>
</glyph>
<glyph name="C" format="1">
  <advance width="515"/>
  <unicode hex="0043"/>
  <outline>
    <contour>
      <point x="296" y="668" type="line"/>
      <point x="380" y="643"/>
      <point x="494" y="533"/>
      <point x="494" y="518" type="curve"/>
      <point x="489" y="509"/>
      <point x="469" y="474"/>
      <point x="410" y="431" type="curve"/>
      <point x="376" y="484"/>
      <point x="295" y="561"/>
      <point x="243" y="561" type="curve" smooth="yes"/>
      <point x="173" y="561"/>
      <point x="168" y="424"/>
      <point x="168" y="358" type="curve" smooth="yes"/>
      <point x="168" y="155"/>
      <point x="226" y="80"/>
      <point x="293" y="80" type="curve" smooth="yes"/>
      <point x="349" y="80"/>
      <point x="414" y="95"/>
      <point x="474" y="141" type="curve"/>
      <point x="505" y="86" type="line"/>
      <point x="443" y="37"/>
      <point x="270" y="-1"/>
      <point x="231" y="-3" type="curve"/>
      <point x="94" y="6"/>
      <point x="39" y="151"/>
      <point x="39" y="277" type="curve" smooth="yes"/>
      <point x="39" y="318"/>
      <point x="44" y="369"/>
      <point x="53" y="402" type="curve" smooth="yes"/>
      <point x="70" y="464"/>
      <point x="211" y="668"/>
      <point x="286" y="668" type="curve" smooth="yes"/>
    </contour>
    <contour>
      <point x="283" y="619" type="move" name="top"/>
    </contour>
    <contour>
      <point x="260" y="11" type="move" name="bottom"/>
    </contour>
  </outline>
</glyph>
<glyph name="D" format="1">
  <advance width="583"/>
  <unicode hex="0044"/>
  <outline>
    <contour>
      <point x="13" y="649" type="line"/>
      <point x="97" y="649"/>
      <point x="216" y="650"/>
      <point x="245" y="650" type="qcurve"/>
      <point x="317" y="650" type="line"/>
      <point x="386" y="650"/>
      <point x="481" y="613"/>
      <point x="539" y="545"/>
      <point x="566" y="448"/>
      <point x="567" y="387" type="qcurve"/>
      <point x="567" y="383" type="line"/>
      <point x="566" y="314"/>
      <point x="530" y="190"/>
      <point x="469" y="90"/>
      <point x="390" y="20"/>
      <point x="346" y="5" type="qcurve"/>
      <point x="333" y="1"/>
      <point x="276" y="1" type="qcurve"/>
      <point x="135" y="1" type="line"/>
      <point x="126" y="1"/>
      <point x="102" y="1"/>
      <point x="76" y="0"/>
      <point x="50" y="0"/>
      <point x="41" y="0" type="qcurve"/>
      <point x="42" y="30"/>
      <point x="45" y="115"/>
      <point x="48" y="211"/>
      <point x="50" y="308"/>
      <point x="51" y="391"/>
      <point x="52" y="451"/>
      <point x="52" y="462" type="qcurve"/>
      <point x="52" y="494"/>
      <point x="50" y="553"/>
      <point x="44" y="562" type="qcurve"/>
      <point x="60" y="583" type="line"/>
      <point x="57" y="582"/>
      <point x="50" y="582"/>
      <point x="48" y="582" type="qcurve"/>
      <point x="42" y="582" type="line"/>
    </contour>
    <contour>
      <point x="179" y="256" type="line" name="hr01"/>
      <point x="179" y="242"/>
      <point x="178" y="216"/>
      <point x="178" y="203" type="qcurve" name="hr02"/>
      <point x="178" y="151" type="line"/>
      <point x="178" y="124"/>
      <point x="178" y="82"/>
      <point x="179" y="56" type="qcurve"/>
      <point x="210" y="53"/>
      <point x="249" y="49"/>
      <point x="273" y="47"/>
      <point x="285" y="47"/>
      <point x="287" y="47" type="qcurve"/>
      <point x="332" y="47"/>
      <point x="389" y="96"/>
      <point x="420" y="172"/>
      <point x="431" y="265"/>
      <point x="431" y="310" type="qcurve"/>
      <point x="431" y="396"/>
      <point x="405" y="508"/>
      <point x="354" y="573"/>
      <point x="281" y="599"/>
      <point x="234" y="599" type="qcurve"/>
      <point x="226" y="599"/>
      <point x="207" y="599"/>
      <point x="188" y="598"/>
      <point x="173" y="596"/>
      <point x="171" y="595" type="qcurve"/>
      <point x="176" y="558"/>
      <point x="179" y="441"/>
      <point x="179" y="376" type="qcurve" name="hr03"/>
    </contour>
  </outline>
</glyph>
<glyph name="E" format="1">
  <advance width="479"/>
  <unicode hex="0045"/>
  <outline>
    <contour>
      <point x="13" y="650" type="line"/>
      <point x="35" y="649"/>
      <point x="101" y="648"/>
      <point x="123" y="648" type="qcurve"/>
      <point x="284" y="648" type="line"/>
      <point x="356" y="648"/>
      <point x="427" y="641"/>
      <point x="427" y="626" type="qcurve"/>
      <point x="352" y="574" type="line"/>
      <point x="326" y="588"/>
      <point x="274" y="593"/>
      <point x="254" y="593" type="qcurve"/>
      <point x="244" y="593" type="line" name="hr01"/>
      <point x="230" y="593"/>
      <point x="187" y="590"/>
      <point x="170" y="590" type="qcurve"/>
      <point x="175" y="552"/>
      <point x="178" y="439"/>
      <point x="178" y="374" type="qcurve"/>
      <point x="178" y="357" type="line"/>
      <point x="181" y="355"/>
      <point x="210" y="353"/>
      <point x="228" y="353" type="qcurve"/>
      <point x="238" y="353" type="line"/>
      <point x="258" y="353"/>
      <point x="298" y="358"/>
      <point x="324" y="372" type="qcurve"/>
      <point x="405" y="320" type="line"/>
      <point x="405" y="306"/>
      <point x="357" y="299"/>
      <point x="293" y="299" type="qcurve"/>
      <point x="178" y="299" type="line"/>
      <point x="178" y="250" type="line"/>
      <point x="178" y="236"/>
      <point x="177" y="210"/>
      <point x="177" y="196" type="qcurve"/>
      <point x="177" y="61" type="line"/>
      <point x="187" y="60"/>
      <point x="217" y="58"/>
      <point x="250" y="57"/>
      <point x="283" y="56"/>
      <point x="297" y="56" type="qcurve"/>
      <point x="307" y="56" type="line"/>
      <point x="327" y="56"/>
      <point x="378" y="61"/>
      <point x="406" y="76" type="qcurve"/>
      <point x="478" y="22" type="line"/>
      <point x="478" y="8"/>
      <point x="409" y="1"/>
      <point x="338" y="1" type="qcurve"/>
      <point x="248" y="1" type="line"/>
      <point x="210" y="1"/>
      <point x="157" y="1"/>
      <point x="121" y="0"/>
      <point x="95" y="0"/>
      <point x="84" y="0" type="qcurve"/>
      <point x="40" y="0" type="line"/>
      <point x="41" y="9"/>
      <point x="44" y="77"/>
      <point x="47" y="171"/>
      <point x="49" y="279"/>
      <point x="51" y="376"/>
      <point x="52" y="449"/>
      <point x="52" y="462" type="qcurve"/>
      <point x="52" y="495"/>
      <point x="49" y="552"/>
      <point x="44" y="562" type="qcurve"/>
      <point x="59" y="583" type="line"/>
      <point x="54" y="583"/>
      <point x="44" y="582"/>
      <point x="42" y="582" type="qcurve" name="hr02"/>
    </contour>
  </outline>
</glyph>
<glyph name="F" format="1">
  <advance width="437"/>
  <unicode hex="0046"/>
  <outline>
    <contour>
      <point x="12" y="650" type="line"/>
      <point x="24" y="650"/>
      <point x="53" y="649"/>
      <point x="84" y="648"/>
      <point x="112" y="648"/>
      <point x="123" y="648" type="qcurve"/>
      <point x="284" y="648" type="line"/>
      <point x="356" y="648"/>
      <point x="427" y="641"/>
      <point x="427" y="626" type="qcurve"/>
      <point x="352" y="574" type="line"/>
      <point x="326" y="588"/>
      <point x="274" y="593"/>
      <point x="254" y="593" type="qcurve"/>
      <point x="244" y="593" type="line"/>
      <point x="230" y="593"/>
      <point x="187" y="590"/>
      <point x="170" y="590" type="qcurve"/>
      <point x="175" y="552"/>
      <point x="178" y="439"/>
      <point x="178" y="374" type="qcurve"/>
      <point x="178" y="357" type="line"/>
      <point x="181" y="355"/>
      <point x="211" y="353"/>
      <point x="228" y="353" type="qcurve"/>
      <point x="238" y="353" type="line"/>
      <point x="258" y="353"/>
      <point x="298" y="358"/>
      <point x="324" y="372" type="qcurve"/>
      <point x="405" y="320" type="line"/>
      <point x="405" y="306"/>
      <point x="357" y="299"/>
      <point x="293" y="299" type="qcurve"/>
      <point x="178" y="299" type="line"/>
      <point x="178" y="250" type="line"/>
      <point x="178" y="236"/>
      <point x="177" y="210"/>
      <point x="177" y="196" type="qcurve"/>
      <point x="177" y="143" type="line"/>
      <point x="177" y="106"/>
      <point x="178" y="33"/>
      <point x="179" y="2" type="qcurve"/>
      <point x="40" y="2" type="line"/>
      <point x="41" y="10"/>
      <point x="44" y="78"/>
      <point x="47" y="172"/>
      <point x="49" y="279"/>
      <point x="51" y="376"/>
      <point x="52" y="449"/>
      <point x="52" y="462" type="qcurve"/>
      <point x="52" y="495"/>
      <point x="49" y="552"/>
      <point x="44" y="562" type="qcurve"/>
      <point x="59" y="583" type="line"/>
      <point x="42" y="582" type="line" name="hr01"/>
    </contour>
  </outline>
</glyph>
<glyph name="G" format="1">
  <advance width="572"/>
  <unicode hex="0047"/>
  <outline>
    <contour>
      <point x="390" y="0" type="line" name="hr00"/>
      <point x="390" y="30" type="line"/>
      <point x="373" y="24"/>
      <point x="326" y="13"/>
      <point x="279" y="4"/>
      <point x="239" y="-3"/>
      <point x="231" y="-3" type="qcurve"/>
      <point x="183" y="0"/>
      <point x="111" y="53"/>
      <point x="63" y="133"/>
      <point x="39" y="229"/>
      <point x="39" y="276" type="qcurve"/>
      <point x="39" y="306"/>
      <point x="46" y="375"/>
      <point x="53" y="400" type="qcurve"/>
      <point x="57" y="415"/>
      <point x="91" y="467"/>
      <point x="141" y="526"/>
      <point x="200" y="587"/>
      <point x="260" y="636"/>
      <point x="316" y="667"/>
      <point x="336" y="667" type="qcurve"/>
      <point x="366" y="658"/>
      <point x="436" y="612"/>
      <point x="495" y="562"/>
      <point x="534" y="520"/>
      <point x="534" y="516" type="qcurve"/>
      <point x="527" y="504"/>
      <point x="516" y="490" type="qcurve"/>
      <point x="506" y="478"/>
      <point x="474" y="446"/>
      <point x="450" y="428" type="qcurve"/>
      <point x="437" y="448"/>
      <point x="397" y="494"/>
      <point x="351" y="533"/>
      <point x="303" y="559"/>
      <point x="284" y="559" type="qcurve"/>
      <point x="254" y="559"/>
      <point x="211" y="510"/>
      <point x="182" y="442"/>
      <point x="168" y="368"/>
      <point x="168" y="344" type="qcurve"/>
      <point x="168" y="264"/>
      <point x="193" y="161"/>
      <point x="230" y="102"/>
      <point x="273" y="80"/>
      <point x="292" y="80" type="qcurve"/>
      <point x="299" y="80"/>
      <point x="329" y="82"/>
      <point x="361" y="85"/>
      <point x="387" y="89"/>
      <point x="390" y="91" type="qcurve"/>
      <point x="390" y="185" type="line"/>
      <point x="333" y="185" type="line"/>
      <point x="343" y="236" type="line"/>
      <point x="562" y="236" type="line"/>
      <point x="552" y="185" type="line"/>
      <point x="514" y="185" type="line"/>
      <point x="514" y="169" type="line"/>
      <point x="514" y="146"/>
      <point x="515" y="62"/>
      <point x="517" y="-2" type="qcurve"/>
    </contour>
  </outline>
</glyph>
<glyph name="H" format="1">
  <advance width="602"/>
  <unicode hex="0048"/>
  <outline>
    <contour>
      <point x="403" y="0" type="line" name="hr00"/>
      <point x="404" y="7"/>
      <point x="406" y="63"/>
      <point x="408" y="141"/>
      <point x="410" y="233"/>
      <point x="411" y="277" type="qcurve"/>
      <point x="179" y="277" type="line"/>
      <point x="179" y="250" type="line"/>
      <point x="179" y="236"/>
      <point x="178" y="210"/>
      <point x="178" y="196" type="qcurve"/>
      <point x="178" y="143" type="line"/>
      <point x="178" y="106"/>
      <point x="179" y="33"/>
      <point x="180" y="2" type="qcurve"/>
      <point x="41" y="2" type="line"/>
      <point x="42" y="10"/>
      <point x="45" y="78"/>
      <point x="47" y="172"/>
      <point x="49" y="279"/>
      <point x="51" y="376"/>
      <point x="52" y="449"/>
      <point x="52" y="462" type="qcurve"/>
      <point x="52" y="478"/>
      <point x="52" y="511"/>
      <point x="50" y="539"/>
      <point x="48" y="561"/>
      <point x="45" y="566" type="qcurve"/>
      <point x="108" y="649" type="line"/>
      <point x="132" y="649"/>
      <point x="160" y="606"/>
      <point x="175" y="531"/>
      <point x="179" y="431"/>
      <point x="179" y="374" type="qcurve"/>
      <point x="179" y="326" type="line"/>
      <point x="412" y="326" type="line"/>
      <point x="412" y="377"/>
      <point x="414" y="448"/>
      <point x="414" y="462" type="qcurve"/>
      <point x="414" y="494"/>
      <point x="412" y="555"/>
      <point x="405" y="566" type="qcurve"/>
      <point x="468" y="649" type="line"/>
      <point x="492" y="649"/>
      <point x="520" y="605"/>
      <point x="535" y="529"/>
      <point x="540" y="427"/>
      <point x="540" y="370" type="qcurve"/>
      <point x="540" y="0" type="line"/>
    </contour>
  </outline>
</glyph>
<glyph name="I" format="1">
  <advance width="243"/>
  <unicode hex="0049"/>
  <outline>
    <contour>
      <point x="41" y="0" type="line" name="hr00"/>
      <point x="42" y="9"/>
      <point x="45" y="77"/>
      <point x="47" y="171"/>
      <point x="49" y="279"/>
      <point x="50" y="376"/>
      <point x="51" y="449"/>
      <point x="51" y="462" type="qcurve"/>
      <point x="51" y="478"/>
      <point x="51" y="511"/>
      <point x="49" y="539"/>
      <point x="47" y="561"/>
      <point x="44" y="566" type="qcurve"/>
      <point x="107" y="649" type="line"/>
      <point x="130" y="649"/>
      <point x="158" y="606"/>
      <point x="173" y="531"/>
      <point x="177" y="431"/>
      <point x="177" y="374" type="qcurve"/>
      <point x="177" y="143" type="line"/>
      <point x="177" y="106"/>
      <point x="177" y="33"/>
      <point x="178" y="2" type="qcurve"/>
    </contour>
  </outline>
</glyph>
<glyph name="J" format="1">
  <advance width="291"/>
  <unicode hex="004A"/>
  <outline>
    <contour>
      <point x="-46" y="88" type="qcurve" name="hr00"/>
      <point x="-46" y="89"/>
      <point x="-32" y="106"/>
      <point x="-11" y="127"/>
      <point x="14" y="150"/>
      <point x="26" y="159" type="qcurve"/>
      <point x="33" y="148"/>
      <point x="54" y="126"/>
      <point x="76" y="107"/>
      <point x="99" y="91"/>
      <point x="109" y="87" type="qcurve"/>
      <point x="110" y="112"/>
      <point x="112" y="184"/>
      <point x="114" y="266"/>
      <point x="115" y="349"/>
      <point x="116" y="420"/>
      <point x="117" y="474"/>
      <point x="117" y="484" type="qcurve"/>
      <point x="117" y="516"/>
      <point x="113" y="555"/>
      <point x="108" y="566" type="qcurve"/>
      <point x="177" y="658" type="line"/>
      <point x="198" y="651"/>
      <point x="224" y="610"/>
      <point x="238" y="548"/>
      <point x="242" y="467"/>
      <point x="242" y="421" type="qcurve"/>
      <point x="242" y="147" type="line"/>
      <point x="242" y="136"/>
      <point x="207" y="87"/>
      <point x="157" y="35"/>
      <point x="103" y="-4"/>
      <point x="85" y="-4" type="qcurve"/>
      <point x="68" y="-2"/>
      <point x="26" y="19"/>
      <point x="-12" y="48"/>
      <point x="-42" y="78"/>
    </contour>
  </outline>
</glyph>
<glyph name="K" format="1">
  <advance width="579"/>
  <unicode hex="004B"/>
  <outline>
    <contour>
      <point x="41" y="0" type="line" name="hr00"/>
      <point x="42" y="9"/>
      <point x="45" y="77"/>
      <point x="47" y="171"/>
      <point x="49" y="279"/>
      <point x="51" y="376"/>
      <point x="52" y="449"/>
      <point x="52" y="462" type="qcurve"/>
      <point x="52" y="478"/>
      <point x="52" y="513"/>
      <point x="50" y="545"/>
      <point x="48" y="569"/>
      <point x="45" y="574" type="qcurve"/>
      <point x="108" y="657" type="line"/>
      <point x="132" y="657"/>
      <point x="160" y="611"/>
      <point x="175" y="534"/>
      <point x="179" y="431"/>
      <point x="179" y="374" type="qcurve"/>
      <point x="212" y="412"/>
      <point x="292" y="505"/>
      <point x="371" y="586"/>
      <point x="439" y="640"/>
      <point x="460" y="640" type="qcurve"/>
      <point x="468" y="640"/>
      <point x="480" y="638"/>
      <point x="489" y="632" type="qcurve"/>
      <point x="496" y="562" type="line"/>
      <point x="490" y="560"/>
      <point x="444" y="515"/>
      <point x="385" y="454"/>
      <point x="323" y="389"/>
      <point x="301" y="367" type="qcurve"/>
      <point x="345" y="306"/>
      <point x="437" y="193"/>
      <point x="511" y="99"/>
      <point x="558" y="30"/>
      <point x="558" y="15" type="qcurve"/>
      <point x="558" y="11"/>
      <point x="543" y="-1" type="qcurve"/>
      <point x="427" y="-1" type="line"/>
      <point x="425" y="10"/>
      <point x="410" y="41"/>
      <point x="389" y="74"/>
      <point x="366" y="104"/>
      <point x="358" y="115" type="qcurve"/>
      <point x="349" y="127"/>
      <point x="316" y="172"/>
      <point x="277" y="223"/>
      <point x="237" y="274"/>
      <point x="221" y="294" type="qcurve"/>
      <point x="179" y="248" type="line"/>
      <point x="179" y="239"/>
      <point x="178" y="211"/>
      <point x="178" y="180"/>
      <point x="178" y="152"/>
      <point x="178" y="143" type="qcurve"/>
      <point x="178" y="106"/>
      <point x="179" y="33"/>
      <point x="180" y="2" type="qcurve"/>
    </contour>
  </outline>
</glyph>
<glyph name="L" format="1">
  <advance width="473"/>
  <unicode hex="004C"/>
  <outline>
    <contour>
      <point x="41" y="0" type="line"/>
      <point x="42" y="9"/>
      <point x="45" y="77"/>
      <point x="47" y="171"/>
      <point x="49" y="279"/>
      <point x="51" y="376"/>
      <point x="52" y="449"/>
      <point x="52" y="462" type="qcurve"/>
      <point x="52" y="478"/>
      <point x="52" y="511"/>
      <point x="50" y="539"/>
      <point x="48" y="561"/>
      <point x="45" y="566" type="qcurve"/>
      <point x="108" y="649" type="line" name="hr01"/>
      <point x="132" y="649"/>
      <point x="160" y="606"/>
      <point x="175" y="531"/>
      <point x="179" y="431"/>
      <point x="179" y="374" type="qcurve"/>
      <point x="179" y="250" type="line"/>
      <point x="179" y="236"/>
      <point x="178" y="210"/>
      <point x="178" y="196" type="qcurve"/>
      <point x="178" y="61" type="line" name="hr02"/>
      <point x="188" y="60"/>
      <point x="217" y="58"/>
      <point x="250" y="57"/>
      <point x="283" y="56"/>
      <point x="297" y="56" type="qcurve"/>
      <point x="307" y="56" type="line"/>
      <point x="327" y="56"/>
      <point x="378" y="61"/>
      <point x="406" y="76" type="qcurve"/>
      <point x="478" y="22" type="line"/>
      <point x="478" y="8"/>
      <point x="409" y="1"/>
      <point x="338" y="1" type="qcurve"/>
      <point x="250" y="1" type="line"/>
      <point x="241" y="1"/>
      <point x="222" y="2"/>
      <point x="212" y="2" type="qcurve"/>
      <point x="196" y="2" type="line"/>
      <point x="170" y="2"/>
      <point x="113" y="0"/>
      <point x="84" y="0" type="qcurve"/>
    </contour>
  </outline>
</glyph>
<glyph name="M" format="1">
  <advance width="763"/>
  <unicode hex="004D"/>
  <outline>
    <contour>
      <point x="560" y="0" type="line" name="hr00"/>
      <point x="561" y="7"/>
      <point x="563" y="61"/>
      <point x="565" y="139"/>
      <point x="567" y="232"/>
      <point x="568" y="324"/>
      <point x="570" y="406"/>
      <point x="570" y="433" type="qcurve"/>
      <point x="390" y="-1" type="line"/>
      <point x="346" y="-1" type="line"/>
      <point x="342" y="10"/>
      <point x="317" y="70"/>
      <point x="281" y="148"/>
      <point x="239" y="236"/>
      <point x="201" y="318"/>
      <point x="171" y="385"/>
      <point x="164" y="402" type="qcurve"/>
      <point x="164" y="121" type="line"/>
      <point x="164" y="105"/>
      <point x="163" y="74"/>
      <point x="163" y="59" type="qcurve"/>
      <point x="163" y="44"/>
      <point x="163" y="15"/>
      <point x="164" y="2" type="qcurve"/>
      <point x="59" y="2" type="line"/>
      <point x="60" y="10"/>
      <point x="63" y="78"/>
      <point x="65" y="172"/>
      <point x="67" y="279"/>
      <point x="68" y="376"/>
      <point x="69" y="449"/>
      <point x="69" y="462" type="qcurve"/>
      <point x="69" y="474" type="line"/>
      <point x="69" y="503"/>
      <point x="67" y="555"/>
      <point x="61" y="566" type="qcurve"/>
      <point x="168" y="649" type="line"/>
      <point x="184" y="649"/>
      <point x="195" y="628" type="qcurve"/>
      <point x="206" y="611"/>
      <point x="237" y="547"/>
      <point x="274" y="465"/>
      <point x="314" y="373"/>
      <point x="352" y="285"/>
      <point x="387" y="207"/>
      <point x="400" y="181" type="qcurve"/>
      <point x="425" y="250"/>
      <point x="467" y="361"/>
      <point x="500" y="451"/>
      <point x="525" y="521"/>
      <point x="535" y="548" type="qcurve"/>
      <point x="538" y="557" type="line"/>
      <point x="536" y="563" type="line"/>
      <point x="631" y="649" type="line"/>
      <point x="655" y="649"/>
      <point x="683" y="605"/>
      <point x="698" y="528"/>
      <point x="702" y="426"/>
      <point x="702" y="369" type="qcurve"/>
      <point x="702" y="121" type="line"/>
      <point x="702" y="90"/>
      <point x="702" y="28"/>
      <point x="703" y="2" type="qcurve"/>
    </contour>
  </outline>
</glyph>
<glyph name="N" format="1">
  <advance width="581"/>
  <unicode hex="004E"/>
  <outline>
    <contour>
      <point x="433" y="0" type="line"/>
      <point x="411" y="1" type="line"/>
      <point x="392" y="47"/>
      <point x="242" y="274"/>
      <point x="163" y="399" type="curve"/>
      <point x="163" y="121" type="line" smooth="yes"/>
      <point x="163" y="80"/>
      <point x="163" y="37"/>
      <point x="164" y="2" type="curve"/>
      <point x="59" y="2" type="line"/>
      <point x="64" y="35"/>
      <point x="69" y="412"/>
      <point x="69" y="462" type="curve" smooth="yes"/>
      <point x="69" y="505"/>
      <point x="69" y="554"/>
      <point x="60" y="569" type="curve"/>
      <point x="115" y="655" type="line"/>
      <point x="205" y="545"/>
      <point x="343" y="350"/>
      <point x="427" y="211" type="curve"/>
      <point x="429" y="318"/>
      <point x="429" y="436"/>
      <point x="429" y="462" type="curve"/>
      <point x="429" y="475" type="line"/>
      <point x="429" y="514"/>
      <point x="429" y="555"/>
      <point x="422" y="568" type="curve"/>
      <point x="468" y="648" type="line"/>
      <point x="520" y="648"/>
      <point x="526" y="607"/>
      <point x="526" y="543" type="curve" smooth="yes"/>
      <point x="526" y="524"/>
      <point x="525" y="503"/>
      <point x="525" y="480" type="curve" smooth="yes"/>
      <point x="525" y="212"/>
      <point x="522" y="132"/>
      <point x="522" y="0" type="curve"/>
    </contour>
    <contour>
      <point x="285" y="619" type="move" name="top"/>
    </contour>
    <contour>
      <point x="216" y="11" type="move" name="bottom"/>
    </contour>
  </outline>
</glyph>
<glyph name="O" format="1">
  <advance width="633"/>
  <unicode hex="004F"/>
  <outline>
    <contour>
      <point x="65" y="392" type="curve" smooth="yes"/>
      <point x="121" y="589"/>
      <point x="298" y="657"/>
      <point x="391" y="657" type="curve" smooth="yes"/>
      <point x="534" y="657"/>
      <point x="583" y="503"/>
      <point x="583" y="376" type="curve" smooth="yes"/>
      <point x="583" y="103"/>
      <point x="354" y="-3"/>
      <point x="244" y="-3" type="curve" smooth="yes"/>
      <point x="101" y="-3"/>
      <point x="50" y="149"/>
      <point x="50" y="276" type="curve" smooth="yes"/>
      <point x="50" y="317"/>
      <point x="55" y="358"/>
    </contour>
    <contour>
      <point x="277" y="576" type="curve" smooth="yes"/>
      <point x="241" y="574"/>
      <point x="177" y="553"/>
      <point x="177" y="348" type="curve" smooth="yes"/>
      <point x="177" y="330" type="line" smooth="yes"/>
      <point x="177" y="161"/>
      <point x="264" y="75"/>
      <point x="333" y="75" type="curve" smooth="yes"/>
      <point x="410" y="75"/>
      <point x="449" y="124"/>
      <point x="456" y="335" type="curve" smooth="yes"/>
      <point x="456" y="345" type="line" smooth="yes"/>
      <point x="454" y="549"/>
      <point x="350" y="577"/>
      <point x="294" y="577" type="curve" smooth="yes"/>
      <point x="289" y="577"/>
      <point x="285" y="577"/>
    </contour>
    <contour>
      <point x="348" y="619" type="move" name="top"/>
    </contour>
  </outline>
</glyph>
<glyph name="P" format="1">
  <advance width="478"/>
  <unicode hex="0050"/>
  <outline>
    <contour>
      <point x="13" y="649" type="line" name="hr00"/>
      <point x="337" y="649" type="line"/>
      <point x="384" y="645"/>
      <point x="447" y="615"/>
      <point x="485" y="572"/>
      <point x="501" y="521"/>
      <point x="501" y="496" type="qcurve"/>
      <point x="501" y="450"/>
      <point x="454" y="372"/>
      <point x="386" y="315"/>
      <point x="310" y="282"/>
      <point x="282" y="282" type="qcurve"/>
      <point x="178" y="282" type="line"/>
      <point x="178" y="256" type="line"/>
      <point x="178" y="242"/>
      <point x="177" y="216"/>
      <point x="177" y="203" type="qcurve"/>
      <point x="177" y="151" type="line"/>
      <point x="177" y="114"/>
      <point x="178" y="34"/>
      <point x="179" y="2" type="qcurve"/>
      <point x="41" y="2" type="line"/>
      <point x="42" y="9"/>
      <point x="45" y="61"/>
      <point x="47" y="135"/>
      <point x="49" y="224"/>
      <point x="51" y="314"/>
      <point x="52" y="396"/>
      <point x="52" y="426" type="qcurve"/>
      <point x="52" y="462" type="line"/>
      <point x="52" y="494"/>
      <point x="50" y="553"/>
      <point x="44" y="562" type="qcurve"/>
      <point x="60" y="583" type="line"/>
      <point x="55" y="583"/>
      <point x="44" y="582"/>
      <point x="42" y="582" type="qcurve"/>
    </contour>
    <contour>
      <point x="178" y="330" type="line"/>
      <point x="191" y="327"/>
      <point x="230" y="324"/>
      <point x="248" y="324" type="qcurve"/>
      <point x="285" y="324"/>
      <point x="333" y="340"/>
      <point x="362" y="371"/>
      <point x="373" y="420"/>
      <point x="374" y="453" type="qcurve"/>
      <point x="374" y="459" type="line"/>
      <point x="374" y="530"/>
      <point x="312" y="599"/>
      <point x="255" y="599" type="qcurve"/>
      <point x="227" y="599"/>
      <point x="177" y="594"/>
      <point x="169" y="594" type="qcurve"/>
      <point x="175" y="556"/>
      <point x="178" y="444"/>
      <point x="178" y="376" type="qcurve"/>
    </contour>
  </outline>
</glyph>
<glyph name="Q" format="1">
  <advance width="625"/>
  <unicode hex="0051"/>
  <outline>
    <contour>
      <point x="66" y="392" type="curve" smooth="yes"/>
      <point x="124" y="589"/>
      <point x="300" y="657"/>
      <point x="393" y="657" type="curve" smooth="yes"/>
      <point x="536" y="657"/>
      <point x="585" y="503"/>
      <point x="585" y="375" type="curve" smooth="yes"/>
      <point x="585" y="335"/>
      <point x="581" y="295"/>
      <point x="572" y="261" type="curve" smooth="yes"/>
      <point x="534" y="120"/>
      <point x="425" y="41"/>
      <point x="332" y="11" type="curve"/>
      <point x="404" y="-36"/>
      <point x="553" y="-104"/>
      <point x="675" y="-104" type="curve" smooth="yes"/>
      <point x="710" y="-104"/>
      <point x="752" y="-95"/>
      <point x="801" y="-73" type="curve"/>
      <point x="812" y="-121" type="line"/>
      <point x="749" y="-165"/>
      <point x="684" y="-182"/>
      <point x="620" y="-182" type="curve" smooth="yes"/>
      <point x="460" y="-182"/>
      <point x="318" y="-76"/>
      <point x="216" y="0" type="curve"/>
      <point x="97" y="24"/>
      <point x="50" y="159"/>
      <point x="50" y="277" type="curve" smooth="yes"/>
      <point x="50" y="318"/>
      <point x="56" y="359"/>
    </contour>
    <contour>
      <point x="279" y="576" type="curve" smooth="yes"/>
      <point x="242" y="574"/>
      <point x="179" y="552"/>
      <point x="179" y="348" type="curve" smooth="yes"/>
      <point x="179" y="330" type="line" smooth="yes"/>
      <point x="179" y="161"/>
      <point x="266" y="75"/>
      <point x="334" y="75" type="curve" smooth="yes"/>
      <point x="410" y="75"/>
      <point x="450" y="124"/>
      <point x="457" y="335" type="curve" smooth="yes"/>
      <point x="457" y="345" type="line" smooth="yes"/>
      <point x="455" y="549"/>
      <point x="352" y="577"/>
      <point x="296" y="577" type="curve" smooth="yes"/>
      <point x="291" y="577"/>
      <point x="287" y="577"/>
    </contour>
  </outline>
</glyph>
<glyph name="T" format="1">
  <advance width="460"/>
  <unicode hex="0054"/>
  <outline>
    <contour>
      <point x="361" y="648" type="line" name="hr00"/>
      <point x="433" y="648"/>
      <point x="504" y="641"/>
      <point x="504" y="626" type="qcurve"/>
      <point x="439" y="569" type="line"/>
      <point x="424" y="572"/>
      <point x="389" y="577"/>
      <point x="352" y="580"/>
      <point x="317" y="581"/>
      <point x="303" y="581" type="qcurve"/>
      <point x="294" y="581" type="line"/>
      <point x="296" y="541"/>
      <point x="296" y="424"/>
      <point x="296" y="358" type="qcurve"/>
      <point x="296" y="2" type="line"/>
      <point x="160" y="2" type="line"/>
      <point x="161" y="35"/>
      <point x="165" y="146"/>
      <point x="169" y="276"/>
      <point x="171" y="413"/>
      <point x="171" y="470" type="qcurve"/>
      <point x="171" y="508"/>
      <point x="170" y="561"/>
      <point x="169" y="581" type="qcurve"/>
      <point x="130" y="581" type="line"/>
      <point x="104" y="581"/>
      <point x="47" y="576"/>
      <point x="16" y="568" type="qcurve"/>
      <point x="-52" y="626" type="line"/>
      <point x="-52" y="641"/>
      <point x="18" y="648"/>
      <point x="92" y="648" type="qcurve"/>
    </contour>
  </outline>
</glyph>
<glyph name="V" format="1">
  <advance width="580"/>
  <unicode hex="0056"/>
  <outline>
    <contour>
      <point x="292" y="0" type="line" name="hr00"/>
      <point x="268" y="63"/>
      <point x="207" y="215"/>
      <point x="141" y="370"/>
      <point x="74" y="515"/>
      <point x="44" y="570" type="qcurve"/>
      <point x="94" y="640" type="line"/>
      <point x="99" y="645"/>
      <point x="116" y="651"/>
      <point x="123" y="651" type="qcurve"/>
      <point x="145" y="651"/>
      <point x="189" y="574"/>
      <point x="241" y="448"/>
      <point x="304" y="285"/>
      <point x="345" y="199" type="qcurve"/>
      <point x="383" y="306" type="line"/>
      <point x="411" y="387"/>
      <point x="467" y="563"/>
      <point x="484" y="644" type="qcurve"/>
      <point x="545" y="649" type="line"/>
      <point x="572" y="636"/>
      <point x="572" y="622" type="qcurve"/>
      <point x="572" y="618" type="line"/>
      <point x="572" y="603"/>
      <point x="538" y="506"/>
      <point x="488" y="368"/>
      <point x="427" y="199"/>
      <point x="400" y="112" type="qcurve"/>
      <point x="403" y="98" type="line"/>
    </contour>
  </outline>
</glyph>
<glyph name="W" format="1">
  <advance width="864"/>
  <unicode hex="0057"/>
  <outline>
    <contour>
      <point x="598" y="1" type="line"/>
      <point x="578" y="54"/>
      <point x="512" y="215"/>
      <point x="472" y="308" type="curve"/>
      <point x="405" y="112" type="line"/>
      <point x="411" y="98" type="line"/>
      <point x="299" y="-1" type="line"/>
      <point x="272" y="70"/>
      <point x="190" y="273"/>
      <point x="153" y="355" type="curve"/>
      <point x="145" y="372" type="line"/>
      <point x="113" y="444"/>
      <point x="65" y="551"/>
      <point x="50" y="565" type="curve"/>
      <point x="99" y="641" type="line"/>
      <point x="113" y="650"/>
      <point x="119" y="650"/>
      <point x="128" y="650" type="curve" smooth="yes"/>
      <point x="191" y="651"/>
      <point x="251" y="396"/>
      <point x="351" y="203" type="curve"/>
      <point x="369" y="252"/>
      <point x="405" y="359"/>
      <point x="422" y="421" type="curve"/>
      <point x="399" y="478"/>
      <point x="360" y="556"/>
      <point x="350" y="567" type="curve"/>
      <point x="403" y="643" type="line"/>
      <point x="411" y="647"/>
      <point x="416" y="651"/>
      <point x="427" y="651" type="curve" smooth="yes"/>
      <point x="502" y="651"/>
      <point x="547" y="359"/>
      <point x="645" y="206" type="curve"/>
      <point x="664" y="265" type="line"/>
      <point x="689" y="343"/>
      <point x="745" y="495"/>
      <point x="779" y="637" type="curve"/>
      <point x="779" y="645" type="line"/>
      <point x="852" y="649" type="line"/>
      <point x="868" y="640"/>
      <point x="878" y="632"/>
      <point x="878" y="620" type="curve"/>
      <point x="875" y="558"/>
      <point x="793" y="393"/>
      <point x="706" y="112" type="curve"/>
      <point x="711" y="99" type="line"/>
    </contour>
    <contour>
      <point x="439" y="619" type="move" name="top"/>
    </contour>
  </outline>
</glyph>
<glyph name="X" format="1">
  <advance width="500"/>
  <unicode hex="0058"/>
  <outline>
    <contour>
      <point x="369" y="6" type="line" name="hr00"/>
      <point x="343" y="44"/>
      <point x="272" y="162"/>
      <point x="233" y="228" type="qcurve"/>
      <point x="228" y="220" type="line"/>
      <point x="215" y="199"/>
      <point x="180" y="135"/>
      <point x="148" y="70"/>
      <point x="125" y="14"/>
      <point x="125" y="0" type="qcurve"/>
      <point x="15" y="0" type="line"/>
      <point x="16" y="13"/>
      <point x="36" y="53"/>
      <point x="70" y="107"/>
      <point x="115" y="174"/>
      <point x="141" y="215" type="qcurve"/>
      <point x="198" y="307" type="line"/>
      <point x="177" y="322" type="line"/>
      <point x="157" y="356"/>
      <point x="113" y="427"/>
      <point x="70" y="494"/>
      <point x="32" y="550"/>
      <point x="18" y="569" type="qcurve"/>
      <point x="74" y="642" type="line"/>
      <point x="80" y="645"/>
      <point x="93" y="650"/>
      <point x="101" y="650" type="qcurve"/>
      <point x="106" y="650"/>
      <point x="137" y="610"/>
      <point x="183" y="541"/>
      <point x="240" y="451"/>
      <point x="270" y="401" type="qcurve"/>
      <point x="287" y="429"/>
      <point x="322" y="493"/>
      <point x="353" y="557"/>
      <point x="375" y="617"/>
      <point x="380" y="641" type="qcurve"/>
      <point x="460" y="648" type="line"/>
      <point x="483" y="627"/>
      <point x="484" y="622" type="qcurve"/>
      <point x="484" y="612"/>
      <point x="458" y="559"/>
      <point x="413" y="481"/>
      <point x="351" y="381"/>
      <point x="316" y="324" type="qcurve"/>
      <point x="352" y="264"/>
      <point x="418" y="150"/>
      <point x="469" y="60"/>
      <point x="500" y="6"/>
      <point x="499" y="6" type="qcurve"/>
    </contour>
  </outline>
</glyph>
<glyph name="Y" format="1">
  <advance width="512"/>
  <unicode hex="0059"/>
  <outline>
    <contour>
      <point x="366" y="421" type="qcurve" name="hr00"/>
      <point x="403" y="495" type="line"/>
      <point x="410" y="508"/>
      <point x="427" y="547"/>
      <point x="442" y="586"/>
      <point x="453" y="623"/>
      <point x="453" y="635" type="qcurve"/>
      <point x="453" y="642" type="line"/>
      <point x="457" y="642"/>
      <point x="478" y="643"/>
      <point x="510" y="647" type="qcurve"/>
      <point x="538" y="640"/>
      <point x="538" y="629" type="qcurve"/>
      <point x="538" y="621"/>
      <point x="523" y="581"/>
      <point x="497" y="523"/>
      <point x="462" y="450"/>
      <point x="442" y="409" type="qcurve"/>
      <point x="428" y="380"/>
      <point x="390" y="302"/>
      <point x="372" y="264" type="qcurve"/>
      <point x="372" y="228" type="line"/>
      <point x="372" y="213"/>
      <point x="371" y="183"/>
      <point x="371" y="168" type="qcurve"/>
      <point x="371" y="112" type="line"/>
      <point x="371" y="84"/>
      <point x="371" y="26"/>
      <point x="372" y="2" type="qcurve"/>
      <point x="235" y="2" type="line"/>
      <point x="239" y="78" type="line"/>
      <point x="242" y="126"/>
      <point x="246" y="223"/>
      <point x="246" y="269" type="qcurve"/>
      <point x="246" y="286" type="line"/>
      <point x="234" y="310"/>
      <point x="200" y="374"/>
      <point x="161" y="441"/>
      <point x="120" y="507"/>
      <point x="83" y="560"/>
      <point x="55" y="593"/>
      <point x="48" y="595" type="qcurve"/>
      <point x="109" y="645" type="line"/>
      <point x="116" y="647"/>
      <point x="125" y="647"/>
      <point x="131" y="647" type="qcurve"/>
      <point x="147" y="647"/>
      <point x="171" y="634"/>
      <point x="194" y="607"/>
      <point x="219" y="566"/>
      <point x="234" y="539" type="qcurve"/>
      <point x="238" y="531" type="line"/>
      <point x="239" y="529"/>
      <point x="241" y="525"/>
      <point x="243" y="523" type="qcurve"/>
      <point x="259" y="494"/>
      <point x="296" y="424"/>
      <point x="321" y="382" type="qcurve"/>
      <point x="333" y="361" type="line"/>
      <point x="341" y="376"/>
      <point x="358" y="406"/>
    </contour>
  </outline>
</glyph>
<glyph name="bracketleft" format="1">
  <advance width="292"/>
  <unicode hex="005B"/>
  <outline>
    <contour>
      <point x="45" y="663" type="line"/>
      <point x="108" y="664"/>
      <point x="176" y="664"/>
      <point x="178" y="664" type="qcurve"/>
      <point x="250" y="664"/>
      <point x="321" y="657"/>
      <point x="321" y="642" type="qcurve" name="hr01"/>
      <point x="260" y="602" type="line"/>
      <point x="237" y="614"/>
      <point x="195" y="620"/>
      <point x="177" y="621" type="qcurve"/>
      <point x="182" y="577"/>
      <point x="185" y="426"/>
      <point x="185" y="334" type="qcurve"/>
      <point x="185" y="240"/>
      <point x="183" y="44"/>
      <point x="183" y="-54" type="qcurve"/>
      <point x="183" y="-65"/>
      <point x="184" y="-87"/>
      <point x="184" y="-98" type="qcurve"/>
      <point x="184" y="-135" type="line"/>
      <point x="201" y="-134"/>
      <point x="240" y="-127"/>
      <point x="260" y="-116" type="qcurve"/>
      <point x="321" y="-157" type="line"/>
      <point x="321" y="-171"/>
      <point x="250" y="-179"/>
      <point x="178" y="-179" type="qcurve"/>
      <point x="46" y="-179" type="line"/>
      <point x="63" y="-149" type="line"/>
      <point x="64" y="-124"/>
      <point x="67" y="-17"/>
      <point x="70" y="115"/>
      <point x="72" y="258"/>
      <point x="74" y="381"/>
      <point x="75" y="469"/>
      <point x="75" y="481" type="qcurve"/>
      <point x="75" y="496"/>
      <point x="74" y="543"/>
      <point x="71" y="590"/>
      <point x="67" y="627"/>
      <point x="64" y="633" type="qcurve"/>
    </contour>
  </outline>
</glyph>
<glyph name="backslash" format="1">
  <advance width="446"/>
  <unicode hex="005C"/>
  <outline>
    <contour>
      <point x="368" y="-1" type="line" name="hr00"/>
      <point x="164" y="405" type="line"/>
      <point x="143" y="446"/>
      <point x="107" y="523"/>
      <point x="79" y="587"/>
      <point x="62" y="634"/>
      <point x="62" y="645" type="qcurve"/>
      <point x="62" y="650"/>
      <point x="77" y="660"/>
      <point x="96" y="666" type="qcurve"/>
      <point x="191" y="596" type="line"/>
      <point x="191" y="576"/>
      <point x="212" y="537"/>
      <point x="220" y="520" type="qcurve"/>
      <point x="276" y="399" type="line"/>
      <point x="296" y="362"/>
      <point x="343" y="274"/>
      <point x="389" y="185"/>
      <point x="433" y="101"/>
      <point x="468" y="34"/>
      <point x="490" y="-8"/>
      <point x="493" y="-11" type="qcurve"/>
    </contour>
  </outline>
</glyph>
<glyph name="bracketright" format="1">
  <advance width="266"/>
  <unicode hex="005D"/>
  <outline>
    <contour>
      <point x="198" y="633" type="line"/>
      <point x="191" y="602"/>
      <point x="188" y="514"/>
      <point x="188" y="481" type="curve" smooth="yes"/>
      <point x="188" y="434"/>
      <point x="194" y="-48"/>
      <point x="195" y="-149" type="curve"/>
      <point x="216" y="-179" type="line"/>
      <point x="85" y="-179" type="line" smooth="yes"/>
      <point x="-11" y="-179"/>
      <point x="-58" y="-176"/>
      <point x="-58" y="-157" type="curve"/>
      <point x="3" y="-116" type="line"/>
      <point x="29" y="-131"/>
      <point x="55" y="-134"/>
      <point x="79" y="-135" type="curve"/>
      <point x="79" y="-79" type="line" smooth="yes"/>
      <point x="79" y="38"/>
      <point x="77" y="194"/>
      <point x="77" y="335" type="curve" smooth="yes"/>
      <point x="77" y="456"/>
      <point x="79" y="563"/>
      <point x="84" y="621" type="curve"/>
      <point x="59" y="620"/>
      <point x="31" y="617"/>
      <point x="3" y="602" type="curve"/>
      <point x="-58" y="642" type="line"/>
      <point x="-58" y="662"/>
      <point x="-11" y="664"/>
      <point x="85" y="664" type="curve" smooth="yes"/>
      <point x="138" y="664" type="line" smooth="yes"/>
      <point x="158" y="664"/>
      <point x="194" y="663"/>
      <point x="216" y="663" type="curve"/>
    </contour>
  </outline>
</glyph>
<glyph name="asciicircum" format="1">
  <advance width="727"/>
  <unicode hex="005E"/>
  <outline>
    <contour>
      <point x="333" y="635" type="line" name="hr00"/>
      <point x="347" y="593"/>
      <point x="395" y="489"/>
      <point x="442" y="388"/>
      <point x="476" y="302"/>
      <point x="476" y="279" type="qcurve"/>
      <point x="476" y="271"/>
      <point x="456" y="262" type="qcurve"/>
      <point x="430" y="261" type="line"/>
      <point x="359" y="335" type="line"/>
      <point x="361" y="347" type="line"/>
      <point x="360" y="360"/>
      <point x="349" y="390"/>
      <point x="333" y="420"/>
      <point x="316" y="447"/>
      <point x="310" y="458" type="qcurve"/>
      <point x="303" y="470"/>
      <point x="294" y="487"/>
      <point x="285" y="502"/>
      <point x="274" y="521"/>
      <point x="267" y="536" type="qcurve"/>
      <point x="223" y="458" type="line"/>
      <point x="212" y="438"/>
      <point x="193" y="406"/>
      <point x="187" y="389" type="qcurve"/>
      <point x="181" y="376" type="line"/>
      <point x="176" y="364"/>
      <point x="173" y="353"/>
      <point x="173" y="348" type="qcurve"/>
      <point x="173" y="340"/>
      <point x="174" y="339"/>
      <point x="175" y="337" type="qcurve"/>
      <point x="104" y="261" type="line"/>
      <point x="78" y="262" type="line"/>
      <point x="58" y="271"/>
      <point x="58" y="280" type="qcurve"/>
      <point x="58" y="302"/>
      <point x="93" y="392"/>
      <point x="140" y="497"/>
      <point x="188" y="599"/>
      <point x="200" y="634" type="qcurve"/>
      <point x="200" y="634"/>
      <point x="202" y="635"/>
      <point x="214" y="635"/>
      <point x="242" y="635"/>
      <point x="267" y="635" type="qcurve"/>
    </contour>
  </outline>
</glyph>
<glyph name="underscore" format="1">
  <advance width="493"/>
  <unicode hex="005F"/>
  <outline>
    <contour>
      <point x="12" y="-27" type="line"/>
      <point x="110" y="-27" type="line" smooth="yes"/>
      <point x="144" y="-27"/>
      <point x="205" y="-25"/>
      <point x="246" y="-25" type="curve" smooth="yes"/>
      <point x="490" y="-25" type="line"/>
      <point x="461" y="-78" type="line"/>
      <point x="391" y="-78"/>
      <point x="326" y="-77"/>
      <point x="264" y="-77" type="curve" smooth="yes"/>
      <point x="171" y="-77"/>
      <point x="86" y="-79"/>
      <point x="1" y="-86" type="curve"/>
    </contour>
  </outline>
</glyph>
<glyph name="grave" format="1">
  <advance width="367"/>
  <unicode hex="0060"/>
  <outline>
    <contour>
      <point x="169" y="712" type="line"/>
      <point x="228" y="649"/>
      <point x="254" y="626"/>
      <point x="287" y="620" type="curve"/>
      <point x="290" y="563" type="line"/>
      <point x="286" y="557"/>
      <point x="275" y="554"/>
      <point x="262" y="554" type="curve" smooth="yes"/>
      <point x="228" y="554"/>
      <point x="211" y="583"/>
      <point x="124" y="650" type="curve"/>
    </contour>
    <contour>
      <point x="204" y="479" type="move" name="_top"/>
    </contour>
  </outline>
</glyph>
<glyph name="a" format="1">
  <advance width="434"/>
  <unicode hex="0061"/>
  <outline>
    <contour>
      <point x="158" y="4" type="qcurve"/>
      <point x="138" y="6"/>
      <point x="95" y="31"/>
      <point x="59" y="66"/>
      <point x="34" y="105"/>
      <point x="33" y="122" type="qcurve"/>
      <point x="34" y="122"/>
      <point x="41" y="142"/>
      <point x="57" y="172"/>
      <point x="83" y="208"/>
      <point x="125" y="238"/>
      <point x="185" y="258"/>
      <point x="225" y="258" type="qcurve"/>
      <point x="229" y="258" type="line"/>
      <point x="229" y="270" type="line"/>
      <point x="229" y="340"/>
      <point x="200" y="396"/>
      <point x="174" y="396" type="qcurve"/>
      <point x="163" y="396"/>
      <point x="135" y="388"/>
      <point x="121" y="384" type="qcurve"/>
      <point x="83" y="373" type="line"/>
      <point x="77" y="389" type="line"/>
      <point x="90" y="404"/>
      <point x="123" y="436"/>
      <point x="157" y="462"/>
      <point x="189" y="479"/>
      <point x="203" y="479" type="qcurve"/>
      <point x="219" y="477"/>
      <point x="267" y="452"/>
      <point x="315" y="417"/>
      <point x="352" y="377"/>
      <point x="356" y="361" type="qcurve"/>
      <point x="358" y="356"/>
      <point x="358" y="350"/>
      <point x="358" y="347" type="qcurve"/>
      <point x="358" y="334"/>
      <point x="356" y="302"/>
      <point x="354" y="270"/>
      <point x="352" y="241"/>
      <point x="352" y="230" type="qcurve"/>
      <point x="352" y="191"/>
      <point x="358" y="141"/>
      <point x="368" y="110"/>
      <point x="378" y="92"/>
      <point x="383" y="86" type="qcurve"/>
      <point x="387" y="81" type="line"/>
      <point x="392" y="75"/>
      <point x="400" y="71"/>
      <point x="405" y="68" type="qcurve" name="hr01"/>
      <point x="400" y="57"/>
      <point x="363" y="16"/>
      <point x="324" y="-10" type="qcurve"/>
      <point x="308" y="-2"/>
      <point x="286" y="11"/>
      <point x="268" y="27"/>
      <point x="255" y="48"/>
      <point x="248" y="63" type="qcurve"/>
      <point x="225" y="38"/>
      <point x="178" y="4"/>
    </contour>
    <contour>
      <point x="245" y="117" type="qcurve"/>
      <point x="240" y="125"/>
      <point x="234" y="149"/>
      <point x="232" y="170" type="qcurve"/>
      <point x="231" y="178"/>
      <point x="230" y="194"/>
      <point x="230" y="200" type="qcurve"/>
      <point x="230" y="214" type="line"/>
      <point x="225" y="215"/>
      <point x="212" y="216"/>
      <point x="208" y="216" type="qcurve"/>
      <point x="195" y="216"/>
      <point x="177" y="209"/>
      <point x="170" y="204" type="qcurve"/>
      <point x="162" y="199"/>
      <point x="156" y="193" type="qcurve"/>
      <point x="157" y="177"/>
      <point x="167" y="145"/>
      <point x="182" y="120"/>
      <point x="202" y="105"/>
      <point x="213" y="105" type="qcurve"/>
      <point x="218" y="105"/>
    </contour>
  </outline>
</glyph>
<glyph name="b" format="1">
  <advance width="442"/>
  <unicode hex="0062"/>
  <outline>
    <contour>
      <point x="45" y="0" type="line"/>
      <point x="46" y="10"/>
      <point x="49" y="83"/>
      <point x="52" y="183"/>
      <point x="54" y="297"/>
      <point x="55" y="400"/>
      <point x="56" y="480"/>
      <point x="56" y="496" type="qcurve"/>
      <point x="56" y="515"/>
      <point x="56" y="557"/>
      <point x="54" y="593"/>
      <point x="51" y="621"/>
      <point x="48" y="627" type="qcurve"/>
      <point x="117" y="723" type="line"/>
      <point x="151" y="723"/>
      <point x="169" y="662"/>
      <point x="169" y="601" type="qcurve"/>
      <point x="169" y="518" type="line"/>
      <point x="169" y="502"/>
      <point x="169" y="479"/>
      <point x="168" y="456"/>
      <point x="168" y="428"/>
      <point x="168" y="407" type="qcurve"/>
      <point x="182" y="420"/>
      <point x="211" y="442"/>
      <point x="238" y="459"/>
      <point x="260" y="469"/>
      <point x="266" y="469" type="qcurve"/>
      <point x="305" y="469"/>
      <point x="362" y="427"/>
      <point x="399" y="362"/>
      <point x="417" y="286"/>
      <point x="417" y="252" type="qcurve"/>
      <point x="417" y="223"/>
      <point x="410" y="196" type="qcurve"/>
      <point x="408" y="184"/>
      <point x="386" y="146"/>
      <point x="353" y="102"/>
      <point x="313" y="57"/>
      <point x="272" y="20"/>
      <point x="233" y="-3"/>
      <point x="219" y="-3" type="qcurve" name="hr01"/>
      <point x="218" y="-3"/>
      <point x="224" y="-2"/>
      <point x="226" y="-2" type="qcurve" name="hr02"/>
      <point x="207" y="1"/>
      <point x="166" y="22"/>
      <point x="146" y="37" type="qcurve"/>
      <point x="131" y="3" type="line"/>
    </contour>
    <contour>
      <point x="188" y="345" type="line"/>
      <point x="186" y="343"/>
      <point x="170" y="326"/>
      <point x="167" y="320" type="qcurve"/>
      <point x="167" y="201" type="line"/>
      <point x="174" y="178"/>
      <point x="196" y="140"/>
      <point x="224" y="112"/>
      <point x="254" y="97"/>
      <point x="269" y="97" type="qcurve"/>
      <point x="274" y="97"/>
      <point x="291" y="106"/>
      <point x="298" y="114" type="qcurve"/>
      <point x="312" y="141"/>
      <point x="312" y="190" type="qcurve"/>
      <point x="312" y="221"/>
      <point x="298" y="283"/>
      <point x="274" y="333"/>
      <point x="242" y="363"/>
      <point x="224" y="363" type="qcurve"/>
      <point x="220" y="363"/>
      <point x="205" y="356"/>
      <point x="197" y="351" type="qcurve"/>
    </contour>
  </outline>
</glyph>
<glyph name="c" format="1">
  <advance width="406"/>
  <unicode hex="0063"/>
  <outline>
    <contour>
      <point x="365" y="373" type="curve"/>
      <point x="363" y="368"/>
      <point x="322" y="313"/>
      <point x="291" y="290" type="curve"/>
      <point x="266" y="331"/>
      <point x="211" y="376"/>
      <point x="177" y="376" type="curve" smooth="yes"/>
      <point x="164" y="376"/>
      <point x="150" y="365"/>
      <point x="142" y="314" type="curve"/>
      <point x="141" y="302"/>
      <point x="140" y="290"/>
      <point x="140" y="279" type="curve" smooth="yes"/>
      <point x="140" y="149"/>
      <point x="196" y="93"/>
      <point x="252" y="93" type="curve" smooth="yes"/>
      <point x="279" y="93"/>
      <point x="313" y="115"/>
      <point x="347" y="157" type="curve"/>
      <point x="386" y="117" type="line"/>
      <point x="350" y="70"/>
      <point x="200" y="-4"/>
      <point x="177" y="-4" type="curve" smooth="yes"/>
      <point x="71" y="-4"/>
      <point x="25" y="125"/>
      <point x="25" y="221" type="curve" smooth="yes"/>
      <point x="25" y="241"/>
      <point x="28" y="260"/>
      <point x="31" y="277" type="curve"/>
      <point x="42" y="324"/>
      <point x="158" y="477"/>
      <point x="211" y="477" type="curve" smooth="yes"/>
      <point x="219" y="477" type="line"/>
      <point x="255" y="470"/>
      <point x="359" y="403"/>
    </contour>
    <contour>
      <point x="218" y="467" type="move" name="top"/>
    </contour>
    <contour>
      <point x="161" y="11" type="move" name="bottom"/>
    </contour>
  </outline>
</glyph>
<glyph name="d" format="1">
  <advance width="437"/>
  <unicode hex="0064"/>
  <outline>
    <contour>
      <point x="298" y="-6" type="line"/>
      <point x="275" y="58" type="line"/>
      <point x="246" y="30"/>
      <point x="206" y="-1"/>
      <point x="176" y="-4" type="curve"/>
      <point x="71" y="-1"/>
      <point x="25" y="115"/>
      <point x="25" y="207" type="curve" smooth="yes"/>
      <point x="25" y="228"/>
      <point x="27" y="249"/>
      <point x="31" y="267" type="curve" smooth="yes"/>
      <point x="40" y="314"/>
      <point x="158" y="466"/>
      <point x="208" y="466" type="curve" smooth="yes"/>
      <point x="218" y="466" type="line"/>
      <point x="235" y="461"/>
      <point x="254" y="449"/>
      <point x="273" y="437" type="curve"/>
      <point x="273" y="453"/>
      <point x="274" y="470"/>
      <point x="274" y="487" type="curve" smooth="yes"/>
      <point x="274" y="539"/>
      <point x="272" y="588"/>
      <point x="259" y="618" type="curve"/>
      <point x="331" y="717" type="line"/>
      <point x="385" y="717"/>
      <point x="390" y="663"/>
      <point x="390" y="476" type="curve" smooth="yes"/>
      <point x="390" y="-3" type="line"/>
    </contour>
    <contour>
      <point x="244" y="112" type="curve"/>
      <point x="255" y="119"/>
      <point x="268" y="129"/>
      <point x="273" y="149" type="curve"/>
      <point x="274" y="176"/>
      <point x="275" y="219"/>
      <point x="275" y="247" type="curve"/>
      <point x="259" y="312"/>
      <point x="211" y="365"/>
      <point x="171" y="365" type="curve" smooth="yes"/>
      <point x="163" y="365"/>
      <point x="152" y="360"/>
      <point x="142" y="348" type="curve"/>
      <point x="133" y="329"/>
      <point x="129" y="301"/>
      <point x="129" y="273" type="curve" smooth="yes"/>
      <point x="129" y="188"/>
      <point x="167" y="99"/>
      <point x="216" y="99" type="curve" smooth="yes"/>
      <point x="220" y="99"/>
      <point x="231" y="104"/>
    </contour>
  </outline>
</glyph>
<glyph name="f" format="1">
  <advance width="325"/>
  <unicode hex="0066"/>
  <outline>
    <contour>
      <point x="270" y="542" type="line"/>
      <point x="288" y="556"/>
      <point x="289" y="560"/>
      <point x="293" y="576" type="curve"/>
      <point x="294" y="582"/>
      <point x="295" y="584"/>
      <point x="295" y="586" type="curve" smooth="yes"/>
      <point x="293" y="598"/>
      <point x="233" y="630"/>
      <point x="212" y="628" type="curve" smooth="yes"/>
      <point x="202" y="628"/>
      <point x="196" y="627"/>
      <point x="188" y="624" type="curve"/>
      <point x="202" y="573"/>
      <point x="201" y="523"/>
      <point x="206" y="471" type="curve"/>
      <point x="317" y="471" type="line"/>
      <point x="308" y="420" type="line"/>
      <point x="204" y="420" type="line"/>
      <point x="204" y="0" type="line"/>
      <point x="81" y="0" type="line"/>
      <point x="89" y="74"/>
      <point x="91" y="157"/>
      <point x="91" y="229" type="curve" smooth="yes"/>
      <point x="91" y="335"/>
      <point x="86" y="417"/>
      <point x="86" y="417" type="curve"/>
      <point x="18" y="417" type="line"/>
      <point x="28" y="471" type="line"/>
      <point x="87" y="471" type="line"/>
      <point x="87" y="488"/>
      <point x="89" y="514"/>
      <point x="89" y="530" type="curve" smooth="yes"/>
      <point x="89" y="565"/>
      <point x="199" y="717"/>
      <point x="251" y="717" type="curve" smooth="yes"/>
      <point x="255" y="717" type="line" smooth="yes"/>
      <point x="288" y="716"/>
      <point x="364" y="662"/>
      <point x="394" y="614" type="curve"/>
      <point x="392" y="602"/>
      <point x="362" y="558"/>
      <point x="295" y="503" type="curve"/>
    </contour>
  </outline>
</glyph>
<glyph name="g" format="1">
  <advance width="521"/>
  <unicode hex="0067"/>
  <outline>
    <contour>
      <point x="209" y="124" type="qcurve"/>
      <point x="180" y="124"/>
      <point x="138" y="131"/>
      <point x="121" y="139" type="qcurve"/>
      <point x="125" y="107"/>
      <point x="221" y="64"/>
      <point x="304" y="62" type="qcurve"/>
      <point x="316" y="62"/>
      <point x="343" y="59"/>
      <point x="368" y="56"/>
      <point x="389" y="51"/>
      <point x="395" y="50" type="qcurve"/>
      <point x="426" y="42"/>
      <point x="464" y="16"/>
      <point x="485" y="-14"/>
      <point x="493" y="-46"/>
      <point x="493" y="-60" type="qcurve"/>
      <point x="493" y="-67" type="line"/>
      <point x="481" y="-90"/>
      <point x="428" y="-144"/>
      <point x="364" y="-189"/>
      <point x="299" y="-219"/>
      <point x="275" y="-219" type="qcurve"/>
      <point x="243" y="-219"/>
      <point x="158" y="-215"/>
      <point x="81" y="-194"/>
      <point x="28" y="-148"/>
      <point x="28" y="-107" type="qcurve"/>
      <point x="29" y="-97"/>
      <point x="45" y="-70"/>
      <point x="68" y="-41"/>
      <point x="94" y="-14"/>
      <point x="105" y="-5" type="qcurve"/>
      <point x="105" y="-4"/>
      <point x="113" y="-2"/>
      <point x="117" y="-2" type="qcurve"/>
      <point x="97" y="2"/>
      <point x="63" y="24"/>
      <point x="38" y="52"/>
      <point x="22" y="82"/>
      <point x="21" y="94" type="qcurve"/>
      <point x="21" y="99" type="line"/>
      <point x="21" y="115"/>
      <point x="56" y="151"/>
      <point x="82" y="166" type="qcurve" name="hr01"/>
      <point x="59" y="192"/>
      <point x="49" y="248"/>
      <point x="49" y="277" type="qcurve"/>
      <point x="49" y="305" type="line"/>
      <point x="49" y="323"/>
      <point x="96" y="379"/>
      <point x="161" y="432"/>
      <point x="228" y="471"/>
      <point x="249" y="471" type="qcurve"/>
      <point x="292" y="471"/>
      <point x="351" y="452"/>
      <point x="370" y="436" type="qcurve"/>
      <point x="384" y="442" type="line"/>
      <point x="400" y="450"/>
      <point x="442" y="464"/>
      <point x="463" y="464" type="qcurve"/>
      <point x="476" y="464"/>
      <point x="499" y="457"/>
      <point x="509" y="448" type="qcurve"/>
      <point x="509" y="446"/>
      <point x="511" y="421"/>
      <point x="511" y="404" type="qcurve" name="hr02"/>
      <point x="511" y="398"/>
      <point x="508" y="377"/>
      <point x="503" y="362" type="qcurve"/>
      <point x="455" y="386"/>
      <point x="427" y="386" type="qcurve"/>
      <point x="422" y="386"/>
      <point x="411" y="385"/>
      <point x="405" y="384" type="qcurve"/>
      <point x="413" y="361"/>
      <point x="413" y="330" type="qcurve"/>
      <point x="413" y="310"/>
      <point x="410" y="288" type="qcurve"/>
      <point x="409" y="276"/>
      <point x="386" y="243"/>
      <point x="351" y="207"/>
      <point x="308" y="171"/>
      <point x="264" y="142"/>
      <point x="223" y="124"/>
    </contour>
    <contour>
      <point x="152" y="-12" type="qcurve"/>
      <point x="146" y="-20"/>
      <point x="141" y="-41"/>
      <point x="141" y="-53" type="qcurve"/>
      <point x="141" y="-73"/>
      <point x="164" y="-107"/>
      <point x="201" y="-133"/>
      <point x="249" y="-147"/>
      <point x="275" y="-147" type="qcurve"/>
      <point x="284" y="-147"/>
      <point x="310" y="-145"/>
      <point x="337" y="-142"/>
      <point x="360" y="-136"/>
      <point x="365" y="-133" type="qcurve"/>
      <point x="382" y="-110"/>
      <point x="382" y="-85" type="qcurve"/>
      <point x="382" y="-65"/>
      <point x="356" y="-34"/>
      <point x="314" y="-13"/>
      <point x="262" y="-2"/>
      <point x="236" y="-2" type="qcurve"/>
      <point x="227" y="-2"/>
      <point x="202" y="-3"/>
      <point x="177" y="-6"/>
      <point x="156" y="-9"/>
    </contour>
    <contour>
      <point x="272" y="193" type="qcurve"/>
      <point x="278" y="208"/>
      <point x="283" y="245"/>
      <point x="283" y="265" type="qcurve" name="hr03"/>
      <point x="283" y="291"/>
      <point x="274" y="342"/>
      <point x="257" y="383"/>
      <point x="231" y="408"/>
      <point x="213" y="408" type="qcurve"/>
      <point x="206" y="408"/>
      <point x="188" y="401"/>
      <point x="180" y="393" type="qcurve"/>
      <point x="171" y="378"/>
      <point x="163" y="339"/>
      <point x="163" y="319" type="qcurve"/>
      <point x="163" y="293"/>
      <point x="176" y="244"/>
      <point x="198" y="207"/>
      <point x="230" y="184"/>
      <point x="248" y="184" type="qcurve"/>
      <point x="255" y="184"/>
      <point x="269" y="188"/>
    </contour>
  </outline>
</glyph>
<glyph name="h" format="1">
  <advance width="465"/>
  <unicode hex="0068"/>
  <outline>
    <contour>
      <point x="45" y="0" type="line"/>
      <point x="51" y="42"/>
      <point x="56" y="433"/>
      <point x="56" y="496" type="curve" smooth="yes"/>
      <point x="56" y="548"/>
      <point x="56" y="610"/>
      <point x="48" y="627" type="curve"/>
      <point x="117" y="723" type="line"/>
      <point x="167" y="723"/>
      <point x="167" y="673"/>
      <point x="167" y="489" type="curve" smooth="yes"/>
      <point x="167" y="440" type="line"/>
      <point x="193" y="459"/>
      <point x="224" y="472"/>
      <point x="258" y="472" type="curve" smooth="yes"/>
      <point x="292" y="472"/>
      <point x="413" y="404"/>
      <point x="415" y="325" type="curve"/>
      <point x="415" y="325"/>
      <point x="413" y="242"/>
      <point x="413" y="169" type="curve" smooth="yes"/>
      <point x="413" y="142"/>
      <point x="413" y="86"/>
      <point x="414" y="46" type="curve" smooth="yes"/>
      <point x="414" y="23"/>
      <point x="415" y="5"/>
      <point x="415" y="0" type="curve"/>
      <point x="292" y="0" type="line"/>
      <point x="297" y="37"/>
      <point x="301" y="146"/>
      <point x="301" y="186" type="curve" smooth="yes"/>
      <point x="301" y="284"/>
      <point x="280" y="366"/>
      <point x="218" y="381" type="curve"/>
      <point x="200" y="381" type="line" smooth="yes"/>
      <point x="186" y="381"/>
      <point x="170" y="377"/>
      <point x="167" y="370" type="curve"/>
      <point x="167" y="177" type="line" smooth="yes"/>
      <point x="167" y="115"/>
      <point x="167" y="55"/>
      <point x="168" y="2" type="curve"/>
    </contour>
    <contour>
      <point x="204" y="714" type="move" name="top"/>
    </contour>
  </outline>
</glyph>
<glyph name="i" format="1">
  <advance width="230"/>
  <unicode hex="0069"/>
  <outline>
    <contour>
      <point x="121" y="703" type="qcurve" name="hr00"/>
      <point x="140" y="703"/>
      <point x="162" y="693"/>
      <point x="172" y="677"/>
      <point x="175" y="658"/>
      <point x="175" y="650" type="qcurve"/>
      <point x="175" y="629"/>
      <point x="146" y="596"/>
      <point x="118" y="596" type="qcurve"/>
      <point x="89" y="596"/>
      <point x="53" y="629"/>
      <point x="53" y="650" type="qcurve"/>
      <point x="53" y="652"/>
      <point x="54" y="656"/>
      <point x="56" y="663" type="qcurve"/>
      <point x="59" y="682"/>
      <point x="99" y="703"/>
    </contour>
    <contour>
      <point x="56" y="0" type="line"/>
      <point x="58" y="16"/>
      <point x="62" y="78"/>
      <point x="65" y="150"/>
      <point x="67" y="220"/>
      <point x="67" y="244" type="qcurve"/>
      <point x="67" y="264"/>
      <point x="67" y="305"/>
      <point x="65" y="340"/>
      <point x="62" y="368"/>
      <point x="59" y="374" type="qcurve"/>
      <point x="128" y="472" type="line"/>
      <point x="147" y="472"/>
      <point x="168" y="453"/>
      <point x="177" y="415"/>
      <point x="179" y="359"/>
      <point x="179" y="322" type="qcurve"/>
      <point x="179" y="246" type="line"/>
      <point x="179" y="220"/>
      <point x="178" y="165"/>
      <point x="178" y="134" type="qcurve"/>
      <point x="178" y="103"/>
      <point x="178" y="38"/>
      <point x="179" y="2" type="qcurve"/>
    </contour>
  </outline>
</glyph>
<glyph name="j" format="1">
  <advance width="258"/>
  <unicode hex="006A"/>
  <outline>
    <contour>
      <point x="-122" y="-117" type="curve"/>
      <point x="-120" y="-112"/>
      <point x="-79" y="-59"/>
      <point x="-47" y="-34" type="curve"/>
      <point x="-24" y="-74"/>
      <point x="29" y="-119"/>
      <point x="61" y="-119" type="curve" smooth="yes"/>
      <point x="62" y="-119"/>
      <point x="69" y="-118"/>
      <point x="76" y="-117" type="curve"/>
      <point x="75" y="-87"/>
      <point x="75" y="-52"/>
      <point x="75" y="-16" type="curve" smooth="yes"/>
      <point x="75" y="93"/>
      <point x="77" y="213"/>
      <point x="77" y="254" type="curve" smooth="yes"/>
      <point x="77" y="307"/>
      <point x="77" y="367"/>
      <point x="69" y="384" type="curve"/>
      <point x="137" y="480"/>
      <point x="130" y="472"/>
      <point x="130" y="472" type="curve"/>
      <point x="181" y="472"/>
      <point x="193" y="374"/>
      <point x="193" y="239" type="curve" smooth="yes"/>
      <point x="193" y="191"/>
      <point x="193" y="171"/>
      <point x="192" y="151" type="curve" smooth="yes"/>
      <point x="191" y="131"/>
      <point x="190" y="102"/>
      <point x="190" y="47" type="curve" smooth="yes"/>
      <point x="190" y="33"/>
      <point x="191" y="19"/>
      <point x="191" y="5" type="curve" smooth="yes"/>
      <point x="191" y="-34" type="line" smooth="yes"/>
      <point x="191" y="-67"/>
      <point x="74" y="-220"/>
      <point x="21" y="-220" type="curve" smooth="yes"/>
      <point x="20" y="-220"/>
      <point x="16" y="-219"/>
      <point x="14" y="-219" type="curve" smooth="yes"/>
      <point x="-16" y="-213"/>
      <point x="-120" y="-145"/>
    </contour>
    <contour>
      <point x="123" y="703" type="curve" smooth="yes"/>
      <point x="174" y="703"/>
      <point x="187" y="672"/>
      <point x="187" y="650" type="curve" smooth="yes"/>
      <point x="187" y="622"/>
      <point x="157" y="596"/>
      <point x="120" y="596" type="curve" smooth="yes"/>
      <point x="81" y="596"/>
      <point x="55" y="622"/>
      <point x="55" y="650" type="curve" smooth="yes"/>
      <point x="55" y="652"/>
      <point x="55" y="654"/>
      <point x="58" y="663" type="curve"/>
      <point x="62" y="688"/>
      <point x="94" y="703"/>
    </contour>
    <contour>
      <point x="129" y="467" type="move" name="top"/>
    </contour>
  </outline>
</glyph>
<glyph name="k" format="1">
  <advance width="469"/>
  <unicode hex="006B"/>
  <outline>
    <contour>
      <point x="325" y="466" type="line" name="hr00"/>
      <point x="332" y="463"/>
      <point x="356" y="429"/>
      <point x="380" y="382"/>
      <point x="398" y="329"/>
      <point x="398" y="308" type="qcurve"/>
      <point x="331" y="301" type="line"/>
      <point x="329" y="315"/>
      <point x="325" y="338"/>
      <point x="323" y="343" type="qcurve"/>
      <point x="321" y="343"/>
      <point x="317" y="342"/>
      <point x="315" y="342" type="qcurve"/>
      <point x="260" y="279" type="line"/>
      <point x="334" y="184" type="line"/>
      <point x="350" y="159"/>
      <point x="382" y="117"/>
      <point x="387" y="115" type="qcurve"/>
      <point x="393" y="117"/>
      <point x="403" y="146"/>
      <point x="406" y="165" type="qcurve"/>
      <point x="474" y="150" type="line"/>
      <point x="472" y="131"/>
      <point x="453" y="87"/>
      <point x="431" y="47"/>
      <point x="408" y="15"/>
      <point x="402" y="8" type="qcurve"/>
      <point x="394" y="2"/>
      <point x="378" y="-2"/>
      <point x="371" y="-2" type="qcurve"/>
      <point x="345" y="-2"/>
      <point x="295" y="48"/>
      <point x="256" y="104" type="qcurve"/>
      <point x="248" y="115"/>
      <point x="237" y="133"/>
      <point x="224" y="152"/>
      <point x="208" y="175"/>
      <point x="196" y="191" type="qcurve"/>
      <point x="188" y="178"/>
      <point x="172" y="154"/>
      <point x="164" y="141" type="qcurve"/>
      <point x="166" y="105"/>
      <point x="167" y="33"/>
      <point x="168" y="2" type="qcurve"/>
      <point x="45" y="2" type="line"/>
      <point x="46" y="12"/>
      <point x="49" y="86"/>
      <point x="52" y="187"/>
      <point x="54" y="304"/>
      <point x="55" y="409"/>
      <point x="56" y="490"/>
      <point x="56" y="506" type="qcurve"/>
      <point x="56" y="525"/>
      <point x="56" y="567"/>
      <point x="54" y="603"/>
      <point x="51" y="631"/>
      <point x="48" y="637" type="qcurve"/>
      <point x="107" y="723" type="line"/>
      <point x="128" y="723"/>
      <point x="152" y="697"/>
      <point x="164" y="637"/>
      <point x="167" y="537"/>
      <point x="167" y="463" type="qcurve"/>
      <point x="167" y="322" type="line"/>
      <point x="186" y="344" type="line"/>
      <point x="209" y="371"/>
      <point x="246" y="415"/>
      <point x="277" y="448"/>
      <point x="303" y="466"/>
      <point x="316" y="466" type="qcurve"/>
    </contour>
  </outline>
</glyph>
<glyph name="l" format="1">
  <advance width="251"/>
  <unicode hex="006C"/>
  <outline>
    <contour>
      <point x="63" y="0" type="line" name="hr00"/>
      <point x="65" y="10"/>
      <point x="68" y="85"/>
      <point x="71" y="187"/>
      <point x="73" y="303"/>
      <point x="74" y="409"/>
      <point x="75" y="490"/>
      <point x="75" y="506" type="qcurve"/>
      <point x="75" y="525"/>
      <point x="75" y="567"/>
      <point x="73" y="603"/>
      <point x="69" y="631"/>
      <point x="66" y="637" type="qcurve"/>
      <point x="126" y="723" type="line"/>
      <point x="145" y="723"/>
      <point x="169" y="698"/>
      <point x="182" y="638"/>
      <point x="187" y="539"/>
      <point x="187" y="466" type="qcurve"/>
      <point x="187" y="312" type="line"/>
      <point x="187" y="272"/>
      <point x="186" y="194"/>
      <point x="186" y="156" type="qcurve"/>
      <point x="186" y="115"/>
      <point x="186" y="38"/>
      <point x="187" y="2" type="qcurve"/>
    </contour>
  </outline>
</glyph>
<glyph name="m" format="1">
  <advance width="740"/>
  <unicode hex="006D"/>
  <outline>
    <contour>
      <point x="55" y="0" type="line" name="hr00"/>
      <point x="57" y="16"/>
      <point x="61" y="78"/>
      <point x="64" y="150"/>
      <point x="66" y="220"/>
      <point x="66" y="244" type="qcurve"/>
      <point x="66" y="264"/>
      <point x="66" y="305"/>
      <point x="64" y="340"/>
      <point x="61" y="368"/>
      <point x="58" y="374" type="qcurve"/>
      <point x="127" y="472" type="line"/>
      <point x="173" y="472"/>
      <point x="182" y="428" type="qcurve"/>
      <point x="202" y="447"/>
      <point x="245" y="472"/>
      <point x="271" y="472" type="qcurve"/>
      <point x="286" y="472"/>
      <point x="323" y="460"/>
      <point x="359" y="441"/>
      <point x="392" y="418"/>
      <point x="404" y="408" type="qcurve"/>
      <point x="429" y="433"/>
      <point x="492" y="472"/>
      <point x="532" y="472" type="qcurve"/>
      <point x="551" y="472"/>
      <point x="607" y="448"/>
      <point x="660" y="408"/>
      <point x="698" y="355"/>
      <point x="699" y="325" type="qcurve"/>
      <point x="698" y="300"/>
      <point x="698" y="274" type="qcurve"/>
      <point x="697" y="251"/>
      <point x="697" y="196"/>
      <point x="697" y="169" type="qcurve"/>
      <point x="697" y="159"/>
      <point x="697" y="129"/>
      <point x="697" y="96"/>
      <point x="698" y="61"/>
      <point x="698" y="46" type="qcurve"/>
      <point x="698" y="29"/>
      <point x="699" y="4"/>
      <point x="699" y="0" type="qcurve"/>
      <point x="565" y="0" type="line"/>
      <point x="568" y="14"/>
      <point x="571" y="64"/>
      <point x="573" y="120"/>
      <point x="574" y="171"/>
      <point x="574" y="186" type="qcurve"/>
      <point x="574" y="223"/>
      <point x="566" y="289"/>
      <point x="547" y="341"/>
      <point x="515" y="376"/>
      <point x="491" y="381" type="qcurve"/>
      <point x="475" y="381" type="line"/>
      <point x="462" y="381"/>
      <point x="440" y="374"/>
      <point x="435" y="367" type="qcurve"/>
      <point x="441" y="346"/>
      <point x="444" y="277"/>
      <point x="444" y="241" type="qcurve"/>
      <point x="444" y="169" type="line"/>
      <point x="444" y="153"/>
      <point x="444" y="100"/>
      <point x="444" y="47"/>
      <point x="445" y="5"/>
      <point x="446" y="0" type="qcurve"/>
      <point x="311" y="0" type="line"/>
      <point x="313" y="14"/>
      <point x="317" y="64"/>
      <point x="319" y="120"/>
      <point x="320" y="171"/>
      <point x="320" y="186" type="qcurve"/>
      <point x="320" y="222"/>
      <point x="314" y="288"/>
      <point x="294" y="340"/>
      <point x="259" y="373"/>
      <point x="230" y="376" type="qcurve"/>
      <point x="226" y="376" type="line"/>
      <point x="215" y="376"/>
      <point x="193" y="363"/>
      <point x="187" y="353" type="qcurve"/>
      <point x="187" y="2" type="line"/>
    </contour>
  </outline>
</glyph>
<glyph name="n" format="1">
  <advance width="495"/>
  <unicode hex="006E"/>
  <outline>
    <contour>
      <point x="54" y="0" type="line" name="hr00"/>
      <point x="56" y="16"/>
      <point x="60" y="78"/>
      <point x="63" y="150"/>
      <point x="65" y="220"/>
      <point x="65" y="244" type="qcurve"/>
      <point x="65" y="264"/>
      <point x="65" y="305"/>
      <point x="63" y="340"/>
      <point x="60" y="368"/>
      <point x="57" y="374" type="qcurve"/>
      <point x="126" y="472" type="line"/>
      <point x="172" y="472"/>
      <point x="181" y="428" type="qcurve"/>
      <point x="201" y="447"/>
      <point x="244" y="472"/>
      <point x="270" y="472" type="qcurve"/>
      <point x="291" y="472"/>
      <point x="345" y="448"/>
      <point x="394" y="417"/>
      <point x="428" y="387"/>
      <point x="428" y="381" type="qcurve"/>
      <point x="437" y="367"/>
      <point x="443" y="286"/>
      <point x="443" y="241" type="qcurve"/>
      <point x="443" y="169" type="line"/>
      <point x="443" y="153"/>
      <point x="443" y="100"/>
      <point x="443" y="47"/>
      <point x="444" y="5"/>
      <point x="445" y="0" type="qcurve"/>
      <point x="310" y="0" type="line"/>
      <point x="312" y="14"/>
      <point x="316" y="64"/>
      <point x="318" y="120"/>
      <point x="319" y="171"/>
      <point x="319" y="186" type="qcurve"/>
      <point x="319" y="222"/>
      <point x="313" y="288"/>
      <point x="293" y="340"/>
      <point x="258" y="373"/>
      <point x="229" y="376" type="qcurve"/>
      <point x="225" y="376" type="line"/>
      <point x="214" y="376"/>
      <point x="192" y="363"/>
      <point x="186" y="353" type="qcurve"/>
      <point x="186" y="2" type="line"/>
    </contour>
  </outline>
</glyph>
<glyph name="o" format="1">
  <advance width="456"/>
  <unicode hex="006F"/>
  <outline>
    <contour>
      <point x="294" y="109" type="qcurve" name="hr00"/>
      <point x="304" y="119"/>
      <point x="318" y="135"/>
      <point x="326" y="151"/>
      <point x="330" y="169"/>
      <point x="330" y="182" type="qcurve"/>
      <point x="330" y="221"/>
      <point x="314" y="296"/>
      <point x="285" y="355"/>
      <point x="246" y="391"/>
      <point x="223" y="391" type="qcurve"/>
      <point x="214" y="391"/>
      <point x="175" y="382"/>
      <point x="160" y="371" type="qcurve"/>
      <point x="144" y="357"/>
      <point x="128" y="309"/>
      <point x="128" y="280" type="qcurve"/>
      <point x="128" y="242"/>
      <point x="146" y="171"/>
      <point x="176" y="117"/>
      <point x="217" y="84"/>
      <point x="241" y="84" type="qcurve"/>
      <point x="244" y="84"/>
      <point x="258" y="89"/>
      <point x="274" y="96"/>
      <point x="289" y="105"/>
    </contour>
    <contour>
      <point x="209" y="-4" type="qcurve"/>
      <point x="144" y="-4"/>
      <point x="70" y="41"/>
      <point x="34" y="115"/>
      <point x="25" y="207"/>
      <point x="25" y="255" type="qcurve"/>
      <point x="25" y="270"/>
      <point x="49" y="315"/>
      <point x="86" y="365"/>
      <point x="134" y="415"/>
      <point x="183" y="455"/>
      <point x="227" y="480"/>
      <point x="243" y="480" type="qcurve"/>
      <point x="299" y="480"/>
      <point x="372" y="447"/>
      <point x="414" y="391"/>
      <point x="431" y="317"/>
      <point x="431" y="277" type="qcurve"/>
      <point x="431" y="263"/>
      <point x="430" y="233"/>
      <point x="428" y="220" type="qcurve"/>
      <point x="427" y="204"/>
      <point x="402" y="159"/>
      <point x="364" y="109"/>
      <point x="316" y="60"/>
      <point x="268" y="20"/>
      <point x="224" y="-4"/>
    </contour>
  </outline>
</glyph>
<glyph name="p" format="1">
  <advance width="442"/>
  <unicode hex="0070"/>
  <outline>
    <contour>
      <point x="46" y="-216" type="line"/>
      <point x="47" y="-206"/>
      <point x="50" y="-139"/>
      <point x="52" y="-47"/>
      <point x="54" y="58"/>
      <point x="55" y="153"/>
      <point x="56" y="228"/>
      <point x="56" y="244" type="qcurve"/>
      <point x="56" y="264"/>
      <point x="56" y="305"/>
      <point x="54" y="340"/>
      <point x="51" y="368"/>
      <point x="48" y="374" type="qcurve"/>
      <point x="117" y="472" type="line"/>
      <point x="137" y="472"/>
      <point x="163" y="438"/>
      <point x="169" y="408" type="qcurve"/>
      <point x="182" y="421"/>
      <point x="211" y="443"/>
      <point x="238" y="459"/>
      <point x="260" y="469"/>
      <point x="266" y="469" type="qcurve"/>
      <point x="305" y="469"/>
      <point x="362" y="427"/>
      <point x="399" y="362"/>
      <point x="417" y="286"/>
      <point x="417" y="252" type="qcurve"/>
      <point x="417" y="223"/>
      <point x="410" y="196" type="qcurve"/>
      <point x="408" y="184"/>
      <point x="387" y="146"/>
      <point x="356" y="101"/>
      <point x="319" y="56"/>
      <point x="281" y="19"/>
      <point x="245" y="-4"/>
      <point x="232" y="-4" type="qcurve"/>
      <point x="223" y="-4" type="line"/>
      <point x="208" y="0"/>
      <point x="180" y="15"/>
      <point x="167" y="25" type="qcurve"/>
      <point x="167" y="-49"/>
      <point x="172" y="-136"/>
      <point x="174" y="-165" type="qcurve"/>
      <point x="174" y="-167"/>
      <point x="175" y="-171"/>
      <point x="175" y="-173" type="qcurve"/>
      <point x="176" y="-185"/>
      <point x="178" y="-205"/>
      <point x="178" y="-214" type="qcurve"/>
    </contour>
    <contour>
      <point x="197" y="351" type="qcurve"/>
      <point x="184" y="343"/>
      <point x="168" y="322"/>
      <point x="167" y="308" type="qcurve"/>
      <point x="167" y="207" type="line"/>
      <point x="180" y="160"/>
      <point x="239" y="98"/>
      <point x="269" y="98" type="qcurve"/>
      <point x="275" y="98"/>
      <point x="291" y="106"/>
      <point x="298" y="114" type="qcurve" name="hr01"/>
      <point x="312" y="143"/>
      <point x="312" y="190" type="qcurve"/>
      <point x="312" y="221"/>
      <point x="299" y="283"/>
      <point x="275" y="333"/>
      <point x="243" y="363"/>
      <point x="224" y="363" type="qcurve"/>
      <point x="221" y="363"/>
      <point x="206" y="356"/>
    </contour>
  </outline>
</glyph>
<glyph name="q" format="1">
  <advance width="439"/>
  <unicode hex="0071"/>
  <outline>
    <contour>
      <point x="397" y="464" type="line"/>
      <point x="392" y="424"/>
      <point x="385" y="74"/>
      <point x="385" y="12" type="curve" smooth="yes"/>
      <point x="385" y="-28" type="line" smooth="yes"/>
      <point x="385" y="-66"/>
      <point x="385" y="-104"/>
      <point x="390" y="-118" type="curve"/>
      <point x="398" y="-112"/>
      <point x="406" y="-103"/>
      <point x="414" y="-93" type="curve" smooth="yes"/>
      <point x="414" y="-91"/>
      <point x="419" y="-85"/>
      <point x="421" y="-85" type="curve" smooth="yes"/>
      <point x="423" y="-85"/>
      <point x="427" y="-89"/>
      <point x="439" y="-103" type="curve"/>
      <point x="459" y="-124" type="line"/>
      <point x="428" y="-168"/>
      <point x="334" y="-213"/>
      <point x="308" y="-217" type="curve"/>
      <point x="278" y="-217"/>
      <point x="270" y="-208"/>
      <point x="270" y="-171" type="curve" smooth="yes"/>
      <point x="270" y="-158"/>
      <point x="270" y="-142"/>
      <point x="271" y="-121" type="curve" smooth="yes"/>
      <point x="272" y="-90"/>
      <point x="272" y="-39"/>
      <point x="272" y="12" type="curve" smooth="yes"/>
      <point x="272" y="53" type="line"/>
      <point x="244" y="26"/>
      <point x="206" y="-2"/>
      <point x="177" y="-4" type="curve"/>
      <point x="71" y="-1"/>
      <point x="25" y="119"/>
      <point x="25" y="212" type="curve" smooth="yes"/>
      <point x="25" y="232"/>
      <point x="28" y="250"/>
      <point x="31" y="267" type="curve"/>
      <point x="42" y="314"/>
      <point x="158" y="466"/>
      <point x="211" y="466" type="curve" smooth="yes"/>
      <point x="220" y="466" type="line"/>
      <point x="242" y="460"/>
      <point x="270" y="444"/>
      <point x="296" y="424" type="curve"/>
      <point x="311" y="459" type="line"/>
    </contour>
    <contour>
      <point x="248" y="112" type="curve"/>
      <point x="262" y="119"/>
      <point x="271" y="131"/>
      <point x="275" y="146" type="curve"/>
      <point x="275" y="256" type="line"/>
      <point x="259" y="319"/>
      <point x="214" y="365"/>
      <point x="173" y="365" type="curve" smooth="yes"/>
      <point x="165" y="365"/>
      <point x="154" y="360"/>
      <point x="144" y="348" type="curve"/>
      <point x="135" y="328"/>
      <point x="131" y="302"/>
      <point x="131" y="273" type="curve" smooth="yes"/>
      <point x="131" y="188"/>
      <point x="169" y="99"/>
      <point x="218" y="99" type="curve" smooth="yes"/>
      <point x="222" y="99"/>
      <point x="233" y="104"/>
    </contour>
  </outline>
</glyph>
<glyph name="r" format="1">
  <advance width="380"/>
  <unicode hex="0072"/>
  <outline>
    <contour>
      <point x="53" y="0" type="line" name="hr00"/>
      <point x="56" y="16"/>
      <point x="60" y="78"/>
      <point x="63" y="150"/>
      <point x="65" y="220"/>
      <point x="65" y="244" type="qcurve"/>
      <point x="65" y="264"/>
      <point x="65" y="305"/>
      <point x="63" y="340"/>
      <point x="59" y="368"/>
      <point x="56" y="374" type="qcurve"/>
      <point x="126" y="472" type="line"/>
      <point x="174" y="472"/>
      <point x="183" y="426" type="qcurve"/>
      <point x="201" y="444"/>
      <point x="237" y="466"/>
      <point x="252" y="466" type="qcurve"/>
      <point x="275" y="463"/>
      <point x="316" y="443"/>
      <point x="347" y="420"/>
      <point x="365" y="401"/>
      <point x="365" y="398" type="qcurve"/>
      <point x="363" y="394" type="line"/>
      <point x="359" y="385"/>
      <point x="347" y="365"/>
      <point x="326" y="338"/>
      <point x="293" y="304"/>
      <point x="267" y="280" type="qcurve"/>
      <point x="240" y="321" type="line"/>
      <point x="249" y="329"/>
      <point x="258" y="345"/>
      <point x="260" y="356" type="qcurve"/>
      <point x="260" y="364" type="line"/>
      <point x="245" y="386"/>
      <point x="233" y="386" type="qcurve"/>
      <point x="223" y="386"/>
      <point x="197" y="367"/>
      <point x="186" y="352" type="qcurve"/>
      <point x="186" y="246" type="line"/>
      <point x="186" y="225"/>
      <point x="185" y="179"/>
      <point x="185" y="154" type="qcurve"/>
      <point x="185" y="2" type="line"/>
    </contour>
  </outline>
</glyph>
<glyph name="t" format="1">
  <advance width="396"/>
  <unicode hex="0074"/>
  <outline>
    <contour>
      <point x="49" y="446" type="line"/>
      <point x="104" y="446" type="line"/>
      <point x="104" y="593" type="line"/>
      <point x="228" y="593" type="line"/>
      <point x="220" y="446" type="line"/>
      <point x="378" y="446" type="line"/>
      <point x="371" y="393" type="line"/>
      <point x="219" y="393" type="line"/>
      <point x="218" y="379"/>
      <point x="218" y="345"/>
      <point x="218" y="331" type="qcurve"/>
      <point x="218" y="320" type="line"/>
      <point x="218" y="309"/>
      <point x="218" y="279"/>
      <point x="219" y="245"/>
      <point x="220" y="210"/>
      <point x="220" y="195" type="qcurve"/>
      <point x="220" y="178"/>
      <point x="221" y="155"/>
      <point x="221" y="151" type="qcurve"/>
      <point x="221" y="119"/>
      <point x="225" y="107" type="qcurve"/>
      <point x="228" y="98"/>
      <point x="241" y="88"/>
      <point x="240" y="88" type="qcurve"/>
      <point x="270" y="94"/>
      <point x="319" y="129"/>
      <point x="330" y="139" type="qcurve"/>
      <point x="330" y="139"/>
      <point x="332" y="138"/>
      <point x="339" y="132"/>
      <point x="353" y="117"/>
      <point x="366" y="104" type="qcurve"/>
      <point x="347" y="85"/>
      <point x="288" y="47"/>
      <point x="230" y="16"/>
      <point x="181" y="-4"/>
      <point x="172" y="-4" type="qcurve"/>
      <point x="151" y="-4"/>
      <point x="126" y="11"/>
      <point x="111" y="35"/>
      <point x="106" y="68"/>
      <point x="106" y="86" type="qcurve"/>
      <point x="106" y="166"/>
      <point x="105" y="260"/>
      <point x="104" y="292" type="qcurve" name="hr01"/>
      <point x="103" y="309"/>
      <point x="103" y="348"/>
      <point x="103" y="364" type="qcurve"/>
      <point x="103" y="393" type="line" name="hr02"/>
      <point x="41" y="393" type="line"/>
    </contour>
  </outline>
</glyph>
<glyph name="u" format="1">
  <advance width="428"/>
  <unicode hex="0075"/>
  <outline>
    <contour>
      <point x="392" y="467" type="line" name="hr00"/>
      <point x="389" y="449"/>
      <point x="385" y="386"/>
      <point x="381" y="315"/>
      <point x="379" y="247"/>
      <point x="379" y="224" type="qcurve"/>
      <point x="379" y="205"/>
      <point x="381" y="136"/>
      <point x="384" y="66"/>
      <point x="389" y="9"/>
      <point x="393" y="1" type="qcurve"/>
      <point x="314" y="-4" type="line"/>
      <point x="293" y="-4"/>
      <point x="273" y="18"/>
      <point x="270" y="43" type="qcurve"/>
      <point x="249" y="24"/>
      <point x="201" y="-4"/>
      <point x="180" y="-4" type="qcurve"/>
      <point x="158" y="-4"/>
      <point x="113" y="19"/>
      <point x="76" y="50"/>
      <point x="52" y="80"/>
      <point x="52" y="87" type="qcurve"/>
      <point x="47" y="93"/>
      <point x="41" y="122"/>
      <point x="38" y="160"/>
      <point x="37" y="204"/>
      <point x="37" y="227" type="qcurve"/>
      <point x="37" y="296" type="line"/>
      <point x="37" y="313"/>
      <point x="37" y="360"/>
      <point x="37" y="405"/>
      <point x="36" y="440"/>
      <point x="35" y="445" type="qcurve"/>
      <point x="167" y="454" type="line"/>
      <point x="160" y="390"/>
      <point x="158" y="263"/>
      <point x="158" y="201" type="qcurve"/>
      <point x="158" y="178"/>
      <point x="162" y="139"/>
      <point x="177" y="110"/>
      <point x="203" y="92"/>
      <point x="226" y="91" type="qcurve"/>
      <point x="234" y="91"/>
      <point x="258" y="108"/>
      <point x="266" y="119" type="qcurve"/>
      <point x="266" y="136"/>
      <point x="267" y="172"/>
      <point x="267" y="193" type="qcurve"/>
      <point x="268" y="219"/>
      <point x="268" y="280"/>
      <point x="268" y="314" type="qcurve"/>
      <point x="268" y="343"/>
      <point x="268" y="407"/>
      <point x="266" y="443" type="qcurve"/>
    </contour>
  </outline>
</glyph>
<glyph name="v" format="1">
  <advance width="441"/>
  <unicode hex="0076"/>
  <outline>
    <contour>
      <point x="202" y="-4" type="line"/>
      <point x="190" y="55"/>
      <point x="145" y="183"/>
      <point x="124" y="237" type="curve"/>
      <point x="116" y="259" type="line" smooth="yes"/>
      <point x="98" y="304"/>
      <point x="79" y="347"/>
      <point x="69" y="357" type="curve"/>
      <point x="65" y="358"/>
      <point x="46" y="317"/>
      <point x="44" y="311" type="curve"/>
      <point x="-10" y="346" type="line"/>
      <point x="9" y="396"/>
      <point x="87" y="461"/>
      <point x="112" y="470" type="curve"/>
      <point x="116" y="471"/>
      <point x="119" y="471"/>
      <point x="123" y="471" type="curve" smooth="yes"/>
      <point x="163" y="471"/>
      <point x="190" y="406"/>
      <point x="229" y="305" type="curve" smooth="yes"/>
      <point x="263" y="215" type="line"/>
      <point x="294" y="308" type="line"/>
      <point x="309" y="352"/>
      <point x="328" y="409"/>
      <point x="328" y="441" type="curve" smooth="yes"/>
      <point x="328" y="443"/>
      <point x="328" y="448"/>
      <point x="329" y="448" type="curve" smooth="yes"/>
      <point x="329" y="448"/>
      <point x="330" y="448"/>
      <point x="397" y="458" type="curve"/>
      <point x="415" y="451"/>
      <point x="424" y="444"/>
      <point x="424" y="436" type="curve" smooth="yes"/>
      <point x="424" y="416"/>
      <point x="411" y="381"/>
      <point x="387" y="317" type="curve" smooth="yes"/>
      <point x="368" y="266"/>
      <point x="343" y="196"/>
      <point x="312" y="99" type="curve"/>
      <point x="315" y="89"/>
      <point x="316" y="85"/>
      <point x="317" y="84" type="curve"/>
    </contour>
  </outline>
</glyph>
<glyph name="w" format="1">
  <advance width="655"/>
  <unicode hex="0077"/>
  <outline>
    <contour>
      <point x="432" y="-4" type="line" name="hr00"/>
      <point x="427" y="15"/>
      <point x="411" y="70"/>
      <point x="391" y="130"/>
      <point x="370" y="190"/>
      <point x="361" y="214" type="qcurve"/>
      <point x="352" y="189"/>
      <point x="331" y="130"/>
      <point x="320" y="94" type="qcurve"/>
      <point x="325" y="84" type="line"/>
      <point x="207" y="-4" type="line"/>
      <point x="202" y="18"/>
      <point x="184" y="82"/>
      <point x="161" y="151"/>
      <point x="139" y="215"/>
      <point x="130" y="236" type="qcurve"/>
      <point x="128" y="241" type="line"/>
      <point x="121" y="258"/>
      <point x="107" y="293"/>
      <point x="93" y="325"/>
      <point x="81" y="349"/>
      <point x="77" y="355" type="qcurve"/>
      <point x="72" y="350"/>
      <point x="61" y="326"/>
      <point x="56" y="309" type="qcurve"/>
      <point x="-1" y="346" type="line"/>
      <point x="6" y="366"/>
      <point x="42" y="408"/>
      <point x="81" y="444"/>
      <point x="116" y="467"/>
      <point x="124" y="469" type="qcurve"/>
      <point x="125" y="469"/>
      <point x="128" y="470"/>
      <point x="130" y="470" type="qcurve"/>
      <point x="133" y="470" type="line"/>
      <point x="161" y="470"/>
      <point x="208" y="380"/>
      <point x="237" y="305" type="qcurve"/>
      <point x="242" y="292"/>
      <point x="249" y="273"/>
      <point x="256" y="253"/>
      <point x="265" y="228"/>
      <point x="273" y="209" type="qcurve"/>
      <point x="297" y="273" type="line"/>
      <point x="303" y="292" type="line"/>
      <point x="305" y="296"/>
      <point x="308" y="310"/>
      <point x="313" y="321" type="qcurve"/>
      <point x="294" y="355" type="line"/>
      <point x="326" y="462" type="line"/>
      <point x="332" y="468"/>
      <point x="347" y="470"/>
      <point x="353" y="470" type="qcurve"/>
      <point x="383" y="470"/>
      <point x="424" y="390"/>
      <point x="453" y="315" type="qcurve"/>
      <point x="456" y="307" type="line"/>
      <point x="481" y="240" type="line"/>
      <point x="492" y="267" type="line"/>
      <point x="505" y="306" type="line"/>
      <point x="511" y="323"/>
      <point x="524" y="365"/>
      <point x="535" y="407"/>
      <point x="542" y="445"/>
      <point x="542" y="458" type="qcurve"/>
      <point x="542" y="463" type="line"/>
      <point x="608" y="473" type="line"/>
      <point x="638" y="465"/>
      <point x="638" y="450" type="qcurve"/>
      <point x="638" y="433"/>
      <point x="616" y="368"/>
      <point x="596" y="313" type="qcurve"/>
      <point x="593" y="304" type="line"/>
      <point x="580" y="268"/>
      <point x="548" y="179"/>
      <point x="529" y="122" type="qcurve"/>
      <point x="545" y="84" type="line"/>
    </contour>
  </outline>
</glyph>
<glyph name="x" format="1">
  <advance width="438"/>
  <unicode hex="0078"/>
  <outline>
    <contour>
      <point x="318" y="4" type="curve" smooth="yes"/>
      <point x="301" y="28"/>
      <point x="279" y="61"/>
      <point x="256" y="98" type="curve" smooth="yes"/>
      <point x="243" y="119"/>
      <point x="229" y="142"/>
      <point x="213" y="166" type="curve"/>
      <point x="211" y="163" type="line" smooth="yes"/>
      <point x="182" y="120"/>
      <point x="128" y="28"/>
      <point x="127" y="0" type="curve"/>
      <point x="20" y="0" type="line"/>
      <point x="21" y="23"/>
      <point x="65" y="83"/>
      <point x="116" y="153" type="curve" smooth="yes"/>
      <point x="131" y="173"/>
      <point x="151" y="203"/>
      <point x="170" y="230" type="curve"/>
      <point x="174" y="236" type="line"/>
      <point x="158" y="248" type="line"/>
      <point x="112" y="316"/>
      <point x="62" y="383"/>
      <point x="32" y="418" type="curve"/>
      <point x="79" y="472" type="line" smooth="yes"/>
      <point x="87" y="480"/>
      <point x="98" y="480"/>
      <point x="104" y="480" type="curve" smooth="yes"/>
      <point x="120" y="480"/>
      <point x="179" y="402"/>
      <point x="243" y="309" type="curve"/>
      <point x="274" y="358"/>
      <point x="306" y="419"/>
      <point x="316" y="463" type="curve"/>
      <point x="397" y="471" type="line"/>
      <point x="412" y="460"/>
      <point x="420" y="453"/>
      <point x="420" y="451" type="curve" smooth="yes"/>
      <point x="420" y="434"/>
      <point x="364" y="353"/>
      <point x="286" y="244" type="curve"/>
      <point x="363" y="129"/>
      <point x="433" y="14"/>
      <point x="433" y="5" type="curve" smooth="yes"/>
      <point x="433" y="5"/>
      <point x="433" y="4"/>
    </contour>
  </outline>
</glyph>
<glyph name="z" format="1">
  <advance width="457"/>
  <unicode hex="007A"/>
  <outline>
    <contour>
      <point x="244" y="398" type="line"/>
      <point x="229" y="403"/>
      <point x="217" y="404"/>
      <point x="208" y="404" type="curve" smooth="yes"/>
      <point x="162" y="402"/>
      <point x="147" y="358"/>
      <point x="140" y="337" type="curve" smooth="yes"/>
      <point x="140" y="336"/>
      <point x="139" y="335"/>
      <point x="139" y="334" type="curve" smooth="yes"/>
      <point x="137" y="330"/>
      <point x="137" y="325"/>
      <point x="137" y="323" type="curve"/>
      <point x="161" y="292" type="line"/>
      <point x="131" y="244" type="line"/>
      <point x="131" y="244"/>
      <point x="102" y="278"/>
      <point x="100" y="281" type="curve"/>
      <point x="94" y="287" type="line"/>
      <point x="64" y="318"/>
      <point x="32" y="351"/>
      <point x="32" y="366" type="curve" smooth="yes"/>
      <point x="32" y="407"/>
      <point x="135" y="475"/>
      <point x="177" y="475" type="curve" smooth="yes"/>
      <point x="205" y="475"/>
      <point x="248" y="459"/>
      <point x="274" y="449" type="curve"/>
      <point x="308" y="438"/>
      <point x="332" y="433"/>
      <point x="351" y="433" type="curve" smooth="yes"/>
      <point x="356" y="433"/>
      <point x="363" y="434"/>
      <point x="369" y="435" type="curve" smooth="yes"/>
      <point x="376" y="436"/>
      <point x="393" y="441"/>
      <point x="419" y="451" type="curve"/>
      <point x="423" y="364" type="line"/>
      <point x="386" y="372" type="line"/>
      <point x="375" y="349"/>
      <point x="349" y="303"/>
      <point x="322" y="254" type="curve" smooth="yes"/>
      <point x="293" y="202"/>
      <point x="259" y="138"/>
      <point x="218" y="59" type="curve"/>
      <point x="258" y="63"/>
      <point x="311" y="70"/>
      <point x="354" y="75" type="curve" smooth="yes"/>
      <point x="386" y="79"/>
      <point x="416" y="82"/>
      <point x="442" y="82" type="curve"/>
      <point x="409" y="-1" type="line"/>
      <point x="384" y="0"/>
      <point x="341" y="1"/>
      <point x="317" y="1" type="curve" smooth="yes"/>
      <point x="283" y="1"/>
      <point x="250" y="0"/>
      <point x="220" y="0" type="curve" smooth="yes"/>
      <point x="148" y="0" type="line" smooth="yes"/>
      <point x="74" y="0"/>
      <point x="26" y="1"/>
      <point x="26" y="9" type="curve"/>
      <point x="81" y="66" type="line"/>
      <point x="106" y="96"/>
      <point x="178" y="221"/>
      <point x="206" y="274" type="curve" smooth="yes"/>
      <point x="225" y="312" type="line"/>
      <point x="239" y="340"/>
      <point x="252" y="368"/>
      <point x="256" y="393" type="curve"/>
    </contour>
    <contour>
      <point x="252" y="467" type="move" name="top"/>
    </contour>
  </outline>
</glyph>
<glyph name="braceleft" format="1">
  <advance width="348"/>
  <unicode hex="007B"/>
  <outline>
    <contour>
      <point x="45" y="247" type="line" name="hr00"/>
      <point x="49" y="252" type="line"/>
      <point x="66" y="275"/>
      <point x="79" y="377"/>
      <point x="79" y="437" type="qcurve"/>
      <point x="79" y="466"/>
      <point x="76" y="524"/>
      <point x="71" y="575"/>
      <point x="66" y="618"/>
      <point x="63" y="633" type="qcurve"/>
      <point x="61" y="641"/>
      <point x="51" y="655"/>
      <point x="46" y="663" type="qcurve"/>
      <point x="109" y="664"/>
      <point x="177" y="664"/>
      <point x="179" y="664" type="qcurve"/>
      <point x="251" y="664"/>
      <point x="322" y="657"/>
      <point x="322" y="642" type="qcurve"/>
      <point x="261" y="602" type="line"/>
      <point x="238" y="614"/>
      <point x="196" y="620"/>
      <point x="178" y="621" type="qcurve"/>
      <point x="180" y="569"/>
      <point x="188" y="475"/>
      <point x="188" y="433" type="qcurve"/>
      <point x="188" y="376"/>
      <point x="154" y="283"/>
      <point x="105" y="243" type="qcurve"/>
      <point x="155" y="202"/>
      <point x="188" y="110"/>
      <point x="188" y="53" type="qcurve"/>
      <point x="188" y="11"/>
      <point x="180" y="-83"/>
      <point x="178" y="-134" type="qcurve"/>
      <point x="196" y="-133"/>
      <point x="238" y="-127"/>
      <point x="261" y="-115" type="qcurve"/>
      <point x="322" y="-156" type="line"/>
      <point x="322" y="-171"/>
      <point x="251" y="-178"/>
      <point x="179" y="-178" type="qcurve"/>
      <point x="47" y="-178" type="line"/>
      <point x="64" y="-148" type="line"/>
      <point x="67" y="-133"/>
      <point x="72" y="-90"/>
      <point x="76" y="-38"/>
      <point x="79" y="20"/>
      <point x="79" y="49" type="qcurve"/>
      <point x="79" y="82"/>
      <point x="75" y="145"/>
      <point x="66" y="198"/>
      <point x="52" y="236"/>
      <point x="41" y="245" type="qcurve"/>
    </contour>
  </outline>
</glyph>
<glyph name="bar" format="1">
  <advance width="237"/>
  <unicode hex="007C"/>
  <outline>
    <contour>
      <point x="74" y="-234" type="line"/>
      <point x="77" y="-214"/>
      <point x="77" y="41"/>
      <point x="77" y="253" type="curve" smooth="yes"/>
      <point x="77" y="538" type="line" smooth="yes"/>
      <point x="77" y="578"/>
      <point x="75" y="673"/>
      <point x="68" y="686" type="curve"/>
      <point x="118" y="713" type="line"/>
      <point x="158" y="713"/>
      <point x="168" y="519"/>
      <point x="168" y="299" type="curve" smooth="yes"/>
      <point x="168" y="159"/>
      <point x="166" y="15"/>
      <point x="166" y="-124" type="curve" smooth="yes"/>
      <point x="166" y="-169"/>
      <point x="166" y="-210"/>
      <point x="167" y="-242" type="curve"/>
    </contour>
  </outline>
</glyph>
<glyph name="braceright" format="1">
  <advance width="404"/>
  <unicode hex="007D"/>
  <outline>
    <contour>
      <point x="297" y="230" type="line" name="hr00"/>
      <point x="283" y="207"/>
      <point x="271" y="108"/>
      <point x="271" y="50" type="qcurve"/>
      <point x="271" y="20"/>
      <point x="274" y="-38"/>
      <point x="278" y="-90"/>
      <point x="283" y="-133"/>
      <point x="286" y="-148" type="qcurve"/>
      <point x="303" y="-178" type="line"/>
      <point x="172" y="-178" type="line"/>
      <point x="100" y="-178"/>
      <point x="29" y="-171"/>
      <point x="29" y="-156" type="qcurve"/>
      <point x="90" y="-115" type="line"/>
      <point x="111" y="-127"/>
      <point x="153" y="-133"/>
      <point x="172" y="-134" type="qcurve"/>
      <point x="170" y="-82"/>
      <point x="162" y="12"/>
      <point x="162" y="54" type="qcurve"/>
      <point x="162" y="110"/>
      <point x="194" y="202"/>
      <point x="244" y="243" type="qcurve"/>
      <point x="194" y="283"/>
      <point x="162" y="375"/>
      <point x="162" y="431" type="qcurve"/>
      <point x="162" y="473"/>
      <point x="170" y="569"/>
      <point x="172" y="621" type="qcurve"/>
      <point x="153" y="620"/>
      <point x="111" y="614"/>
      <point x="90" y="602" type="qcurve"/>
      <point x="29" y="642" type="line"/>
      <point x="29" y="657"/>
      <point x="100" y="664"/>
      <point x="172" y="664" type="qcurve"/>
      <point x="192" y="664"/>
      <point x="259" y="664"/>
      <point x="304" y="663" type="qcurve"/>
      <point x="285" y="633" type="line"/>
      <point x="283" y="618"/>
      <point x="278" y="574"/>
      <point x="274" y="522"/>
      <point x="271" y="463"/>
      <point x="271" y="433" type="qcurve"/>
      <point x="271" y="376"/>
      <point x="283" y="277"/>
      <point x="299" y="256" type="qcurve"/>
      <point x="310" y="243" type="line"/>
    </contour>
  </outline>
</glyph>
<glyph name="asciitilde" format="1">
  <advance width="495"/>
  <unicode hex="007E"/>
  <outline>
    <contour>
      <point x="206" y="276" type="line"/>
      <point x="220" y="275"/>
      <point x="252" y="254"/>
      <point x="280" y="230"/>
      <point x="299" y="211"/>
      <point x="299" y="211" type="qcurve"/>
      <point x="300" y="209"/>
      <point x="300" y="209" type="qcurve"/>
      <point x="300" y="208"/>
      <point x="301" y="208" type="qcurve"/>
      <point x="311" y="211"/>
      <point x="331" y="228"/>
      <point x="348" y="249"/>
      <point x="362" y="270"/>
      <point x="368" y="278" type="qcurve"/>
      <point x="379" y="278"/>
      <point x="396" y="274"/>
      <point x="401" y="272" type="qcurve"/>
      <point x="407" y="269"/>
      <point x="411" y="266" type="qcurve"/>
      <point x="408" y="214" type="line"/>
      <point x="393" y="197"/>
      <point x="365" y="171"/>
      <point x="335" y="155"/>
      <point x="302" y="147"/>
      <point x="281" y="147" type="qcurve"/>
      <point x="268" y="147"/>
      <point x="243" y="164"/>
      <point x="231" y="175" type="qcurve"/>
      <point x="224" y="181"/>
      <point x="210" y="195"/>
      <point x="198" y="206"/>
      <point x="191" y="213"/>
      <point x="192" y="214" type="qcurve" name="hr01"/>
      <point x="186" y="213"/>
      <point x="167" y="192"/>
      <point x="142" y="167"/>
      <point x="115" y="147"/>
      <point x="102" y="147" type="qcurve"/>
      <point x="86" y="147"/>
      <point x="78" y="151"/>
      <point x="74" y="157" type="qcurve"/>
      <point x="77" y="209" type="line"/>
      <point x="86" y="218"/>
      <point x="111" y="241"/>
      <point x="141" y="262"/>
      <point x="177" y="276"/>
      <point x="197" y="276" type="qcurve" name="hr02"/>
    </contour>
  </outline>
</glyph>
<glyph name="exclamdown" format="1">
  <advance width="281"/>
  <unicode hex="00A1"/>
  <outline>
    <contour>
      <point x="185" y="248" type="line"/>
      <point x="198" y="178"/>
      <point x="206" y="58"/>
      <point x="206" y="-46" type="curve" smooth="yes"/>
      <point x="206" y="-162"/>
      <point x="190" y="-265"/>
      <point x="159" y="-265" type="curve" smooth="yes"/>
      <point x="122" y="-265"/>
      <point x="100" y="-206"/>
      <point x="78" y="-175" type="curve"/>
      <point x="86" y="-160"/>
      <point x="94" y="-113"/>
      <point x="94" y="-69" type="curve" smooth="yes"/>
      <point x="94" y="-20"/>
      <point x="89" y="149"/>
      <point x="85" y="181" type="curve"/>
    </contour>
    <contour>
      <point x="145" y="275" type="curve" smooth="yes"/>
      <point x="103" y="275"/>
      <point x="66" y="300"/>
      <point x="66" y="335" type="curve" smooth="yes"/>
      <point x="66" y="365"/>
      <point x="96" y="393"/>
      <point x="141" y="393" type="curve" smooth="yes"/>
      <point x="185" y="393"/>
      <point x="216" y="365"/>
      <point x="216" y="335" type="curve" smooth="yes"/>
      <point x="216" y="310"/>
      <point x="202" y="275"/>
    </contour>
  </outline>
</glyph>
<glyph name="cent" format="1">
  <advance width="369"/>
  <unicode hex="00A2"/>
  <outline>
    <contour>
      <point x="345" y="373" type="curve"/>
      <point x="343" y="368"/>
      <point x="302" y="313"/>
      <point x="271" y="290" type="curve"/>
      <point x="262" y="304"/>
      <point x="250" y="319"/>
      <point x="236" y="332" type="curve"/>
      <point x="227" y="93" type="line"/>
      <point x="232" y="93" type="line" smooth="yes"/>
      <point x="259" y="93"/>
      <point x="293" y="115"/>
      <point x="327" y="157" type="curve"/>
      <point x="366" y="117" type="line"/>
      <point x="343" y="87"/>
      <point x="277" y="48"/>
      <point x="224" y="22" type="curve"/>
      <point x="224" y="15" type="line" smooth="yes"/>
      <point x="224" y="-13"/>
      <point x="224" y="-42"/>
      <point x="225" y="-70" type="curve"/>
      <point x="152" y="-66" type="line"/>
      <point x="153" y="-61"/>
      <point x="153" y="-50"/>
      <point x="153" y="-37" type="curve" smooth="yes"/>
      <point x="153" y="-28"/>
      <point x="154" y="-17"/>
      <point x="154" y="-6" type="curve" smooth="yes"/>
      <point x="154" y="-4" type="line"/>
      <point x="50" y="-1"/>
      <point x="5" y="126"/>
      <point x="5" y="221" type="curve" smooth="yes"/>
      <point x="5" y="241"/>
      <point x="8" y="260"/>
      <point x="11" y="277" type="curve"/>
      <point x="20" y="316"/>
      <point x="102" y="429"/>
      <point x="160" y="465" type="curve"/>
      <point x="160" y="475"/>
      <point x="159" y="484"/>
      <point x="159" y="495" type="curve"/>
      <point x="201" y="528" type="line"/>
      <point x="229" y="528"/>
      <point x="235" y="495"/>
      <point x="238" y="460" type="curve"/>
      <point x="283" y="437"/>
      <point x="340" y="395"/>
    </contour>
    <contour>
      <point x="158" y="263" type="line"/>
      <point x="158" y="302"/>
      <point x="159" y="340"/>
      <point x="160" y="376" type="curve"/>
      <point x="157" y="376" type="line" smooth="yes"/>
      <point x="144" y="376"/>
      <point x="130" y="365"/>
      <point x="122" y="332" type="curve"/>
      <point x="122" y="314" type="line"/>
      <point x="121" y="302"/>
      <point x="120" y="290"/>
      <point x="120" y="279" type="curve" smooth="yes"/>
      <point x="120" y="214"/>
      <point x="134" y="167"/>
      <point x="155" y="137" type="curve"/>
    </contour>
  </outline>
</glyph>
<glyph name="sterling" format="1">
  <advance width="566"/>
  <unicode hex="00A3"/>
  <outline>
    <contour>
      <point x="140" y="383" type="line"/>
      <point x="207" y="383" type="line"/>
      <point x="207" y="387"/>
      <point x="208" y="400"/>
      <point x="209" y="405" type="qcurve"/>
      <point x="211" y="418"/>
      <point x="212" y="445"/>
      <point x="213" y="465" type="qcurve"/>
      <point x="223" y="487"/>
      <point x="266" y="550"/>
      <point x="319" y="607"/>
      <point x="373" y="648"/>
      <point x="394" y="648" type="qcurve"/>
      <point x="413" y="646"/>
      <point x="443" y="631"/>
      <point x="457" y="622" type="qcurve" name="hr01"/>
      <point x="468" y="613" type="line" name="hr02"/>
      <point x="483" y="602"/>
      <point x="510" y="579"/>
      <point x="531" y="561"/>
      <point x="543" y="549"/>
      <point x="543" y="548" type="qcurve"/>
      <point x="543" y="546"/>
      <point x="527" y="526"/>
      <point x="503" y="500"/>
      <point x="477" y="475"/>
      <point x="468" y="469" type="qcurve"/>
      <point x="458" y="483"/>
      <point x="430" y="512"/>
      <point x="398" y="535"/>
      <point x="366" y="550"/>
      <point x="353" y="550" type="qcurve"/>
      <point x="343" y="550"/>
      <point x="326" y="532"/>
      <point x="320" y="511" type="qcurve" name="hr03"/>
      <point x="316" y="503"/>
      <point x="316" y="487" type="qcurve"/>
      <point x="316" y="480"/>
      <point x="317" y="468"/>
      <point x="317" y="463" type="qcurve"/>
      <point x="317" y="446"/>
      <point x="319" y="418"/>
      <point x="320" y="407" type="qcurve"/>
      <point x="320" y="403"/>
      <point x="321" y="397"/>
      <point x="321" y="394" type="qcurve"/>
      <point x="321" y="392"/>
      <point x="322" y="389"/>
      <point x="322" y="387" type="qcurve"/>
      <point x="322" y="383" type="line"/>
      <point x="448" y="383" type="line"/>
      <point x="409" y="320" type="line"/>
      <point x="391" y="320"/>
      <point x="361" y="320"/>
      <point x="354" y="321" type="qcurve"/>
      <point x="349" y="321"/>
      <point x="339" y="322"/>
      <point x="332" y="322" type="qcurve"/>
      <point x="324" y="321" type="line"/>
      <point x="321" y="288"/>
      <point x="301" y="221"/>
      <point x="270" y="157"/>
      <point x="228" y="98"/>
      <point x="203" y="74" type="qcurve"/>
      <point x="219" y="72"/>
      <point x="259" y="70"/>
      <point x="300" y="68"/>
      <point x="338" y="68"/>
      <point x="352" y="68" type="qcurve"/>
      <point x="363" y="68" type="line"/>
      <point x="386" y="68"/>
      <point x="446" y="74"/>
      <point x="476" y="91" type="qcurve"/>
      <point x="556" y="28" type="line"/>
      <point x="556" y="10"/>
      <point x="478" y="1"/>
      <point x="399" y="1" type="qcurve"/>
      <point x="286" y="1" type="line"/>
      <point x="270" y="1"/>
      <point x="239" y="2"/>
      <point x="228" y="2" type="qcurve"/>
      <point x="213" y="2"/>
      <point x="172" y="2"/>
      <point x="128" y="1"/>
      <point x="83" y="0"/>
      <point x="64" y="0" type="qcurve"/>
      <point x="101" y="85" type="line"/>
      <point x="120" y="80"/>
      <point x="133" y="78"/>
      <point x="138" y="77" type="qcurve"/>
      <point x="153" y="92"/>
      <point x="175" y="147"/>
      <point x="192" y="213"/>
      <point x="202" y="286"/>
      <point x="204" y="320" type="qcurve"/>
      <point x="120" y="312" type="line"/>
    </contour>
  </outline>
</glyph>
<glyph name="currency" format="1">
  <advance width="485"/>
  <unicode hex="00A4"/>
  <outline>
    <contour>
      <point x="37" y="300" type="qcurve" name="hr00"/>
      <point x="37" y="344"/>
      <point x="69" y="388" type="qcurve"/>
      <point x="25" y="440" type="line"/>
      <point x="17" y="452"/>
      <point x="17" y="454" type="qcurve"/>
      <point x="92" y="492" type="line"/>
      <point x="112" y="461"/>
      <point x="131" y="442" type="qcurve"/>
      <point x="175" y="467"/>
      <point x="237" y="467" type="qcurve"/>
      <point x="294" y="467"/>
      <point x="339" y="442" type="qcurve"/>
      <point x="384" y="491" type="line"/>
      <point x="458" y="452" type="line"/>
      <point x="443" y="434" type="line"/>
      <point x="435" y="423"/>
      <point x="413" y="401"/>
      <point x="402" y="388" type="qcurve"/>
      <point x="419" y="365"/>
      <point x="433" y="323"/>
      <point x="433" y="300" type="qcurve"/>
      <point x="433" y="254"/>
      <point x="401" y="210" type="qcurve"/>
      <point x="457" y="141" type="line"/>
      <point x="385" y="104" type="line"/>
      <point x="364" y="126" type="line"/>
      <point x="358" y="132"/>
      <point x="343" y="147"/>
      <point x="335" y="156" type="qcurve"/>
      <point x="296" y="135"/>
      <point x="237" y="135" type="qcurve"/>
      <point x="178" y="135"/>
      <point x="136" y="157" type="qcurve"/>
      <point x="109" y="125" type="line"/>
      <point x="88" y="104" type="line"/>
      <point x="16" y="142" type="line"/>
      <point x="21" y="149"/>
      <point x="52" y="186"/>
      <point x="73" y="210" type="qcurve"/>
      <point x="56" y="233"/>
      <point x="37" y="278"/>
    </contour>
    <contour>
      <point x="133" y="300" type="qcurve"/>
      <point x="133" y="276"/>
      <point x="149" y="235"/>
      <point x="178" y="205"/>
      <point x="216" y="187"/>
      <point x="237" y="187" type="qcurve"/>
      <point x="258" y="187"/>
      <point x="295" y="205"/>
      <point x="323" y="235"/>
      <point x="339" y="276"/>
      <point x="339" y="300" type="qcurve"/>
      <point x="339" y="324"/>
      <point x="323" y="366"/>
      <point x="295" y="397"/>
      <point x="258" y="415"/>
      <point x="237" y="415" type="qcurve"/>
      <point x="216" y="415"/>
      <point x="178" y="397"/>
      <point x="149" y="366"/>
      <point x="133" y="324"/>
    </contour>
  </outline>
</glyph>
<glyph name="yen" format="1">
  <advance width="577"/>
  <unicode hex="00A5"/>
  <outline>
    <contour>
      <point x="80" y="215" type="line"/>
      <point x="236" y="215" type="line"/>
      <point x="236" y="248" type="line" smooth="yes"/>
      <point x="236" y="259"/>
      <point x="237" y="271"/>
      <point x="237" y="283" type="curve"/>
      <point x="184" y="281"/>
      <point x="106" y="276"/>
      <point x="78" y="273" type="curve"/>
      <point x="96" y="335" type="line"/>
      <point x="214" y="335" type="line"/>
      <point x="188" y="394"/>
      <point x="170" y="434"/>
      <point x="156" y="458" type="curve" smooth="yes"/>
      <point x="130" y="502"/>
      <point x="78" y="584"/>
      <point x="58" y="594" type="curve"/>
      <point x="120" y="647" type="line"/>
      <point x="129" y="649"/>
      <point x="134" y="649"/>
      <point x="142" y="649" type="curve" smooth="yes"/>
      <point x="185" y="649"/>
      <point x="208" y="607"/>
      <point x="254" y="520" type="curve" smooth="yes"/>
      <point x="274" y="482"/>
      <point x="281" y="462"/>
      <point x="314" y="405" type="curve"/>
      <point x="328" y="432"/>
      <point x="342" y="463"/>
      <point x="350" y="484" type="curve"/>
      <point x="371" y="525"/>
      <point x="404" y="604"/>
      <point x="404" y="637" type="curve" smooth="yes"/>
      <point x="404" y="644" type="line"/>
      <point x="410" y="644"/>
      <point x="423" y="644"/>
      <point x="481" y="649" type="curve"/>
      <point x="500" y="644"/>
      <point x="509" y="638"/>
      <point x="509" y="630" type="curve" smooth="yes"/>
      <point x="509" y="609"/>
      <point x="488" y="564"/>
      <point x="452" y="488" type="curve" smooth="yes"/>
      <point x="429" y="438"/>
      <point x="403" y="385"/>
      <point x="381" y="335" type="curve"/>
      <point x="482" y="335" type="line"/>
      <point x="526" y="342" type="line"/>
      <point x="490" y="283" type="line"/>
      <point x="484" y="283"/>
      <point x="461" y="284"/>
      <point x="456" y="284" type="curve" smooth="yes"/>
      <point x="441" y="285"/>
      <point x="430" y="285"/>
      <point x="418" y="285" type="curve" smooth="yes"/>
      <point x="389" y="285" type="line" smooth="yes"/>
      <point x="376" y="285"/>
      <point x="381" y="284"/>
      <point x="363" y="284" type="curve"/>
      <point x="362" y="234"/>
      <point x="362" y="229"/>
      <point x="362" y="227" type="curve" smooth="yes"/>
      <point x="362" y="215" type="line"/>
      <point x="508" y="215" type="line"/>
      <point x="474" y="162" type="line"/>
      <point x="444" y="162" type="line" smooth="yes"/>
      <point x="419" y="162"/>
      <point x="398" y="164"/>
      <point x="376" y="164" type="curve" smooth="yes"/>
      <point x="360" y="164" type="line"/>
      <point x="360" y="123"/>
      <point x="363" y="44"/>
      <point x="363" y="12" type="curve" smooth="yes"/>
      <point x="363" y="2" type="line"/>
      <point x="226" y="2" type="line"/>
      <point x="227" y="43"/>
      <point x="231" y="123"/>
      <point x="233" y="160" type="curve"/>
      <point x="214" y="160" type="line" smooth="yes"/>
      <point x="159" y="160"/>
      <point x="89" y="157"/>
      <point x="62" y="154" type="curve"/>
    </contour>
  </outline>
</glyph>
<glyph name="brokenbar" format="1">
  <advance width="235"/>
  <unicode hex="00A6"/>
  <outline>
    <contour>
      <point x="75" y="-233" type="line"/>
      <point x="80" y="-199"/>
      <point x="80" y="-95"/>
      <point x="80" y="-43" type="curve" smooth="yes"/>
      <point x="80" y="158" type="line"/>
      <point x="169" y="158" type="line"/>
      <point x="171" y="152"/>
      <point x="171" y="148"/>
      <point x="171" y="142" type="curve" smooth="yes"/>
      <point x="171" y="108"/>
      <point x="167" y="19"/>
      <point x="167" y="-103" type="curve" smooth="yes"/>
      <point x="167" y="-142" type="line" smooth="yes"/>
      <point x="167" y="-157"/>
      <point x="168" y="-173"/>
      <point x="168" y="-189" type="curve" smooth="yes"/>
      <point x="168" y="-241" type="line"/>
    </contour>
    <contour>
      <point x="76" y="308" type="line"/>
      <point x="79" y="341"/>
      <point x="80" y="425"/>
      <point x="80" y="487" type="curve" smooth="yes"/>
      <point x="80" y="539" type="line" smooth="yes"/>
      <point x="80" y="580"/>
      <point x="78" y="676"/>
      <point x="72" y="687" type="curve"/>
      <point x="125" y="717" type="line"/>
      <point x="168" y="704"/>
      <point x="169" y="575"/>
      <point x="169" y="364" type="curve" smooth="yes"/>
      <point x="169" y="308" type="line"/>
    </contour>
  </outline>
</glyph>
<glyph name="section" format="1">
  <advance width="460"/>
  <unicode hex="00A7"/>
  <outline>
    <contour>
      <point x="140" y="-42" type="line" name="hr02"/>
      <point x="141" y="-65"/>
      <point x="164" y="-94"/>
      <point x="197" y="-110"/>
      <point x="238" y="-115"/>
      <point x="257" y="-115" type="qcurve"/>
      <point x="268" y="-115"/>
      <point x="290" y="-109"/>
      <point x="295" y="-104" type="qcurve"/>
      <point x="302" y="-93" type="line"/>
      <point x="305" y="-88"/>
      <point x="309" y="-76"/>
      <point x="310" y="-64" type="qcurve"/>
      <point x="310" y="-46"/>
      <point x="290" y="-17"/>
      <point x="258" y="8"/>
      <point x="218" y="29"/>
      <point x="197" y="38" type="qcurve"/>
      <point x="167" y="51"/>
      <point x="107" y="82"/>
      <point x="58" y="118"/>
      <point x="27" y="159"/>
      <point x="27" y="183" type="qcurve"/>
      <point x="27" y="189" type="line"/>
      <point x="25" y="195"/>
      <point x="25" y="200" type="qcurve"/>
      <point x="25" y="217"/>
      <point x="51" y="261"/>
      <point x="94" y="306"/>
      <point x="149" y="349"/>
      <point x="179" y="366" type="qcurve"/>
      <point x="174" y="369" type="line"/>
      <point x="146" y="381"/>
      <point x="93" y="405"/>
      <point x="52" y="438"/>
      <point x="27" y="481"/>
      <point x="27" y="511" type="qcurve"/>
      <point x="27" y="518" type="line"/>
      <point x="27" y="520"/>
      <point x="28" y="522"/>
      <point x="28" y="524" type="qcurve"/>
      <point x="28" y="527"/>
      <point x="29" y="530" type="qcurve"/>
      <point x="35" y="549"/>
      <point x="83" y="591"/>
      <point x="142" y="627"/>
      <point x="201" y="650"/>
      <point x="220" y="650" type="qcurve"/>
      <point x="253" y="650"/>
      <point x="312" y="642"/>
      <point x="357" y="632"/>
      <point x="384" y="622"/>
      <point x="384" y="620" type="qcurve"/>
      <point x="387" y="612" type="line"/>
      <point x="395" y="590"/>
      <point x="413" y="536"/>
      <point x="416" y="520" type="qcurve"/>
      <point x="317" y="519" type="line"/>
      <point x="316" y="542"/>
      <point x="293" y="571"/>
      <point x="260" y="587"/>
      <point x="219" y="592"/>
      <point x="200" y="592" type="qcurve"/>
      <point x="189" y="592"/>
      <point x="167" y="586"/>
      <point x="162" y="581" type="qcurve"/>
      <point x="155" y="570" type="line"/>
      <point x="152" y="565"/>
      <point x="148" y="553"/>
      <point x="147" y="541" type="qcurve"/>
      <point x="147" y="522"/>
      <point x="168" y="491"/>
      <point x="201" y="466"/>
      <point x="243" y="443"/>
      <point x="265" y="433" type="qcurve"/>
      <point x="293" y="419"/>
      <point x="352" y="389"/>
      <point x="400" y="354"/>
      <point x="430" y="316"/>
      <point x="430" y="294" type="qcurve" name="hr01"/>
      <point x="430" y="288" type="line"/>
      <point x="432" y="280"/>
      <point x="432" y="275" type="qcurve"/>
      <point x="432" y="255"/>
      <point x="406" y="211"/>
      <point x="362" y="167"/>
      <point x="305" y="127"/>
      <point x="274" y="111" type="qcurve"/>
      <point x="283" y="108" type="line"/>
      <point x="311" y="96"/>
      <point x="364" y="72"/>
      <point x="405" y="39"/>
      <point x="430" y="-4"/>
      <point x="430" y="-34" type="qcurve"/>
      <point x="430" y="-41" type="line"/>
      <point x="430" y="-43"/>
      <point x="429" y="-45"/>
      <point x="429" y="-47" type="qcurve"/>
      <point x="429" y="-48"/>
      <point x="428" y="-51"/>
      <point x="428" y="-53" type="qcurve"/>
      <point x="422" y="-72"/>
      <point x="374" y="-114"/>
      <point x="315" y="-150"/>
      <point x="256" y="-173"/>
      <point x="237" y="-173" type="qcurve"/>
      <point x="204" y="-173"/>
      <point x="145" y="-165"/>
      <point x="100" y="-155"/>
      <point x="73" y="-145"/>
      <point x="73" y="-143" type="qcurve"/>
      <point x="70" y="-135" type="line"/>
      <point x="62" y="-113"/>
      <point x="44" y="-59"/>
      <point x="41" y="-43" type="qcurve"/>
    </contour>
    <contour>
      <point x="298" y="222" type="qcurve"/>
      <point x="298" y="227" type="line"/>
      <point x="298" y="273"/>
      <point x="261" y="324"/>
      <point x="233" y="341" type="qcurve"/>
      <point x="221" y="335"/>
      <point x="196" y="314"/>
      <point x="175" y="290"/>
      <point x="160" y="265"/>
      <point x="159" y="255" type="qcurve"/>
      <point x="159" y="250" type="line"/>
      <point x="159" y="203"/>
      <point x="196" y="151"/>
      <point x="225" y="134" type="qcurve"/>
      <point x="236" y="140"/>
      <point x="261" y="161"/>
      <point x="282" y="186"/>
      <point x="297" y="212"/>
    </contour>
  </outline>
</glyph>
<glyph name="dieresis" format="1">
  <advance width="402"/>
  <unicode hex="00A8"/>
  <outline>
    <contour>
      <point x="134" y="693" type="curve" smooth="yes"/>
      <point x="180" y="693"/>
      <point x="192" y="666"/>
      <point x="192" y="648" type="curve" smooth="yes"/>
      <point x="192" y="627"/>
      <point x="165" y="606"/>
      <point x="131" y="606" type="curve" smooth="yes"/>
      <point x="95" y="606"/>
      <point x="72" y="628"/>
      <point x="72" y="650" type="curve" smooth="yes"/>
      <point x="72" y="680"/>
      <point x="110" y="693"/>
    </contour>
    <contour>
      <point x="272" y="693" type="curve" smooth="yes"/>
      <point x="318" y="693"/>
      <point x="330" y="666"/>
      <point x="330" y="648" type="curve" smooth="yes"/>
      <point x="330" y="627"/>
      <point x="303" y="606"/>
      <point x="268" y="606" type="curve" smooth="yes"/>
      <point x="233" y="606"/>
      <point x="211" y="628"/>
      <point x="211" y="650" type="curve" smooth="yes"/>
      <point x="211" y="652"/>
      <point x="211" y="655"/>
      <point x="213" y="661" type="curve"/>
      <point x="216" y="680"/>
      <point x="245" y="693"/>
    </contour>
    <contour>
      <point x="182" y="521" type="move" name="_top"/>
    </contour>
  </outline>
</glyph>
<glyph name="copyright" format="1">
  <advance width="738"/>
  <unicode hex="00A9"/>
  <outline>
    <contour>
      <point x="19" y="324" type="curve" smooth="yes"/>
      <point x="19" y="505"/>
      <point x="174" y="650"/>
      <point x="363" y="650" type="curve" smooth="yes"/>
      <point x="555" y="650"/>
      <point x="709" y="505"/>
      <point x="709" y="324" type="curve" smooth="yes"/>
      <point x="709" y="146"/>
      <point x="555" y="0"/>
      <point x="363" y="0" type="curve" smooth="yes"/>
      <point x="174" y="0"/>
      <point x="19" y="146"/>
    </contour>
    <contour>
      <point x="129" y="324" type="curve" smooth="yes"/>
      <point x="129" y="185"/>
      <point x="235" y="70"/>
      <point x="363" y="70" type="curve" smooth="yes"/>
      <point x="493" y="70"/>
      <point x="598" y="185"/>
      <point x="598" y="324" type="curve" smooth="yes"/>
      <point x="598" y="465"/>
      <point x="493" y="579"/>
      <point x="363" y="579" type="curve" smooth="yes"/>
      <point x="235" y="579"/>
      <point x="129" y="465"/>
    </contour>
    <contour>
      <point x="510" y="451" type="curve"/>
      <point x="508" y="447"/>
      <point x="472" y="398"/>
      <point x="441" y="376" type="curve"/>
      <point x="419" y="413"/>
      <point x="369" y="453"/>
      <point x="341" y="453" type="curve" smooth="yes"/>
      <point x="330" y="453"/>
      <point x="319" y="444"/>
      <point x="311" y="414" type="curve"/>
      <point x="311" y="398" type="line"/>
      <point x="310" y="388"/>
      <point x="309" y="377"/>
      <point x="309" y="367" type="curve" smooth="yes"/>
      <point x="309" y="251"/>
      <point x="358" y="202"/>
      <point x="407" y="202" type="curve" smooth="yes"/>
      <point x="430" y="202"/>
      <point x="460" y="222"/>
      <point x="491" y="261" type="curve"/>
      <point x="528" y="223" type="line"/>
      <point x="496" y="181"/>
      <point x="362" y="116"/>
      <point x="341" y="116" type="curve" smooth="yes"/>
      <point x="245" y="116"/>
      <point x="203" y="230"/>
      <point x="203" y="316" type="curve" smooth="yes"/>
      <point x="203" y="332"/>
      <point x="206" y="352"/>
      <point x="209" y="365" type="curve" smooth="yes"/>
      <point x="222" y="411"/>
      <point x="324" y="543"/>
      <point x="371" y="543" type="curve" smooth="yes"/>
      <point x="379" y="543" type="line"/>
      <point x="411" y="537"/>
      <point x="505" y="478"/>
    </contour>
  </outline>
</glyph>
<glyph name="ordfeminine" format="1">
  <advance width="378"/>
  <unicode hex="00AA"/>
  <outline>
    <contour>
      <point x="153" y="356" type="qcurve"/>
      <point x="133" y="358"/>
      <point x="101" y="377"/>
      <point x="78" y="400"/>
      <point x="66" y="420"/>
      <point x="66" y="422" type="qcurve" name="hr01"/>
      <point x="70" y="433"/>
      <point x="87" y="464"/>
      <point x="115" y="492"/>
      <point x="160" y="512"/>
      <point x="193" y="512" type="qcurve"/>
      <point x="193" y="519" type="line"/>
      <point x="193" y="561"/>
      <point x="175" y="588"/>
      <point x="163" y="588" type="qcurve" name="hr02"/>
      <point x="157" y="588"/>
      <point x="141" y="584"/>
      <point x="133" y="582" type="qcurve"/>
      <point x="100" y="580" type="line"/>
      <point x="97" y="584" type="line"/>
      <point x="116" y="604"/>
      <point x="164" y="638"/>
      <point x="183" y="638" type="qcurve"/>
      <point x="196" y="635"/>
      <point x="233" y="619"/>
      <point x="266" y="598"/>
      <point x="289" y="572"/>
      <point x="289" y="557" type="qcurve"/>
      <point x="289" y="539"/>
      <point x="286" y="500"/>
      <point x="286" y="488" type="qcurve"/>
      <point x="286" y="459"/>
      <point x="294" y="425"/>
      <point x="306" y="405"/>
      <point x="321" y="397"/>
      <point x="327" y="395" type="qcurve"/>
      <point x="329" y="394"/>
      <point x="331" y="394"/>
      <point x="332" y="393" type="qcurve"/>
      <point x="328" y="386"/>
      <point x="320" y="378" type="qcurve"/>
      <point x="313" y="371"/>
      <point x="292" y="354"/>
      <point x="275" y="344" type="qcurve"/>
      <point x="254" y="354"/>
      <point x="221" y="377"/>
      <point x="212" y="386" type="qcurve"/>
      <point x="197" y="372"/>
      <point x="167" y="356"/>
    </contour>
    <contour>
      <point x="203" y="422" type="qcurve"/>
      <point x="202" y="424"/>
      <point x="194" y="450"/>
      <point x="194" y="464" type="qcurve"/>
      <point x="194" y="486" type="line"/>
      <point x="190" y="488" type="line"/>
      <point x="182" y="488"/>
      <point x="169" y="483"/>
      <point x="165" y="480" type="qcurve"/>
      <point x="160" y="476"/>
      <point x="157" y="473" type="qcurve"/>
      <point x="158" y="464"/>
      <point x="164" y="445"/>
      <point x="173" y="428"/>
      <point x="184" y="417"/>
      <point x="191" y="417" type="qcurve"/>
      <point x="193" y="417"/>
    </contour>
    <contour>
      <point x="80" y="317" type="line"/>
      <point x="177" y="317" type="line"/>
      <point x="204" y="317"/>
      <point x="258" y="319"/>
      <point x="285" y="319" type="qcurve"/>
      <point x="339" y="319" type="line"/>
      <point x="309" y="276" type="line"/>
      <point x="271" y="276"/>
      <point x="205" y="276"/>
      <point x="147" y="274"/>
      <point x="93" y="271"/>
      <point x="66" y="268" type="qcurve"/>
    </contour>
  </outline>
</glyph>
